{"glyphs":{"0":{"ha":938,"x_min":47,"x_max":863,"o":"m 365 -19 q 128 85 210 -19 q 47 360 47 189 q 109 667 47 522 q 283 901 171 811 q 543 992 394 992 q 778 893 693 992 q 863 625 863 794 q 800 317 863 465 q 626 75 738 169 q 365 -19 514 -19 m 386 100 q 572 178 497 100 q 685 376 647 256 q 724 621 724 496 q 670 810 724 747 q 522 872 617 872 q 336 795 411 872 q 224 601 261 718 q 188 361 188 483 q 238 167 188 235 q 386 100 289 100 z "},"1":{"ha":439,"x_min":69,"x_max":392,"o":"m 92 0 l 231 782 q 138 724 174 742 q 71 697 101 707 l 69 821 q 196 881 131 839 q 301 972 261 924 l 392 972 l 219 0 l 92 0 z "},"2":{"ha":678,"x_min":-42,"x_max":608,"o":"m -42 1 l 279 404 q 423 601 376 526 q 469 749 469 675 q 353 867 469 867 q 219 832 283 867 q 94 743 156 797 l 103 882 q 229 959 156 926 q 382 992 303 992 q 552 931 496 992 q 608 769 608 869 q 551 569 608 661 q 386 343 493 478 l 208 121 l 540 121 l 519 1 l -42 1 z "},"3":{"ha":713,"x_min":-42,"x_max":638,"o":"m 247 -19 q 94 4 167 -19 q -42 67 21 28 l 13 189 q 131 124 72 149 q 256 100 189 100 q 390 147 336 100 q 443 276 443 193 q 397 396 443 351 q 249 440 350 440 l 194 440 l 215 560 l 269 560 q 428 609 367 560 q 489 747 489 658 q 357 872 489 872 q 251 849 306 872 q 146 793 197 826 l 147 928 q 266 975 203 958 q 399 992 329 992 q 573 931 508 992 q 638 771 638 869 q 567 588 638 664 q 386 490 497 513 l 392 522 q 535 439 483 500 q 586 282 586 378 q 490 67 586 154 q 247 -19 394 -19 z "},"4":{"ha":778,"x_min":-28,"x_max":700,"o":"m -28 251 l 601 972 l 697 972 l 589 364 l 700 364 l 681 251 l 569 251 l 525 0 l 397 0 l 442 251 l -28 251 m 186 326 l 163 364 l 461 364 l 539 799 l 561 760 l 186 326 z "},"5":{"ha":710,"x_min":-29,"x_max":674,"o":"m 243 -19 q 99 0 167 -19 q -29 60 32 19 l 32 171 q 133 119 83 139 q 247 100 182 100 q 410 160 351 100 q 469 317 469 221 q 269 500 469 500 q 179 496 222 500 q 92 485 136 492 l 232 972 l 674 972 l 646 847 l 318 847 l 228 543 l 197 603 q 319 614 257 614 q 534 535 460 614 q 608 331 608 456 q 505 77 608 174 q 243 -19 401 -19 z "},"6":{"ha":763,"x_min":28,"x_max":679,"o":"m 311 -19 q 104 58 181 -19 q 28 265 28 135 q 107 556 28 415 q 314 811 186 697 q 585 992 442 925 l 660 893 q 492 801 574 854 q 342 684 410 749 q 227 544 274 619 q 164 382 181 468 l 147 439 q 265 544 192 506 q 428 583 339 583 q 611 513 543 583 q 679 333 679 443 q 576 83 679 186 q 311 -19 472 -19 m 319 94 q 478 164 415 94 q 540 321 540 233 q 501 428 540 386 q 393 469 463 469 q 229 401 294 469 q 164 243 164 332 q 206 135 165 176 q 319 94 247 94 z "},"7":{"ha":674,"x_min":25,"x_max":729,"o":"m 25 0 l 549 907 l 575 847 l 106 847 l 128 972 l 729 972 l 164 0 l 25 0 z "},"8":{"ha":811,"x_min":31,"x_max":717,"o":"m 317 -19 q 110 47 189 -19 q 31 225 31 114 q 143 475 31 372 q 413 578 256 578 q 615 512 540 578 q 689 333 689 446 q 581 79 689 178 q 317 -19 472 -19 m 328 100 q 490 162 428 100 q 551 318 551 224 q 510 428 550 386 q 393 469 469 469 q 231 401 294 469 q 168 239 168 333 q 210 138 169 175 q 328 100 250 100 m 414 585 q 536 634 489 585 q 583 756 583 683 q 464 872 583 872 q 338 824 386 872 q 289 703 289 775 q 321 619 289 653 q 414 585 353 585 m 400 476 q 226 534 294 476 q 156 686 157 592 q 250 904 156 817 q 481 992 344 992 q 660 928 604 992 q 717 775 717 864 q 624 560 717 643 q 400 476 532 476 z "},"9":{"ha":776,"x_min":69,"x_max":721,"o":"m 438 992 q 644 915 568 992 q 721 707 721 838 q 642 416 721 557 q 435 161 563 275 q 164 -19 307 47 l 89 79 q 257 171 175 118 q 407 288 339 224 q 522 428 475 353 q 585 590 568 504 l 601 533 q 483 428 557 467 q 321 389 410 389 q 138 459 206 389 q 69 639 69 529 q 173 889 69 786 q 438 992 276 992 m 429 878 q 271 808 333 878 q 208 651 208 739 q 247 544 208 586 q 356 503 286 503 q 519 572 454 503 q 585 729 585 640 q 542 837 583 796 q 429 878 501 878 z "},"A":{"ha":789,"x_min":-51,"x_max":708,"o":"m -51 0 l 433 972 l 567 972 l 708 0 l 569 0 l 535 263 l 214 263 l 88 0 l -51 0 m 278 382 l 513 382 l 467 788 l 278 382 z "},"Á":{"ha":789,"x_min":-51,"x_max":708,"o":"m -51 0 l 433 972 l 567 972 l 708 0 l 569 0 l 535 263 l 214 263 l 88 0 l -51 0 m 278 382 l 513 382 l 467 788 l 278 382 m 407 1090 l 424 1185 l 678 1329 l 654 1175 l 407 1090 z "},"Ă":{"ha":789,"x_min":-51,"x_max":758,"o":"m -51 0 l 433 972 l 567 972 l 708 0 l 569 0 l 535 263 l 214 263 l 88 0 l -51 0 m 278 382 l 513 382 l 467 788 l 278 382 m 531 1092 q 399 1133 440 1092 q 358 1232 358 1175 q 364 1268 358 1251 l 472 1268 q 468 1244 468 1258 q 542 1183 468 1183 q 607 1204 578 1183 q 643 1268 636 1225 l 758 1268 q 690 1143 747 1194 q 531 1092 632 1092 z "},"Ắ":{"ha":789,"x_min":-51,"x_max":758,"o":"m -51 0 l 433 972 l 567 972 l 708 0 l 569 0 l 535 263 l 214 263 l 88 0 l -51 0 m 278 382 l 513 382 l 467 788 l 278 382 m 528 1061 q 392 1101 435 1061 q 350 1197 350 1142 q 353 1228 350 1208 l 464 1228 q 463 1211 463 1222 q 540 1147 463 1147 q 609 1167 578 1147 q 647 1228 640 1188 l 758 1228 q 688 1108 746 1156 q 528 1061 631 1061 m 472 1289 l 483 1378 l 721 1510 l 701 1369 l 472 1289 z "},"Ặ":{"ha":789,"x_min":-51,"x_max":749,"o":"m -51 0 l 433 972 l 567 972 l 708 0 l 569 0 l 535 263 l 214 263 l 88 0 l -51 0 m 278 382 l 513 382 l 467 788 l 278 382 m 518 1061 q 383 1101 425 1061 q 340 1197 340 1142 q 343 1228 340 1208 l 454 1228 q 453 1211 453 1222 q 531 1147 453 1147 q 599 1167 568 1147 q 638 1228 631 1188 l 749 1228 q 678 1108 736 1156 q 518 1061 621 1061 z "},"Ằ":{"ha":789,"x_min":-51,"x_max":754,"o":"m -51 0 l 433 972 l 567 972 l 708 0 l 569 0 l 535 263 l 214 263 l 88 0 l -51 0 m 278 382 l 513 382 l 467 788 l 278 382 m 524 1060 q 388 1100 431 1060 q 346 1196 346 1140 q 349 1226 346 1207 l 460 1226 q 458 1210 458 1221 q 536 1146 458 1146 q 605 1166 574 1146 q 643 1226 636 1186 l 754 1226 q 684 1107 742 1154 q 524 1060 626 1060 m 696 1288 l 465 1368 l 489 1500 l 711 1368 l 696 1288 z "},"Ẳ":{"ha":789,"x_min":-51,"x_max":768,"o":"m -51 0 l 433 972 l 567 972 l 708 0 l 569 0 l 535 263 l 214 263 l 88 0 l -51 0 m 278 382 l 513 382 l 467 788 l 278 382 m 538 1061 q 401 1101 443 1061 q 360 1197 360 1142 q 363 1228 360 1208 l 474 1228 q 472 1211 472 1222 q 550 1147 472 1147 q 619 1167 588 1147 q 657 1228 650 1188 l 768 1228 q 698 1108 756 1156 q 538 1061 640 1061 m 574 1250 l 571 1306 q 628 1365 628 1325 q 578 1404 628 1404 q 537 1397 558 1404 q 493 1379 515 1389 l 482 1450 q 594 1475 535 1475 q 677 1451 644 1475 q 710 1382 710 1426 q 672 1295 710 1328 q 574 1250 633 1263 z "},"Ẵ":{"ha":789,"x_min":-51,"x_max":822,"o":"m -51 0 l 433 972 l 567 972 l 708 0 l 569 0 l 535 263 l 214 263 l 88 0 l -51 0 m 278 382 l 513 382 l 467 788 l 278 382 m 533 1061 q 398 1101 440 1061 q 356 1197 356 1142 q 358 1228 356 1208 l 469 1228 q 468 1211 468 1222 q 546 1147 468 1147 q 615 1167 583 1147 q 653 1228 646 1188 l 764 1228 q 694 1108 751 1156 q 533 1061 636 1061 m 692 1293 q 596 1320 647 1293 q 510 1347 544 1347 q 463 1300 467 1347 l 372 1300 q 500 1439 396 1439 q 597 1412 547 1439 q 685 1385 646 1385 q 732 1432 725 1385 l 822 1432 q 692 1293 801 1293 z "},"Â":{"ha":789,"x_min":-51,"x_max":713,"o":"m -51 0 l 433 972 l 567 972 l 708 0 l 569 0 l 535 263 l 214 263 l 88 0 l -51 0 m 278 382 l 513 382 l 467 788 l 278 382 m 368 1089 l 389 1178 l 567 1313 l 713 1160 l 696 1075 l 542 1186 l 368 1089 z "},"Ấ":{"ha":789,"x_min":-51,"x_max":885,"o":"m -51 0 l 433 972 l 567 972 l 708 0 l 569 0 l 535 263 l 214 263 l 88 0 l -51 0 m 278 382 l 513 382 l 467 788 l 278 382 m 690 1046 l 529 1138 l 369 1063 l 383 1147 l 550 1256 l 704 1131 l 690 1046 m 638 1249 l 751 1404 l 885 1404 l 726 1249 l 638 1249 z "},"Ậ":{"ha":789,"x_min":-51,"x_max":708,"o":"m -51 0 l 433 972 l 567 972 l 708 0 l 569 0 l 535 263 l 214 263 l 88 0 l -51 0 m 278 382 l 513 382 l 467 788 l 278 382 m 690 1046 l 529 1138 l 369 1063 l 383 1147 l 550 1256 l 704 1131 l 690 1046 z "},"Ầ":{"ha":789,"x_min":-51,"x_max":718,"o":"m -51 0 l 433 972 l 567 972 l 708 0 l 569 0 l 535 263 l 214 263 l 88 0 l -51 0 m 278 382 l 513 382 l 467 788 l 278 382 m 690 1046 l 529 1138 l 369 1063 l 383 1147 l 550 1256 l 704 1131 l 690 1046 m 629 1249 l 536 1411 l 668 1411 l 718 1249 l 629 1249 z "},"Ẩ":{"ha":789,"x_min":-51,"x_max":799,"o":"m -51 0 l 433 972 l 567 972 l 708 0 l 569 0 l 535 263 l 214 263 l 88 0 l -51 0 m 278 382 l 513 382 l 467 788 l 278 382 m 690 1046 l 529 1138 l 369 1063 l 383 1147 l 550 1256 l 704 1131 l 690 1046 m 663 1211 l 660 1267 q 717 1326 717 1286 q 667 1365 717 1365 q 626 1358 647 1365 q 582 1340 604 1350 l 571 1411 q 683 1436 624 1436 q 766 1412 733 1436 q 799 1343 799 1388 q 760 1256 799 1289 q 663 1211 722 1224 z "},"Ẫ":{"ha":789,"x_min":-51,"x_max":799,"o":"m -51 0 l 433 972 l 567 972 l 708 0 l 569 0 l 535 263 l 214 263 l 88 0 l -51 0 m 278 382 l 513 382 l 467 788 l 278 382 m 690 1046 l 529 1138 l 369 1063 l 383 1147 l 550 1256 l 704 1131 l 690 1046 m 668 1299 q 572 1326 624 1299 q 486 1353 521 1353 q 439 1306 443 1353 l 349 1306 q 476 1444 372 1444 q 573 1417 524 1444 q 661 1390 622 1390 q 708 1438 701 1390 l 799 1438 q 668 1299 778 1299 z "},"Ȁ":{"ha":789,"x_min":-51,"x_max":708,"o":"m -51 0 l 433 972 l 567 972 l 708 0 l 569 0 l 535 263 l 214 263 l 88 0 l -51 0 m 278 382 l 513 382 l 467 788 l 278 382 m 382 1094 l 286 1299 l 419 1299 l 471 1094 l 382 1094 m 574 1094 l 485 1299 l 618 1299 l 663 1094 l 574 1094 z "},"Ä":{"ha":789,"x_min":-51,"x_max":736,"o":"m -51 0 l 433 972 l 567 972 l 708 0 l 569 0 l 535 263 l 214 263 l 88 0 l -51 0 m 278 382 l 513 382 l 467 788 l 278 382 z "},"Ạ":{"ha":789,"x_min":-51,"x_max":708,"o":"m -51 0 l 433 972 l 567 972 l 708 0 l 569 0 l 535 263 l 214 263 l 88 0 l -51 0 m 278 382 l 513 382 l 467 788 l 278 382 z "},"À":{"ha":789,"x_min":-51,"x_max":708,"o":"m -51 0 l 433 972 l 567 972 l 708 0 l 569 0 l 535 263 l 214 263 l 88 0 l -51 0 m 278 382 l 513 382 l 467 788 l 278 382 m 643 1092 l 414 1188 l 438 1324 l 658 1176 l 643 1092 z "},"Ả":{"ha":789,"x_min":-51,"x_max":708,"o":"m -51 0 l 433 972 l 567 972 l 708 0 l 569 0 l 535 263 l 214 263 l 88 0 l -51 0 m 278 382 l 513 382 l 467 788 l 278 382 m 492 1067 q 549 1118 526 1094 q 572 1172 572 1142 q 524 1210 572 1210 q 478 1202 501 1210 q 432 1183 456 1194 l 421 1254 q 538 1281 476 1281 q 622 1256 589 1281 q 656 1188 654 1232 q 619 1094 656 1133 q 531 1021 583 1056 l 492 1067 z "},"Ȃ":{"ha":789,"x_min":-51,"x_max":722,"o":"m -51 0 l 433 972 l 567 972 l 708 0 l 569 0 l 535 263 l 214 263 l 88 0 l -51 0 m 278 382 l 513 382 l 467 788 l 278 382 m 319 1082 q 389 1198 331 1147 q 550 1249 447 1249 q 681 1208 640 1249 q 722 1111 722 1167 q 719 1082 722 1101 l 608 1082 q 610 1099 610 1089 q 535 1163 610 1163 q 468 1142 499 1163 q 431 1082 438 1122 l 319 1082 z "},"Ā":{"ha":789,"x_min":-51,"x_max":758,"o":"m -51 0 l 433 972 l 567 972 l 708 0 l 569 0 l 535 263 l 214 263 l 88 0 l -51 0 m 278 382 l 513 382 l 467 788 l 278 382 m 303 1101 l 319 1196 l 758 1196 l 742 1101 l 303 1101 z "},"Ą":{"ha":789,"x_min":-51,"x_max":717,"o":"m -51 0 l 433 972 l 567 972 l 708 0 l 569 0 l 535 263 l 214 263 l 88 0 l -51 0 m 278 382 l 513 382 l 467 788 l 278 382 m 635 0 l 708 0 q 615 -76 657 -36 q 574 -165 574 -115 q 625 -218 574 -218 q 708 -194 665 -218 l 717 -262 q 669 -281 697 -272 q 606 -289 640 -289 q 522 -265 556 -289 q 488 -193 489 -240 q 533 -82 488 -135 q 635 0 579 -29 z "},"Å":{"ha":789,"x_min":-51,"x_max":708,"o":"m -51 0 l 433 972 l 567 972 l 708 0 l 569 0 l 535 263 l 214 263 l 88 0 l -51 0 m 278 382 l 513 382 l 467 788 l 278 382 z "},"Ǻ":{"ha":789,"x_min":-51,"x_max":713,"o":"m -51 0 l 433 972 l 567 972 l 708 0 l 569 0 l 535 263 l 214 263 l 88 0 l -51 0 m 278 382 l 513 382 l 467 788 l 278 382 m 517 1050 q 426 1083 456 1050 q 396 1161 396 1115 q 444 1274 396 1226 q 558 1322 492 1322 q 649 1289 619 1322 q 679 1211 679 1256 q 633 1097 679 1144 q 517 1050 586 1050 m 524 1111 q 583 1138 558 1111 q 608 1201 608 1164 q 551 1261 608 1261 q 492 1235 518 1261 q 467 1172 467 1208 q 524 1111 467 1111 m 464 1368 l 475 1457 l 713 1589 l 693 1449 l 464 1368 z "},"Ã":{"ha":789,"x_min":-51,"x_max":775,"o":"m -51 0 l 433 972 l 567 972 l 708 0 l 569 0 l 535 263 l 214 263 l 88 0 l -51 0 m 278 382 l 513 382 l 467 788 l 278 382 m 633 1097 q 542 1128 589 1097 q 458 1158 496 1158 q 406 1108 417 1158 l 306 1108 q 451 1263 342 1263 q 539 1232 499 1263 q 622 1201 579 1201 q 675 1256 665 1201 l 775 1256 q 633 1097 739 1097 z "},"Æ":{"ha":1094,"x_min":-72,"x_max":1135,"o":"m -72 0 l 526 972 l 1135 972 l 1113 851 l 729 851 l 679 568 l 975 568 l 954 449 l 658 449 l 600 119 l 996 119 l 975 0 l 431 0 l 474 250 l 215 250 l 60 0 l -72 0 m 297 378 l 497 378 l 579 849 l 297 378 z "},"Ǽ":{"ha":1094,"x_min":-72,"x_max":1135,"o":"m -72 0 l 526 972 l 1135 972 l 1113 851 l 729 851 l 679 568 l 975 568 l 954 449 l 658 449 l 600 119 l 996 119 l 975 0 l 431 0 l 474 250 l 215 250 l 60 0 l -72 0 m 297 378 l 497 378 l 579 849 l 297 378 m 740 1061 l 751 1150 l 989 1282 l 969 1142 l 740 1061 z "},"B":{"ha":785,"x_min":39,"x_max":715,"o":"m 39 0 l 210 972 l 429 972 q 640 928 564 972 q 715 764 715 883 q 678 617 715 678 q 578 524 640 556 q 713 321 713 474 q 605 80 713 160 q 324 0 497 0 l 39 0 m 192 119 l 325 119 q 501 166 428 119 q 574 307 574 213 q 415 449 574 449 l 250 449 l 192 119 m 271 568 l 399 568 q 531 612 481 568 q 581 732 581 656 q 442 854 581 854 l 321 854 l 271 568 z "},"C":{"ha":785,"x_min":64,"x_max":835,"o":"m 424 -19 q 161 90 258 -19 q 64 394 64 199 q 138 701 64 567 q 333 914 211 836 q 599 992 454 992 q 730 975 667 992 q 835 935 793 958 l 799 813 q 699 852 750 832 q 581 872 647 872 q 381 805 464 872 q 254 630 299 738 q 210 401 210 522 q 267 185 210 269 q 449 100 325 100 q 569 119 511 100 q 683 158 628 139 l 675 36 q 556 -3 624 13 q 424 -19 489 -19 z "},"Ć":{"ha":785,"x_min":64,"x_max":835,"o":"m 424 -19 q 161 90 258 -19 q 64 394 64 199 q 138 701 64 567 q 333 914 211 836 q 599 992 454 992 q 730 975 667 992 q 835 935 793 958 l 799 813 q 699 852 750 832 q 581 872 647 872 q 381 805 464 872 q 254 630 299 738 q 210 401 210 522 q 267 185 210 269 q 449 100 325 100 q 569 119 511 100 q 683 158 628 139 l 675 36 q 556 -3 624 13 q 424 -19 489 -19 m 525 1061 l 536 1150 l 774 1282 l 754 1142 l 525 1061 z "},"Č":{"ha":785,"x_min":64,"x_max":835,"o":"m 424 -19 q 161 90 258 -19 q 64 394 64 199 q 138 701 64 567 q 333 914 211 836 q 599 992 454 992 q 730 975 667 992 q 835 935 793 958 l 799 813 q 699 852 750 832 q 581 872 647 872 q 381 805 464 872 q 254 630 299 738 q 210 401 210 522 q 267 185 210 269 q 449 100 325 100 q 569 119 511 100 q 683 158 628 139 l 675 36 q 556 -3 624 13 q 424 -19 489 -19 m 624 1046 l 469 1171 l 483 1256 l 644 1164 l 811 1250 l 799 1160 l 624 1046 z "},"Ç":{"ha":785,"x_min":64,"x_max":835,"o":"m 424 -19 q 161 90 258 -19 q 64 394 64 199 q 138 701 64 567 q 333 914 211 836 q 599 992 454 992 q 730 975 667 992 q 835 935 793 958 l 799 813 q 699 852 750 832 q 581 872 647 872 q 381 805 464 872 q 254 630 299 738 q 210 401 210 522 q 267 185 210 269 q 449 100 325 100 q 569 119 511 100 q 683 158 628 139 l 675 36 q 556 -3 624 13 q 424 -19 489 -19 m 419 -110 l 378 -89 q 447 -75 417 -75 q 551 -167 551 -75 q 501 -272 551 -231 q 379 -314 451 -314 q 318 -306 343 -314 q 275 -287 293 -297 l 308 -219 q 347 -237 326 -231 q 392 -243 368 -243 q 469 -182 469 -243 q 408 -135 469 -135 q 342 -146 375 -135 l 404 0 l 474 0 l 419 -110 z "},"Ḉ":{"ha":785,"x_min":64,"x_max":835,"o":"m 424 -19 q 161 90 258 -19 q 64 394 64 199 q 138 701 64 567 q 333 914 211 836 q 599 992 454 992 q 730 975 667 992 q 835 935 793 958 l 799 813 q 699 852 750 832 q 581 872 647 872 q 381 805 464 872 q 254 630 299 738 q 210 401 210 522 q 267 185 210 269 q 449 100 325 100 q 569 119 511 100 q 683 158 628 139 l 675 36 q 556 -3 624 13 q 424 -19 489 -19 m 419 -110 l 378 -89 q 447 -75 417 -75 q 551 -167 551 -75 q 501 -272 551 -231 q 379 -314 451 -314 q 318 -306 343 -314 q 275 -287 293 -297 l 308 -219 q 347 -237 326 -231 q 392 -243 368 -243 q 469 -182 469 -243 q 408 -135 469 -135 q 342 -146 375 -135 l 404 0 l 474 0 l 419 -110 m 525 1061 l 536 1150 l 774 1282 l 754 1142 l 525 1061 z "},"Ĉ":{"ha":785,"x_min":64,"x_max":835,"o":"m 424 -19 q 161 90 258 -19 q 64 394 64 199 q 138 701 64 567 q 333 914 211 836 q 599 992 454 992 q 730 975 667 992 q 835 935 793 958 l 799 813 q 699 852 750 832 q 581 872 647 872 q 381 805 464 872 q 254 630 299 738 q 210 401 210 522 q 267 185 210 269 q 449 100 325 100 q 569 119 511 100 q 683 158 628 139 l 675 36 q 556 -3 624 13 q 424 -19 489 -19 m 806 1046 l 644 1138 l 485 1063 l 499 1147 l 665 1256 l 819 1131 l 806 1046 z "},"Ċ":{"ha":785,"x_min":64,"x_max":835,"o":"m 424 -19 q 161 90 258 -19 q 64 394 64 199 q 138 701 64 567 q 333 914 211 836 q 599 992 454 992 q 730 975 667 992 q 835 935 793 958 l 799 813 q 699 852 750 832 q 581 872 647 872 q 381 805 464 872 q 254 630 299 738 q 210 401 210 522 q 267 185 210 269 q 449 100 325 100 q 569 119 511 100 q 683 158 628 139 l 675 36 q 556 -3 624 13 q 424 -19 489 -19 m 572 1099 l 594 1224 l 725 1224 l 703 1099 l 572 1099 z "},"D":{"ha":933,"x_min":39,"x_max":894,"o":"m 39 0 l 210 972 l 535 972 q 797 870 699 972 q 894 571 894 768 q 823 273 894 401 q 631 72 751 144 q 364 0 511 0 l 39 0 m 192 119 l 385 119 q 653 253 558 119 q 749 564 749 386 q 691 776 749 700 q 514 853 633 853 l 321 853 l 192 119 z "},"Ǆ":{"ha":1610,"x_min":39,"x_max":1696,"o":"m 39 0 l 210 972 l 535 972 q 797 870 699 972 q 894 571 894 768 q 823 273 894 401 q 631 72 751 144 q 364 0 511 0 l 39 0 m 192 119 l 385 119 q 653 253 558 119 q 749 564 749 386 q 691 776 749 700 q 514 853 633 853 l 321 853 l 192 119 z "},"Ð":{"ha":936,"x_min":26,"x_max":897,"o":"m 47 0 l 218 972 l 540 972 q 800 869 703 972 q 897 585 897 767 q 826 274 897 406 q 635 72 756 143 q 369 0 515 0 l 47 0 m 26 438 l 46 551 l 457 551 l 436 438 l 26 438 m 196 121 l 390 121 q 660 253 567 121 q 754 575 754 385 q 697 776 754 700 q 519 853 639 853 l 325 853 l 196 121 z "},"Ď":{"ha":933,"x_min":39,"x_max":894,"o":"m 39 0 l 210 972 l 535 972 q 797 870 699 972 q 894 571 894 768 q 823 273 894 401 q 631 72 751 144 q 364 0 511 0 l 39 0 m 192 119 l 385 119 q 653 253 558 119 q 749 564 749 386 q 691 776 749 700 q 514 853 633 853 l 321 853 l 192 119 m 579 1046 l 425 1171 l 439 1256 l 600 1164 l 767 1250 l 754 1160 l 579 1046 z "},"Đ":{"ha":936,"x_min":26,"x_max":897,"o":"m 47 0 l 218 972 l 540 972 q 800 869 703 972 q 897 585 897 767 q 826 274 897 406 q 635 72 756 143 q 369 0 515 0 l 47 0 m 26 438 l 46 551 l 457 551 l 436 438 l 26 438 m 196 121 l 390 121 q 660 253 567 121 q 754 575 754 385 q 697 776 754 700 q 519 853 639 853 l 325 853 l 196 121 z "},"Ḍ":{"ha":933,"x_min":39,"x_max":894,"o":"m 39 0 l 210 972 l 535 972 q 797 870 699 972 q 894 571 894 768 q 823 273 894 401 q 631 72 751 144 q 364 0 511 0 l 39 0 m 192 119 l 385 119 q 653 253 558 119 q 749 564 749 386 q 691 776 749 700 q 514 853 633 853 l 321 853 l 192 119 z "},"Ḏ":{"ha":933,"x_min":39,"x_max":894,"o":"m 39 0 l 210 972 l 535 972 q 797 870 699 972 q 894 571 894 768 q 823 273 894 401 q 631 72 751 144 q 364 0 511 0 l 39 0 m 192 119 l 385 119 q 653 253 558 119 q 749 564 749 386 q 691 776 749 700 q 514 853 633 853 l 321 853 l 192 119 z "},"ǅ":{"ha":1519,"x_min":39,"x_max":1535,"o":"m 39 0 l 210 972 l 535 972 q 797 870 699 972 q 894 571 894 768 q 823 273 894 401 q 631 72 751 144 q 364 0 511 0 l 39 0 m 192 119 l 385 119 q 653 253 558 119 q 749 564 749 386 q 691 776 749 700 q 514 853 633 853 l 321 853 l 192 119 z "},"E":{"ha":714,"x_min":39,"x_max":753,"o":"m 39 0 l 210 972 l 753 972 l 732 853 l 322 853 l 272 568 l 594 568 l 574 449 l 251 449 l 193 119 l 614 119 l 593 0 l 39 0 z "},"É":{"ha":714,"x_min":39,"x_max":753,"o":"m 39 0 l 210 972 l 753 972 l 732 853 l 322 853 l 272 568 l 594 568 l 574 449 l 251 449 l 193 119 l 614 119 l 593 0 l 39 0 m 386 1090 l 403 1185 l 657 1329 l 633 1175 l 386 1090 z "},"Ĕ":{"ha":714,"x_min":39,"x_max":753,"o":"m 39 0 l 210 972 l 753 972 l 732 853 l 322 853 l 272 568 l 594 568 l 574 449 l 251 449 l 193 119 l 614 119 l 593 0 l 39 0 m 497 1061 q 362 1101 404 1061 q 319 1197 319 1142 q 322 1228 319 1208 l 433 1228 q 432 1211 432 1222 q 510 1147 432 1147 q 578 1167 547 1147 q 617 1228 610 1188 l 728 1228 q 658 1108 715 1156 q 497 1061 600 1061 z "},"Ě":{"ha":714,"x_min":39,"x_max":753,"o":"m 39 0 l 210 972 l 753 972 l 732 853 l 322 853 l 272 568 l 594 568 l 574 449 l 251 449 l 193 119 l 614 119 l 593 0 l 39 0 m 488 1046 l 333 1171 l 347 1256 l 508 1164 l 675 1250 l 663 1160 l 488 1046 z "},"Ḝ":{"ha":714,"x_min":39,"x_max":753,"o":"m 39 0 l 210 972 l 753 972 l 732 853 l 322 853 l 272 568 l 594 568 l 574 449 l 251 449 l 193 119 l 614 119 l 593 0 l 39 0 m 315 -110 l 274 -89 q 343 -75 313 -75 q 447 -167 447 -75 q 397 -272 447 -231 q 275 -314 347 -314 q 214 -306 239 -314 q 171 -287 189 -297 l 204 -219 q 243 -237 222 -231 q 288 -243 264 -243 q 365 -182 365 -243 q 304 -135 365 -135 q 238 -146 271 -135 l 300 0 l 369 0 l 315 -110 m 497 1061 q 362 1101 404 1061 q 319 1197 319 1142 q 322 1228 319 1208 l 433 1228 q 432 1211 432 1222 q 510 1147 432 1147 q 578 1167 547 1147 q 617 1228 610 1188 l 728 1228 q 658 1108 715 1156 q 497 1061 600 1061 z "},"Ê":{"ha":714,"x_min":39,"x_max":753,"o":"m 39 0 l 210 972 l 753 972 l 732 853 l 322 853 l 272 568 l 594 568 l 574 449 l 251 449 l 193 119 l 614 119 l 593 0 l 39 0 m 347 1089 l 368 1178 l 546 1313 l 692 1160 l 675 1075 l 521 1186 l 347 1089 z "},"Ế":{"ha":714,"x_min":39,"x_max":864,"o":"m 39 0 l 210 972 l 753 972 l 732 853 l 322 853 l 272 568 l 594 568 l 574 449 l 251 449 l 193 119 l 614 119 l 593 0 l 39 0 m 669 1046 l 508 1138 l 349 1063 l 363 1147 l 529 1256 l 683 1131 l 669 1046 m 617 1249 l 731 1404 l 864 1404 l 706 1249 l 617 1249 z "},"Ệ":{"ha":714,"x_min":39,"x_max":753,"o":"m 39 0 l 210 972 l 753 972 l 732 853 l 322 853 l 272 568 l 594 568 l 574 449 l 251 449 l 193 119 l 614 119 l 593 0 l 39 0 m 669 1046 l 508 1138 l 349 1063 l 363 1147 l 529 1256 l 683 1131 l 669 1046 z "},"Ề":{"ha":714,"x_min":39,"x_max":753,"o":"m 39 0 l 210 972 l 753 972 l 732 853 l 322 853 l 272 568 l 594 568 l 574 449 l 251 449 l 193 119 l 614 119 l 593 0 l 39 0 m 669 1046 l 508 1138 l 349 1063 l 363 1147 l 529 1256 l 683 1131 l 669 1046 m 608 1249 l 515 1411 l 647 1411 l 697 1249 l 608 1249 z "},"Ể":{"ha":714,"x_min":39,"x_max":778,"o":"m 39 0 l 210 972 l 753 972 l 732 853 l 322 853 l 272 568 l 594 568 l 574 449 l 251 449 l 193 119 l 614 119 l 593 0 l 39 0 m 669 1046 l 508 1138 l 349 1063 l 363 1147 l 529 1256 l 683 1131 l 669 1046 m 642 1211 l 639 1267 q 696 1326 696 1286 q 646 1365 696 1365 q 605 1358 626 1365 q 561 1340 583 1350 l 550 1411 q 663 1436 603 1436 q 745 1412 713 1436 q 778 1343 778 1388 q 740 1256 778 1289 q 642 1211 701 1224 z "},"Ễ":{"ha":714,"x_min":39,"x_max":778,"o":"m 39 0 l 210 972 l 753 972 l 732 853 l 322 853 l 272 568 l 594 568 l 574 449 l 251 449 l 193 119 l 614 119 l 593 0 l 39 0 m 669 1046 l 508 1138 l 349 1063 l 363 1147 l 529 1256 l 683 1131 l 669 1046 m 647 1299 q 551 1326 603 1299 q 465 1353 500 1353 q 418 1306 422 1353 l 328 1306 q 456 1444 351 1444 q 552 1417 503 1444 q 640 1390 601 1390 q 688 1438 681 1390 l 778 1438 q 647 1299 757 1299 z "},"Ȅ":{"ha":714,"x_min":39,"x_max":753,"o":"m 39 0 l 210 972 l 753 972 l 732 853 l 322 853 l 272 568 l 594 568 l 574 449 l 251 449 l 193 119 l 614 119 l 593 0 l 39 0 m 361 1094 l 265 1299 l 399 1299 l 450 1094 l 361 1094 m 553 1094 l 464 1299 l 597 1299 l 642 1094 l 553 1094 z "},"Ë":{"ha":714,"x_min":39,"x_max":753,"o":"m 39 0 l 210 972 l 753 972 l 732 853 l 322 853 l 272 568 l 594 568 l 574 449 l 251 449 l 193 119 l 614 119 l 593 0 l 39 0 z "},"Ė":{"ha":714,"x_min":39,"x_max":753,"o":"m 39 0 l 210 972 l 753 972 l 732 853 l 322 853 l 272 568 l 594 568 l 574 449 l 251 449 l 193 119 l 614 119 l 593 0 l 39 0 m 436 1099 l 458 1224 l 589 1224 l 567 1099 l 436 1099 z "},"Ẹ":{"ha":714,"x_min":39,"x_max":753,"o":"m 39 0 l 210 972 l 753 972 l 732 853 l 322 853 l 272 568 l 594 568 l 574 449 l 251 449 l 193 119 l 614 119 l 593 0 l 39 0 z "},"È":{"ha":714,"x_min":39,"x_max":753,"o":"m 39 0 l 210 972 l 753 972 l 732 853 l 322 853 l 272 568 l 594 568 l 574 449 l 251 449 l 193 119 l 614 119 l 593 0 l 39 0 m 622 1092 l 393 1188 l 417 1324 l 638 1176 l 622 1092 z "},"Ẻ":{"ha":714,"x_min":39,"x_max":753,"o":"m 39 0 l 210 972 l 753 972 l 732 853 l 322 853 l 272 568 l 594 568 l 574 449 l 251 449 l 193 119 l 614 119 l 593 0 l 39 0 m 471 1067 q 528 1118 506 1094 q 551 1172 551 1142 q 503 1210 551 1210 q 458 1202 481 1210 q 411 1183 435 1194 l 400 1254 q 517 1281 456 1281 q 601 1256 568 1281 q 635 1188 633 1232 q 599 1094 635 1133 q 510 1021 563 1056 l 471 1067 z "},"Ȇ":{"ha":714,"x_min":39,"x_max":753,"o":"m 39 0 l 210 972 l 753 972 l 732 853 l 322 853 l 272 568 l 594 568 l 574 449 l 251 449 l 193 119 l 614 119 l 593 0 l 39 0 m 299 1082 q 368 1198 310 1147 q 529 1249 426 1249 q 660 1208 619 1249 q 701 1111 701 1167 q 699 1082 701 1101 l 588 1082 q 589 1099 589 1089 q 514 1163 589 1163 q 447 1142 478 1163 q 410 1082 417 1122 l 299 1082 z "},"Ē":{"ha":714,"x_min":39,"x_max":753,"o":"m 39 0 l 210 972 l 753 972 l 732 853 l 322 853 l 272 568 l 594 568 l 574 449 l 251 449 l 193 119 l 614 119 l 593 0 l 39 0 m 282 1101 l 299 1196 l 738 1196 l 721 1101 l 282 1101 z "},"Ḗ":{"ha":714,"x_min":39,"x_max":753,"o":"m 39 0 l 210 972 l 753 972 l 732 853 l 322 853 l 272 568 l 594 568 l 574 449 l 251 449 l 193 119 l 614 119 l 593 0 l 39 0 m 282 1101 l 299 1196 l 738 1196 l 721 1101 l 282 1101 m 440 1272 l 451 1361 l 689 1493 l 669 1353 l 440 1272 z "},"Ḕ":{"ha":714,"x_min":39,"x_max":753,"o":"m 39 0 l 210 972 l 753 972 l 732 853 l 322 853 l 272 568 l 594 568 l 574 449 l 251 449 l 193 119 l 614 119 l 593 0 l 39 0 m 282 1101 l 299 1196 l 738 1196 l 721 1101 l 282 1101 m 668 1272 l 438 1353 l 461 1485 l 683 1353 l 668 1272 z "},"Ę":{"ha":714,"x_min":39,"x_max":753,"o":"m 39 0 l 210 972 l 753 972 l 732 853 l 322 853 l 272 568 l 594 568 l 574 449 l 251 449 l 193 119 l 614 119 l 593 0 l 39 0 m 519 0 l 593 0 q 500 -76 542 -36 q 458 -165 458 -115 q 510 -218 458 -218 q 593 -194 550 -218 l 601 -262 q 553 -281 582 -272 q 490 -289 525 -289 q 407 -265 440 -289 q 372 -193 374 -240 q 418 -82 372 -135 q 519 0 464 -29 z "},"Ẽ":{"ha":714,"x_min":39,"x_max":754,"o":"m 39 0 l 210 972 l 753 972 l 732 853 l 322 853 l 272 568 l 594 568 l 574 449 l 251 449 l 193 119 l 614 119 l 593 0 l 39 0 m 613 1097 q 522 1128 568 1097 q 438 1158 475 1158 q 385 1108 396 1158 l 285 1108 q 431 1263 321 1263 q 518 1232 478 1263 q 601 1201 558 1201 q 654 1256 644 1201 l 754 1256 q 613 1097 718 1097 z "},"F":{"ha":676,"x_min":39,"x_max":746,"o":"m 39 0 l 210 972 l 746 972 l 725 853 l 321 853 l 271 568 l 582 568 l 561 449 l 250 449 l 171 0 l 39 0 z "},"G":{"ha":863,"x_min":65,"x_max":854,"o":"m 429 -19 q 165 90 265 -19 q 65 396 65 200 q 138 701 65 567 q 332 914 211 836 q 600 992 453 992 q 739 976 668 992 q 854 936 810 960 l 821 821 q 708 857 771 842 q 586 872 646 872 q 378 803 461 872 q 252 626 294 733 q 210 403 210 518 q 272 183 210 267 q 465 100 333 100 q 533 106 493 100 q 608 126 572 111 l 651 368 l 526 368 l 547 488 l 804 488 l 728 54 q 592 2 674 24 q 429 -19 511 -19 z "},"Ğ":{"ha":863,"x_min":65,"x_max":854,"o":"m 429 -19 q 165 90 265 -19 q 65 396 65 200 q 138 701 65 567 q 332 914 211 836 q 600 992 453 992 q 739 976 668 992 q 854 936 810 960 l 821 821 q 708 857 771 842 q 586 872 646 872 q 378 803 461 872 q 252 626 294 733 q 210 403 210 518 q 272 183 210 267 q 465 100 333 100 q 533 106 493 100 q 608 126 572 111 l 651 368 l 526 368 l 547 488 l 804 488 l 728 54 q 592 2 674 24 q 429 -19 511 -19 m 611 1061 q 476 1101 518 1061 q 433 1197 433 1142 q 436 1228 433 1208 l 547 1228 q 546 1211 546 1222 q 624 1147 546 1147 q 692 1167 661 1147 q 731 1228 724 1188 l 842 1228 q 772 1108 829 1156 q 611 1061 714 1061 z "},"Ǧ":{"ha":863,"x_min":65,"x_max":854,"o":"m 429 -19 q 165 90 265 -19 q 65 396 65 200 q 138 701 65 567 q 332 914 211 836 q 600 992 453 992 q 739 976 668 992 q 854 936 810 960 l 821 821 q 708 857 771 842 q 586 872 646 872 q 378 803 461 872 q 252 626 294 733 q 210 403 210 518 q 272 183 210 267 q 465 100 333 100 q 533 106 493 100 q 608 126 572 111 l 651 368 l 526 368 l 547 488 l 804 488 l 728 54 q 592 2 674 24 q 429 -19 511 -19 m 601 1046 l 447 1171 l 461 1256 l 622 1164 l 789 1250 l 776 1160 l 601 1046 z "},"Ĝ":{"ha":863,"x_min":65,"x_max":854,"o":"m 429 -19 q 165 90 265 -19 q 65 396 65 200 q 138 701 65 567 q 332 914 211 836 q 600 992 453 992 q 739 976 668 992 q 854 936 810 960 l 821 821 q 708 857 771 842 q 586 872 646 872 q 378 803 461 872 q 252 626 294 733 q 210 403 210 518 q 272 183 210 267 q 465 100 333 100 q 533 106 493 100 q 608 126 572 111 l 651 368 l 526 368 l 547 488 l 804 488 l 728 54 q 592 2 674 24 q 429 -19 511 -19 m 783 1046 l 622 1138 l 463 1063 l 476 1147 l 643 1256 l 797 1131 l 783 1046 z "},"Ģ":{"ha":863,"x_min":65,"x_max":854,"o":"m 429 -19 q 165 90 265 -19 q 65 396 65 200 q 138 701 65 567 q 332 914 211 836 q 600 992 453 992 q 739 976 668 992 q 854 936 810 960 l 821 821 q 708 857 771 842 q 586 872 646 872 q 378 803 461 872 q 252 626 294 733 q 210 403 210 518 q 272 183 210 267 q 465 100 333 100 q 533 106 493 100 q 608 126 572 111 l 651 368 l 526 368 l 547 488 l 804 488 l 728 54 q 592 2 674 24 q 429 -19 511 -19 m 369 -364 l 318 -364 l 379 -246 l 329 -246 l 350 -126 l 483 -126 l 463 -246 l 369 -364 z "},"Ġ":{"ha":863,"x_min":65,"x_max":854,"o":"m 429 -19 q 165 90 265 -19 q 65 396 65 200 q 138 701 65 567 q 332 914 211 836 q 600 992 453 992 q 739 976 668 992 q 854 936 810 960 l 821 821 q 708 857 771 842 q 586 872 646 872 q 378 803 461 872 q 252 626 294 733 q 210 403 210 518 q 272 183 210 267 q 465 100 333 100 q 533 106 493 100 q 608 126 572 111 l 651 368 l 526 368 l 547 488 l 804 488 l 728 54 q 592 2 674 24 q 429 -19 511 -19 m 550 1099 l 572 1224 l 703 1224 l 681 1099 l 550 1099 z "},"Ḡ":{"ha":863,"x_min":65,"x_max":854,"o":"m 429 -19 q 165 90 265 -19 q 65 396 65 200 q 138 701 65 567 q 332 914 211 836 q 600 992 453 992 q 739 976 668 992 q 854 936 810 960 l 821 821 q 708 857 771 842 q 586 872 646 872 q 378 803 461 872 q 252 626 294 733 q 210 403 210 518 q 272 183 210 267 q 465 100 333 100 q 533 106 493 100 q 608 126 572 111 l 651 368 l 526 368 l 547 488 l 804 488 l 728 54 q 592 2 674 24 q 429 -19 511 -19 m 396 1101 l 413 1196 l 851 1196 l 835 1101 l 396 1101 z "},"H":{"ha":956,"x_min":39,"x_max":943,"o":"m 39 0 l 210 972 l 342 972 l 271 571 l 740 571 l 811 972 l 943 972 l 771 0 l 639 0 l 718 446 l 250 446 l 171 0 l 39 0 z "},"Ħ":{"ha":956,"x_min":39,"x_max":993,"o":"m 78 696 l 92 782 l 993 782 l 978 696 l 78 696 m 39 0 l 210 972 l 342 972 l 271 571 l 740 571 l 811 972 l 943 972 l 771 0 l 639 0 l 718 446 l 250 446 l 171 0 l 39 0 z "},"Ḫ":{"ha":956,"x_min":39,"x_max":943,"o":"m 39 0 l 210 972 l 342 972 l 271 571 l 740 571 l 811 972 l 943 972 l 771 0 l 639 0 l 718 446 l 250 446 l 171 0 l 39 0 z "},"Ĥ":{"ha":956,"x_min":39,"x_max":943,"o":"m 39 0 l 210 972 l 342 972 l 271 571 l 740 571 l 811 972 l 943 972 l 771 0 l 639 0 l 718 446 l 250 446 l 171 0 l 39 0 m 767 1046 l 606 1138 l 446 1063 l 460 1147 l 626 1256 l 781 1131 l 767 1046 z "},"Ḥ":{"ha":956,"x_min":39,"x_max":943,"o":"m 39 0 l 210 972 l 342 972 l 271 571 l 740 571 l 811 972 l 943 972 l 771 0 l 639 0 l 718 446 l 250 446 l 171 0 l 39 0 z "},"I":{"ha":354,"x_min":39,"x_max":342,"o":"m 39 0 l 210 972 l 342 972 l 171 0 l 39 0 z "},"Ĳ":{"ha":928,"x_min":90,"x_max":926,"o":"m 389 -19 q 165 58 239 -19 q 90 275 92 136 l 229 307 q 269 159 231 218 q 410 100 308 100 q 567 154 508 100 q 658 294 626 208 q 707 476 690 381 l 794 972 l 926 972 l 828 413 q 683 97 792 213 q 389 -19 574 -19 m 101 404 l 201 972 l 333 972 l 246 476 q 240 440 243 458 q 235 404 236 422 l 101 404 z "},"Í":{"ha":354,"x_min":39,"x_max":453,"o":"m 39 0 l 210 972 l 342 972 l 171 0 l 39 0 m 182 1090 l 199 1185 l 453 1329 l 429 1175 l 182 1090 z "},"Ĭ":{"ha":354,"x_min":39,"x_max":524,"o":"m 39 0 l 210 972 l 342 972 l 171 0 l 39 0 m 293 1061 q 158 1101 200 1061 q 115 1197 115 1142 q 118 1228 115 1208 l 229 1228 q 228 1211 228 1222 q 306 1147 228 1147 q 374 1167 343 1147 q 413 1228 406 1188 l 524 1228 q 453 1108 511 1156 q 293 1061 396 1061 z "},"Î":{"ha":354,"x_min":39,"x_max":488,"o":"m 39 0 l 210 972 l 342 972 l 171 0 l 39 0 m 143 1089 l 164 1178 l 342 1313 l 488 1160 l 471 1075 l 317 1186 l 143 1089 z "},"Ȉ":{"ha":354,"x_min":39,"x_max":438,"o":"m 39 0 l 210 972 l 342 972 l 171 0 l 39 0 m 157 1094 l 61 1299 l 194 1299 l 246 1094 l 157 1094 m 349 1094 l 260 1299 l 393 1299 l 438 1094 l 349 1094 z "},"Ï":{"ha":354,"x_min":39,"x_max":511,"o":"m 39 0 l 210 972 l 342 972 l 171 0 l 39 0 z "},"Ḯ":{"ha":354,"x_min":39,"x_max":503,"o":"m 39 0 l 210 972 l 342 972 l 171 0 l 39 0 m 367 1103 l 386 1207 l 503 1207 l 483 1103 l 367 1103 m 111 1103 l 131 1207 l 247 1207 l 228 1103 l 111 1103 m 224 1283 l 235 1372 l 472 1504 l 453 1364 l 224 1283 z "},"İ":{"ha":354,"x_min":39,"x_max":385,"o":"m 39 0 l 210 972 l 342 972 l 171 0 l 39 0 m 232 1099 l 254 1224 l 385 1224 l 363 1099 l 232 1099 z "},"Ị":{"ha":354,"x_min":-3,"x_max":342,"o":"m 39 0 l 210 972 l 342 972 l 171 0 l 39 0 z "},"Ì":{"ha":354,"x_min":39,"x_max":433,"o":"m 39 0 l 210 972 l 342 972 l 171 0 l 39 0 m 418 1092 l 189 1188 l 213 1324 l 433 1176 l 418 1092 z "},"Ỉ":{"ha":354,"x_min":39,"x_max":431,"o":"m 39 0 l 210 972 l 342 972 l 171 0 l 39 0 m 267 1067 q 324 1118 301 1094 q 347 1172 347 1142 q 299 1210 347 1210 q 253 1202 276 1210 q 207 1183 231 1194 l 196 1254 q 313 1281 251 1281 q 397 1256 364 1281 q 431 1188 429 1232 q 394 1094 431 1133 q 306 1021 358 1056 l 267 1067 z "},"Ȋ":{"ha":354,"x_min":39,"x_max":497,"o":"m 39 0 l 210 972 l 342 972 l 171 0 l 39 0 m 94 1082 q 164 1198 106 1147 q 325 1249 222 1249 q 456 1208 415 1249 q 497 1111 497 1167 q 494 1082 497 1101 l 383 1082 q 385 1099 385 1089 q 310 1163 385 1163 q 243 1142 274 1163 q 206 1082 213 1122 l 94 1082 z "},"Ī":{"ha":354,"x_min":39,"x_max":533,"o":"m 39 0 l 210 972 l 342 972 l 171 0 l 39 0 m 78 1101 l 94 1196 l 533 1196 l 517 1101 l 78 1101 z "},"Į":{"ha":354,"x_min":-50,"x_max":342,"o":"m 39 0 l 210 972 l 342 972 l 171 0 l 39 0 m 97 0 l 171 0 q 78 -76 119 -36 q 36 -165 36 -115 q 88 -218 36 -218 q 171 -194 128 -218 l 179 -262 q 131 -281 160 -272 q 68 -289 103 -289 q -15 -265 18 -289 q -50 -193 -49 -240 q -4 -82 -50 -135 q 97 0 42 -29 z "},"Ĩ":{"ha":354,"x_min":39,"x_max":550,"o":"m 39 0 l 210 972 l 342 972 l 171 0 l 39 0 m 408 1097 q 317 1128 364 1097 q 233 1158 271 1158 q 181 1108 192 1158 l 81 1108 q 226 1263 117 1263 q 314 1232 274 1263 q 397 1201 354 1201 q 450 1256 440 1201 l 550 1256 q 408 1097 514 1097 z "},"J":{"ha":356,"x_min":-106,"x_max":343,"o":"m -106 -239 l -103 -161 l -90 -161 q -2 -124 -29 -161 q 39 -4 25 -86 l 211 972 l 343 972 l 164 -44 q 87 -189 147 -139 q -76 -239 26 -239 l -106 -239 z "},"Ĵ":{"ha":356,"x_min":-106,"x_max":482,"o":"m -106 -239 l -103 -161 l -90 -161 q -2 -124 -29 -161 q 39 -4 25 -86 l 211 972 l 343 972 l 164 -44 q 87 -189 147 -139 q -76 -239 26 -239 l -106 -239 m 468 1046 l 307 1138 l 147 1063 l 161 1147 l 328 1256 l 482 1131 l 468 1046 z "},"K":{"ha":760,"x_min":39,"x_max":831,"o":"m 532 0 l 274 515 l 672 972 l 831 972 l 415 515 l 683 0 l 532 0 m 39 0 l 210 972 l 342 972 l 171 0 l 39 0 z "},"Ķ":{"ha":760,"x_min":39,"x_max":831,"o":"m 532 0 l 274 515 l 672 972 l 831 972 l 415 515 l 683 0 l 532 0 m 39 0 l 210 972 l 342 972 l 171 0 l 39 0 m 289 -364 l 238 -364 l 299 -246 l 249 -246 l 269 -126 l 403 -126 l 382 -246 l 289 -364 z "},"L":{"ha":649,"x_min":39,"x_max":581,"o":"m 39 0 l 210 972 l 342 972 l 192 119 l 581 119 l 558 0 l 39 0 z "},"Ǉ":{"ha":1004,"x_min":39,"x_max":992,"o":"m 39 0 l 210 972 l 342 972 l 192 119 l 581 119 l 558 0 l 39 0 m 543 -239 l 546 -161 l 558 -161 q 647 -124 619 -161 q 688 -4 674 -86 l 860 972 l 992 972 l 813 -44 q 735 -189 796 -139 q 572 -239 675 -239 l 543 -239 z "},"Ĺ":{"ha":649,"x_min":39,"x_max":581,"o":"m 39 0 l 210 972 l 342 972 l 192 119 l 581 119 l 558 0 l 39 0 m 186 1061 l 197 1150 l 435 1282 l 415 1142 l 186 1061 z "},"Ľ":{"ha":649,"x_min":39,"x_max":776,"o":"m 39 0 l 210 972 l 342 972 l 192 119 l 581 119 l 558 0 l 39 0 m 606 740 l 647 972 l 776 972 l 696 740 l 606 740 z "},"Ļ":{"ha":649,"x_min":39,"x_max":581,"o":"m 39 0 l 210 972 l 342 972 l 192 119 l 581 119 l 558 0 l 39 0 m 263 -364 l 211 -364 l 272 -246 l 222 -246 l 243 -126 l 376 -126 l 356 -246 l 263 -364 z "},"Ŀ":{"ha":649,"x_min":39,"x_max":589,"o":"m 39 0 l 210 972 l 342 972 l 192 119 l 581 119 l 558 0 l 39 0 m 428 463 l 453 604 l 589 604 l 564 463 l 428 463 z "},"Ḷ":{"ha":649,"x_min":39,"x_max":581,"o":"m 39 0 l 210 972 l 342 972 l 192 119 l 581 119 l 558 0 l 39 0 z "},"ǈ":{"ha":946,"x_min":39,"x_max":961,"o":"m 39 0 l 210 972 l 342 972 l 192 119 l 581 119 l 558 0 l 39 0 m 531 -336 l 535 -240 q 609 -208 589 -233 q 644 -101 629 -183 l 782 681 l 908 681 l 763 -149 q 690 -283 744 -247 q 575 -329 635 -319 l 531 -336 m 810 833 l 835 972 l 961 972 l 936 833 l 810 833 z "},"Ḻ":{"ha":649,"x_min":39,"x_max":581,"o":"m 39 0 l 210 972 l 342 972 l 192 119 l 581 119 l 558 0 l 39 0 z "},"Ł":{"ha":649,"x_min":28,"x_max":581,"o":"m 28 483 l 46 585 l 554 776 l 536 675 l 28 483 m 39 0 l 210 972 l 342 972 l 192 119 l 581 119 l 558 0 l 39 0 z "},"M":{"ha":1044,"x_min":-4,"x_max":956,"o":"m -4 0 l 286 972 l 406 972 l 536 490 l 836 972 l 956 972 l 903 0 l 764 0 l 811 717 l 492 231 l 340 717 l 135 0 l -4 0 z "},"Ṃ":{"ha":1044,"x_min":-4,"x_max":956,"o":"m -4 0 l 286 972 l 406 972 l 536 490 l 836 972 l 956 972 l 903 0 l 764 0 l 811 717 l 492 231 l 340 717 l 135 0 l -4 0 z "},"N":{"ha":907,"x_min":39,"x_max":894,"o":"m 39 0 l 210 972 l 349 972 l 633 244 l 761 972 l 894 972 l 722 0 l 611 0 l 307 768 l 171 0 l 39 0 z "},"Ǌ":{"ha":1263,"x_min":39,"x_max":1250,"o":"m 39 0 l 210 972 l 349 972 l 633 244 l 761 972 l 894 972 l 722 0 l 611 0 l 307 768 l 171 0 l 39 0 m 801 -239 l 804 -161 l 817 -161 q 905 -124 878 -161 q 946 -4 932 -86 l 1118 972 l 1250 972 l 1071 -44 q 994 -189 1054 -139 q 831 -239 933 -239 l 801 -239 z "},"Ń":{"ha":907,"x_min":39,"x_max":894,"o":"m 39 0 l 210 972 l 349 972 l 633 244 l 761 972 l 894 972 l 722 0 l 611 0 l 307 768 l 171 0 l 39 0 m 465 1061 l 476 1150 l 714 1282 l 694 1142 l 465 1061 z "},"Ň":{"ha":907,"x_min":39,"x_max":894,"o":"m 39 0 l 210 972 l 349 972 l 633 244 l 761 972 l 894 972 l 722 0 l 611 0 l 307 768 l 171 0 l 39 0 m 564 1046 l 410 1171 l 424 1256 l 585 1164 l 751 1250 l 739 1160 l 564 1046 z "},"Ņ":{"ha":907,"x_min":39,"x_max":894,"o":"m 39 0 l 210 972 l 349 972 l 633 244 l 761 972 l 894 972 l 722 0 l 611 0 l 307 768 l 171 0 l 39 0 m 329 -364 l 278 -364 l 339 -246 l 289 -246 l 310 -126 l 443 -126 l 422 -246 l 329 -364 z "},"Ṅ":{"ha":907,"x_min":39,"x_max":894,"o":"m 39 0 l 210 972 l 349 972 l 633 244 l 761 972 l 894 972 l 722 0 l 611 0 l 307 768 l 171 0 l 39 0 m 513 1099 l 535 1224 l 665 1224 l 643 1099 l 513 1099 z "},"Ṇ":{"ha":907,"x_min":39,"x_max":894,"o":"m 39 0 l 210 972 l 349 972 l 633 244 l 761 972 l 894 972 l 722 0 l 611 0 l 307 768 l 171 0 l 39 0 z "},"Ŋ":{"ha":936,"x_min":47,"x_max":881,"o":"m 769 56 q 650 -181 742 -106 q 432 -257 558 -257 q 282 -226 351 -257 l 319 -110 q 447 -137 382 -137 q 571 -90 519 -137 q 638 56 622 -42 l 739 625 q 744 688 744 654 q 563 872 744 872 q 422 838 485 872 q 313 757 358 803 l 179 0 l 47 0 l 219 972 l 331 972 l 322 874 q 626 992 464 992 q 817 918 753 992 q 881 724 881 844 q 872 639 881 683 l 769 56 z "},"ǋ":{"ha":1190,"x_min":39,"x_max":1206,"o":"m 39 0 l 210 972 l 349 972 l 633 244 l 761 972 l 894 972 l 722 0 l 611 0 l 307 768 l 171 0 l 39 0 m 775 -336 l 779 -240 q 853 -208 833 -233 q 889 -101 874 -183 l 1026 681 l 1153 681 l 1007 -149 q 934 -283 989 -247 q 819 -329 879 -319 l 775 -336 m 1054 833 l 1079 972 l 1206 972 l 1181 833 l 1054 833 z "},"Ṉ":{"ha":907,"x_min":39,"x_max":894,"o":"m 39 0 l 210 972 l 349 972 l 633 244 l 761 972 l 894 972 l 722 0 l 611 0 l 307 768 l 171 0 l 39 0 z "},"Ñ":{"ha":907,"x_min":39,"x_max":894,"o":"m 39 0 l 210 972 l 349 972 l 633 244 l 761 972 l 894 972 l 722 0 l 611 0 l 307 768 l 171 0 l 39 0 m 685 1094 q 589 1122 640 1094 q 503 1149 538 1149 q 456 1101 460 1149 l 365 1101 q 493 1240 389 1240 q 590 1213 540 1240 q 678 1186 639 1186 q 725 1233 718 1186 l 815 1233 q 685 1094 794 1094 z "},"O":{"ha":986,"x_min":64,"x_max":949,"o":"m 421 -19 q 160 89 256 -19 q 64 392 64 197 q 136 699 64 564 q 328 913 208 835 q 592 992 449 992 q 852 883 756 992 q 949 581 949 775 q 876 273 949 408 q 683 59 803 138 q 421 -19 564 -19 m 443 100 q 634 168 553 100 q 760 344 715 236 q 804 572 804 451 q 749 786 804 700 q 569 872 693 872 q 378 804 458 872 q 253 628 297 736 q 210 400 210 521 q 265 186 210 272 q 443 100 319 100 z "},"Ó":{"ha":986,"x_min":64,"x_max":949,"o":"m 421 -19 q 160 89 256 -19 q 64 392 64 197 q 136 699 64 564 q 328 913 208 835 q 592 992 449 992 q 852 883 756 992 q 949 581 949 775 q 876 273 949 408 q 683 59 803 138 q 421 -19 564 -19 m 443 100 q 634 168 553 100 q 760 344 715 236 q 804 572 804 451 q 749 786 804 700 q 569 872 693 872 q 378 804 458 872 q 253 628 297 736 q 210 400 210 521 q 265 186 210 272 q 443 100 319 100 m 499 1090 l 515 1185 l 769 1329 l 746 1175 l 499 1090 z "},"Ŏ":{"ha":986,"x_min":64,"x_max":949,"o":"m 421 -19 q 160 89 256 -19 q 64 392 64 197 q 136 699 64 564 q 328 913 208 835 q 592 992 449 992 q 852 883 756 992 q 949 581 949 775 q 876 273 949 408 q 683 59 803 138 q 421 -19 564 -19 m 443 100 q 634 168 553 100 q 760 344 715 236 q 804 572 804 451 q 749 786 804 700 q 569 872 693 872 q 378 804 458 872 q 253 628 297 736 q 210 400 210 521 q 265 186 210 272 q 443 100 319 100 m 610 1061 q 474 1101 517 1061 q 432 1197 432 1142 q 435 1228 432 1208 l 546 1228 q 544 1211 544 1222 q 622 1147 544 1147 q 691 1167 660 1147 q 729 1228 722 1188 l 840 1228 q 770 1108 828 1156 q 610 1061 713 1061 z "},"Ô":{"ha":986,"x_min":64,"x_max":949,"o":"m 421 -19 q 160 89 256 -19 q 64 392 64 197 q 136 699 64 564 q 328 913 208 835 q 592 992 449 992 q 852 883 756 992 q 949 581 949 775 q 876 273 949 408 q 683 59 803 138 q 421 -19 564 -19 m 443 100 q 634 168 553 100 q 760 344 715 236 q 804 572 804 451 q 749 786 804 700 q 569 872 693 872 q 378 804 458 872 q 253 628 297 736 q 210 400 210 521 q 265 186 210 272 q 443 100 319 100 m 460 1089 l 481 1178 l 658 1313 l 804 1160 l 788 1075 l 633 1186 l 460 1089 z "},"Ố":{"ha":986,"x_min":64,"x_max":976,"o":"m 421 -19 q 160 89 256 -19 q 64 392 64 197 q 136 699 64 564 q 328 913 208 835 q 592 992 449 992 q 852 883 756 992 q 949 581 949 775 q 876 273 949 408 q 683 59 803 138 q 421 -19 564 -19 m 443 100 q 634 168 553 100 q 760 344 715 236 q 804 572 804 451 q 749 786 804 700 q 569 872 693 872 q 378 804 458 872 q 253 628 297 736 q 210 400 210 521 q 265 186 210 272 q 443 100 319 100 m 782 1046 l 621 1138 l 461 1063 l 475 1147 l 642 1256 l 796 1131 l 782 1046 m 729 1249 l 843 1404 l 976 1404 l 818 1249 l 729 1249 z "},"Ộ":{"ha":986,"x_min":64,"x_max":949,"o":"m 421 -19 q 160 89 256 -19 q 64 392 64 197 q 136 699 64 564 q 328 913 208 835 q 592 992 449 992 q 852 883 756 992 q 949 581 949 775 q 876 273 949 408 q 683 59 803 138 q 421 -19 564 -19 m 443 100 q 634 168 553 100 q 760 344 715 236 q 804 572 804 451 q 749 786 804 700 q 569 872 693 872 q 378 804 458 872 q 253 628 297 736 q 210 400 210 521 q 265 186 210 272 q 443 100 319 100 m 782 1046 l 621 1138 l 461 1063 l 475 1147 l 642 1256 l 796 1131 l 782 1046 z "},"Ồ":{"ha":986,"x_min":64,"x_max":949,"o":"m 421 -19 q 160 89 256 -19 q 64 392 64 197 q 136 699 64 564 q 328 913 208 835 q 592 992 449 992 q 852 883 756 992 q 949 581 949 775 q 876 273 949 408 q 683 59 803 138 q 421 -19 564 -19 m 443 100 q 634 168 553 100 q 760 344 715 236 q 804 572 804 451 q 749 786 804 700 q 569 872 693 872 q 378 804 458 872 q 253 628 297 736 q 210 400 210 521 q 265 186 210 272 q 443 100 319 100 m 782 1046 l 621 1138 l 461 1063 l 475 1147 l 642 1256 l 796 1131 l 782 1046 m 721 1249 l 628 1411 l 760 1411 l 810 1249 l 721 1249 z "},"Ổ":{"ha":986,"x_min":64,"x_max":949,"o":"m 421 -19 q 160 89 256 -19 q 64 392 64 197 q 136 699 64 564 q 328 913 208 835 q 592 992 449 992 q 852 883 756 992 q 949 581 949 775 q 876 273 949 408 q 683 59 803 138 q 421 -19 564 -19 m 443 100 q 634 168 553 100 q 760 344 715 236 q 804 572 804 451 q 749 786 804 700 q 569 872 693 872 q 378 804 458 872 q 253 628 297 736 q 210 400 210 521 q 265 186 210 272 q 443 100 319 100 m 782 1046 l 621 1138 l 461 1063 l 475 1147 l 642 1256 l 796 1131 l 782 1046 m 754 1211 l 751 1267 q 808 1326 808 1286 q 758 1365 808 1365 q 717 1358 739 1365 q 674 1340 696 1350 l 663 1411 q 775 1436 715 1436 q 858 1412 825 1436 q 890 1343 890 1388 q 852 1256 890 1289 q 754 1211 814 1224 z "},"Ỗ":{"ha":986,"x_min":64,"x_max":949,"o":"m 421 -19 q 160 89 256 -19 q 64 392 64 197 q 136 699 64 564 q 328 913 208 835 q 592 992 449 992 q 852 883 756 992 q 949 581 949 775 q 876 273 949 408 q 683 59 803 138 q 421 -19 564 -19 m 443 100 q 634 168 553 100 q 760 344 715 236 q 804 572 804 451 q 749 786 804 700 q 569 872 693 872 q 378 804 458 872 q 253 628 297 736 q 210 400 210 521 q 265 186 210 272 q 443 100 319 100 m 782 1046 l 621 1138 l 461 1063 l 475 1147 l 642 1256 l 796 1131 l 782 1046 m 760 1299 q 664 1326 715 1299 q 578 1353 613 1353 q 531 1306 535 1353 l 440 1306 q 568 1444 464 1444 q 665 1417 615 1444 q 753 1390 714 1390 q 800 1438 793 1390 l 890 1438 q 760 1299 869 1299 z "},"Ȍ":{"ha":986,"x_min":64,"x_max":949,"o":"m 421 -19 q 160 89 256 -19 q 64 392 64 197 q 136 699 64 564 q 328 913 208 835 q 592 992 449 992 q 852 883 756 992 q 949 581 949 775 q 876 273 949 408 q 683 59 803 138 q 421 -19 564 -19 m 443 100 q 634 168 553 100 q 760 344 715 236 q 804 572 804 451 q 749 786 804 700 q 569 872 693 872 q 378 804 458 872 q 253 628 297 736 q 210 400 210 521 q 265 186 210 272 q 443 100 319 100 m 474 1094 l 378 1299 l 511 1299 l 563 1094 l 474 1094 m 665 1094 l 576 1299 l 710 1299 l 754 1094 l 665 1094 z "},"Ö":{"ha":986,"x_min":64,"x_max":949,"o":"m 421 -19 q 160 89 256 -19 q 64 392 64 197 q 136 699 64 564 q 328 913 208 835 q 592 992 449 992 q 852 883 756 992 q 949 581 949 775 q 876 273 949 408 q 683 59 803 138 q 421 -19 564 -19 m 443 100 q 634 168 553 100 q 760 344 715 236 q 804 572 804 451 q 749 786 804 700 q 569 872 693 872 q 378 804 458 872 q 253 628 297 736 q 210 400 210 521 q 265 186 210 272 q 443 100 319 100 z "},"Ȫ":{"ha":986,"x_min":64,"x_max":949,"o":"m 421 -19 q 160 89 256 -19 q 64 392 64 197 q 136 699 64 564 q 328 913 208 835 q 592 992 449 992 q 852 883 756 992 q 949 581 949 775 q 876 273 949 408 q 683 59 803 138 q 421 -19 564 -19 m 443 100 q 634 168 553 100 q 760 344 715 236 q 804 572 804 451 q 749 786 804 700 q 569 872 693 872 q 378 804 458 872 q 253 628 297 736 q 210 400 210 521 q 265 186 210 272 q 443 100 319 100 m 683 1103 l 703 1207 l 819 1207 l 800 1103 l 683 1103 m 428 1103 l 447 1207 l 564 1207 l 544 1103 l 428 1103 m 433 1324 l 450 1418 l 889 1418 l 872 1324 l 433 1324 z "},"Ȱ":{"ha":986,"x_min":64,"x_max":949,"o":"m 421 -19 q 160 89 256 -19 q 64 392 64 197 q 136 699 64 564 q 328 913 208 835 q 592 992 449 992 q 852 883 756 992 q 949 581 949 775 q 876 273 949 408 q 683 59 803 138 q 421 -19 564 -19 m 443 100 q 634 168 553 100 q 760 344 715 236 q 804 572 804 451 q 749 786 804 700 q 569 872 693 872 q 378 804 458 872 q 253 628 297 736 q 210 400 210 521 q 265 186 210 272 q 443 100 319 100 m 549 1099 l 571 1224 l 701 1224 l 679 1099 l 549 1099 m 435 1332 l 451 1426 l 890 1426 l 874 1332 l 435 1332 z "},"Ọ":{"ha":986,"x_min":64,"x_max":949,"o":"m 421 -19 q 160 89 256 -19 q 64 392 64 197 q 136 699 64 564 q 328 913 208 835 q 592 992 449 992 q 852 883 756 992 q 949 581 949 775 q 876 273 949 408 q 683 59 803 138 q 421 -19 564 -19 m 443 100 q 634 168 553 100 q 760 344 715 236 q 804 572 804 451 q 749 786 804 700 q 569 872 693 872 q 378 804 458 872 q 253 628 297 736 q 210 400 210 521 q 265 186 210 272 q 443 100 319 100 z "},"Ò":{"ha":986,"x_min":64,"x_max":949,"o":"m 421 -19 q 160 89 256 -19 q 64 392 64 197 q 136 699 64 564 q 328 913 208 835 q 592 992 449 992 q 852 883 756 992 q 949 581 949 775 q 876 273 949 408 q 683 59 803 138 q 421 -19 564 -19 m 443 100 q 634 168 553 100 q 760 344 715 236 q 804 572 804 451 q 749 786 804 700 q 569 872 693 872 q 378 804 458 872 q 253 628 297 736 q 210 400 210 521 q 265 186 210 272 q 443 100 319 100 m 735 1092 l 506 1188 l 529 1324 l 750 1176 l 735 1092 z "},"Ỏ":{"ha":986,"x_min":64,"x_max":949,"o":"m 421 -19 q 160 89 256 -19 q 64 392 64 197 q 136 699 64 564 q 328 913 208 835 q 592 992 449 992 q 852 883 756 992 q 949 581 949 775 q 876 273 949 408 q 683 59 803 138 q 421 -19 564 -19 m 443 100 q 634 168 553 100 q 760 344 715 236 q 804 572 804 451 q 749 786 804 700 q 569 872 693 872 q 378 804 458 872 q 253 628 297 736 q 210 400 210 521 q 265 186 210 272 q 443 100 319 100 m 583 1067 q 641 1118 618 1094 q 664 1172 664 1142 q 615 1210 664 1210 q 570 1202 593 1210 q 524 1183 547 1194 l 513 1254 q 629 1281 568 1281 q 713 1256 681 1281 q 747 1188 746 1232 q 711 1094 747 1133 q 622 1021 675 1056 l 583 1067 z "},"Ơ":{"ha":986,"x_min":64,"x_max":949,"o":"m 421 -19 q 160 89 256 -19 q 64 392 64 197 q 136 699 64 564 q 328 913 208 835 q 592 992 449 992 q 852 883 756 992 q 949 581 949 775 q 876 273 949 408 q 683 59 803 138 q 421 -19 564 -19 m 443 100 q 634 168 553 100 q 760 344 715 236 q 804 572 804 451 q 749 786 804 700 q 569 872 693 872 q 378 804 458 872 q 253 628 297 736 q 210 400 210 521 q 265 186 210 272 q 443 100 319 100 m 681 881 l 697 972 q 826 1075 807 972 l 946 1075 q 858 933 928 986 q 681 881 788 881 z "},"Ớ":{"ha":986,"x_min":64,"x_max":949,"o":"m 421 -19 q 160 89 256 -19 q 64 392 64 197 q 136 699 64 564 q 328 913 208 835 q 592 992 449 992 q 852 883 756 992 q 949 581 949 775 q 876 273 949 408 q 683 59 803 138 q 421 -19 564 -19 m 443 100 q 634 168 553 100 q 760 344 715 236 q 804 572 804 451 q 749 786 804 700 q 569 872 693 872 q 378 804 458 872 q 253 628 297 736 q 210 400 210 521 q 265 186 210 272 q 443 100 319 100 m 681 881 l 697 972 q 826 1075 807 972 l 946 1075 q 858 933 928 986 q 681 881 788 881 m 499 1090 l 515 1185 l 769 1329 l 746 1175 l 499 1090 z "},"Ợ":{"ha":986,"x_min":64,"x_max":949,"o":"m 421 -19 q 160 89 256 -19 q 64 392 64 197 q 136 699 64 564 q 328 913 208 835 q 592 992 449 992 q 852 883 756 992 q 949 581 949 775 q 876 273 949 408 q 683 59 803 138 q 421 -19 564 -19 m 443 100 q 634 168 553 100 q 760 344 715 236 q 804 572 804 451 q 749 786 804 700 q 569 872 693 872 q 378 804 458 872 q 253 628 297 736 q 210 400 210 521 q 265 186 210 272 q 443 100 319 100 m 681 881 l 697 972 q 826 1075 807 972 l 946 1075 q 858 933 928 986 q 681 881 788 881 z "},"Ờ":{"ha":986,"x_min":64,"x_max":949,"o":"m 421 -19 q 160 89 256 -19 q 64 392 64 197 q 136 699 64 564 q 328 913 208 835 q 592 992 449 992 q 852 883 756 992 q 949 581 949 775 q 876 273 949 408 q 683 59 803 138 q 421 -19 564 -19 m 443 100 q 634 168 553 100 q 760 344 715 236 q 804 572 804 451 q 749 786 804 700 q 569 872 693 872 q 378 804 458 872 q 253 628 297 736 q 210 400 210 521 q 265 186 210 272 q 443 100 319 100 m 681 881 l 697 972 q 826 1075 807 972 l 946 1075 q 858 933 928 986 q 681 881 788 881 m 735 1092 l 506 1188 l 529 1324 l 750 1176 l 735 1092 z "},"Ở":{"ha":986,"x_min":64,"x_max":949,"o":"m 421 -19 q 160 89 256 -19 q 64 392 64 197 q 136 699 64 564 q 328 913 208 835 q 592 992 449 992 q 852 883 756 992 q 949 581 949 775 q 876 273 949 408 q 683 59 803 138 q 421 -19 564 -19 m 443 100 q 634 168 553 100 q 760 344 715 236 q 804 572 804 451 q 749 786 804 700 q 569 872 693 872 q 378 804 458 872 q 253 628 297 736 q 210 400 210 521 q 265 186 210 272 q 443 100 319 100 m 681 881 l 697 972 q 826 1075 807 972 l 946 1075 q 858 933 928 986 q 681 881 788 881 m 583 1067 q 641 1118 618 1094 q 664 1172 664 1142 q 615 1210 664 1210 q 570 1202 593 1210 q 524 1183 547 1194 l 513 1254 q 629 1281 568 1281 q 713 1256 681 1281 q 747 1188 746 1232 q 711 1094 747 1133 q 622 1021 675 1056 l 583 1067 z "},"Ỡ":{"ha":986,"x_min":64,"x_max":949,"o":"m 421 -19 q 160 89 256 -19 q 64 392 64 197 q 136 699 64 564 q 328 913 208 835 q 592 992 449 992 q 852 883 756 992 q 949 581 949 775 q 876 273 949 408 q 683 59 803 138 q 421 -19 564 -19 m 443 100 q 634 168 553 100 q 760 344 715 236 q 804 572 804 451 q 749 786 804 700 q 569 872 693 872 q 378 804 458 872 q 253 628 297 736 q 210 400 210 521 q 265 186 210 272 q 443 100 319 100 m 681 881 l 697 972 q 826 1075 807 972 l 946 1075 q 858 933 928 986 q 681 881 788 881 m 725 1097 q 634 1128 681 1097 q 550 1158 588 1158 q 497 1108 508 1158 l 397 1108 q 543 1263 433 1263 q 631 1232 590 1263 q 714 1201 671 1201 q 767 1256 757 1201 l 867 1256 q 725 1097 831 1097 z "},"Ő":{"ha":986,"x_min":64,"x_max":949,"o":"m 421 -19 q 160 89 256 -19 q 64 392 64 197 q 136 699 64 564 q 328 913 208 835 q 592 992 449 992 q 852 883 756 992 q 949 581 949 775 q 876 273 949 408 q 683 59 803 138 q 421 -19 564 -19 m 443 100 q 634 168 553 100 q 760 344 715 236 q 804 572 804 451 q 749 786 804 700 q 569 872 693 872 q 378 804 458 872 q 253 628 297 736 q 210 400 210 521 q 265 186 210 272 q 443 100 319 100 m 663 1094 l 783 1299 l 917 1299 l 751 1094 l 663 1094 m 471 1094 l 585 1299 l 718 1299 l 560 1094 l 471 1094 z "},"Ȏ":{"ha":986,"x_min":64,"x_max":949,"o":"m 421 -19 q 160 89 256 -19 q 64 392 64 197 q 136 699 64 564 q 328 913 208 835 q 592 992 449 992 q 852 883 756 992 q 949 581 949 775 q 876 273 949 408 q 683 59 803 138 q 421 -19 564 -19 m 443 100 q 634 168 553 100 q 760 344 715 236 q 804 572 804 451 q 749 786 804 700 q 569 872 693 872 q 378 804 458 872 q 253 628 297 736 q 210 400 210 521 q 265 186 210 272 q 443 100 319 100 m 411 1082 q 481 1198 422 1147 q 642 1249 539 1249 q 773 1208 732 1249 q 814 1111 814 1167 q 811 1082 814 1101 l 700 1082 q 701 1099 701 1089 q 626 1163 701 1163 q 560 1142 590 1163 q 522 1082 529 1122 l 411 1082 z "},"Ō":{"ha":986,"x_min":64,"x_max":949,"o":"m 421 -19 q 160 89 256 -19 q 64 392 64 197 q 136 699 64 564 q 328 913 208 835 q 592 992 449 992 q 852 883 756 992 q 949 581 949 775 q 876 273 949 408 q 683 59 803 138 q 421 -19 564 -19 m 443 100 q 634 168 553 100 q 760 344 715 236 q 804 572 804 451 q 749 786 804 700 q 569 872 693 872 q 378 804 458 872 q 253 628 297 736 q 210 400 210 521 q 265 186 210 272 q 443 100 319 100 m 394 1101 l 411 1196 l 850 1196 l 833 1101 l 394 1101 z "},"Ṓ":{"ha":986,"x_min":64,"x_max":949,"o":"m 421 -19 q 160 89 256 -19 q 64 392 64 197 q 136 699 64 564 q 328 913 208 835 q 592 992 449 992 q 852 883 756 992 q 949 581 949 775 q 876 273 949 408 q 683 59 803 138 q 421 -19 564 -19 m 443 100 q 634 168 553 100 q 760 344 715 236 q 804 572 804 451 q 749 786 804 700 q 569 872 693 872 q 378 804 458 872 q 253 628 297 736 q 210 400 210 521 q 265 186 210 272 q 443 100 319 100 m 394 1101 l 411 1196 l 850 1196 l 833 1101 l 394 1101 m 553 1272 l 564 1361 l 801 1493 l 782 1353 l 553 1272 z "},"Ṑ":{"ha":986,"x_min":64,"x_max":949,"o":"m 421 -19 q 160 89 256 -19 q 64 392 64 197 q 136 699 64 564 q 328 913 208 835 q 592 992 449 992 q 852 883 756 992 q 949 581 949 775 q 876 273 949 408 q 683 59 803 138 q 421 -19 564 -19 m 443 100 q 634 168 553 100 q 760 344 715 236 q 804 572 804 451 q 749 786 804 700 q 569 872 693 872 q 378 804 458 872 q 253 628 297 736 q 210 400 210 521 q 265 186 210 272 q 443 100 319 100 m 394 1101 l 411 1196 l 850 1196 l 833 1101 l 394 1101 m 781 1272 l 550 1353 l 574 1485 l 796 1353 l 781 1272 z "},"Ǫ":{"ha":986,"x_min":64,"x_max":949,"o":"m 421 -19 q 160 89 256 -19 q 64 392 64 197 q 136 699 64 564 q 328 913 208 835 q 592 992 449 992 q 852 883 756 992 q 949 581 949 775 q 876 273 949 408 q 683 59 803 138 q 421 -19 564 -19 m 443 100 q 634 168 553 100 q 760 344 715 236 q 804 572 804 451 q 749 786 804 700 q 569 872 693 872 q 378 804 458 872 q 253 628 297 736 q 210 400 210 521 q 265 186 210 272 q 443 100 319 100 m 436 0 l 510 0 q 417 -76 458 -36 q 375 -165 375 -115 q 426 -218 375 -218 q 510 -194 467 -218 l 518 -262 q 470 -281 499 -272 q 407 -289 442 -289 q 324 -265 357 -289 q 289 -193 290 -240 q 335 -82 289 -135 q 436 0 381 -29 z "},"Ø":{"ha":986,"x_min":24,"x_max":997,"o":"m 869 1033 l 997 1033 l 150 -61 l 24 -61 l 869 1033 m 421 -19 q 160 89 256 -19 q 64 392 64 197 q 136 699 64 564 q 328 913 208 835 q 592 992 449 992 q 852 883 756 992 q 949 581 949 775 q 876 273 949 408 q 683 59 803 138 q 421 -19 564 -19 m 443 100 q 634 168 553 100 q 760 344 715 236 q 804 572 804 451 q 749 786 804 700 q 569 872 693 872 q 378 804 458 872 q 253 628 297 736 q 210 400 210 521 q 265 186 210 272 q 443 100 319 100 z "},"Ǿ":{"ha":986,"x_min":24,"x_max":997,"o":"m 869 1033 l 997 1033 l 150 -61 l 24 -61 l 869 1033 m 421 -19 q 160 89 256 -19 q 64 392 64 197 q 136 699 64 564 q 328 913 208 835 q 592 992 449 992 q 852 883 756 992 q 949 581 949 775 q 876 273 949 408 q 683 59 803 138 q 421 -19 564 -19 m 443 100 q 634 168 553 100 q 760 344 715 236 q 804 572 804 451 q 749 786 804 700 q 569 872 693 872 q 378 804 458 872 q 253 628 297 736 q 210 400 210 521 q 265 186 210 272 q 443 100 319 100 m 501 1061 l 513 1150 l 750 1282 l 731 1142 l 501 1061 z "},"Õ":{"ha":986,"x_min":64,"x_max":949,"o":"m 421 -19 q 160 89 256 -19 q 64 392 64 197 q 136 699 64 564 q 328 913 208 835 q 592 992 449 992 q 852 883 756 992 q 949 581 949 775 q 876 273 949 408 q 683 59 803 138 q 421 -19 564 -19 m 443 100 q 634 168 553 100 q 760 344 715 236 q 804 572 804 451 q 749 786 804 700 q 569 872 693 872 q 378 804 458 872 q 253 628 297 736 q 210 400 210 521 q 265 186 210 272 q 443 100 319 100 m 725 1097 q 634 1128 681 1097 q 550 1158 588 1158 q 497 1108 508 1158 l 397 1108 q 543 1263 433 1263 q 631 1232 590 1263 q 714 1201 671 1201 q 767 1256 757 1201 l 867 1256 q 725 1097 831 1097 z "},"Ṍ":{"ha":986,"x_min":64,"x_max":949,"o":"m 421 -19 q 160 89 256 -19 q 64 392 64 197 q 136 699 64 564 q 328 913 208 835 q 592 992 449 992 q 852 883 756 992 q 949 581 949 775 q 876 273 949 408 q 683 59 803 138 q 421 -19 564 -19 m 443 100 q 634 168 553 100 q 760 344 715 236 q 804 572 804 451 q 749 786 804 700 q 569 872 693 872 q 378 804 458 872 q 253 628 297 736 q 210 400 210 521 q 265 186 210 272 q 443 100 319 100 m 721 1094 q 625 1122 676 1094 q 539 1149 574 1149 q 492 1101 496 1149 l 401 1101 q 529 1240 425 1240 q 626 1213 576 1240 q 714 1186 675 1186 q 761 1233 754 1186 l 851 1233 q 721 1094 831 1094 m 544 1306 l 556 1394 l 793 1526 l 774 1386 l 544 1306 z "},"Ṏ":{"ha":986,"x_min":64,"x_max":949,"o":"m 421 -19 q 160 89 256 -19 q 64 392 64 197 q 136 699 64 564 q 328 913 208 835 q 592 992 449 992 q 852 883 756 992 q 949 581 949 775 q 876 273 949 408 q 683 59 803 138 q 421 -19 564 -19 m 443 100 q 634 168 553 100 q 760 344 715 236 q 804 572 804 451 q 749 786 804 700 q 569 872 693 872 q 378 804 458 872 q 253 628 297 736 q 210 400 210 521 q 265 186 210 272 q 443 100 319 100 m 721 1094 q 625 1122 676 1094 q 539 1149 574 1149 q 492 1101 496 1149 l 401 1101 q 529 1240 425 1240 q 626 1213 576 1240 q 714 1186 675 1186 q 761 1233 754 1186 l 851 1233 q 721 1094 831 1094 m 726 1347 l 746 1451 l 863 1451 l 843 1347 l 726 1347 m 471 1347 l 490 1451 l 607 1451 l 588 1347 l 471 1347 z "},"Ȭ":{"ha":986,"x_min":64,"x_max":949,"o":"m 421 -19 q 160 89 256 -19 q 64 392 64 197 q 136 699 64 564 q 328 913 208 835 q 592 992 449 992 q 852 883 756 992 q 949 581 949 775 q 876 273 949 408 q 683 59 803 138 q 421 -19 564 -19 m 443 100 q 634 168 553 100 q 760 344 715 236 q 804 572 804 451 q 749 786 804 700 q 569 872 693 872 q 378 804 458 872 q 253 628 297 736 q 210 400 210 521 q 265 186 210 272 q 443 100 319 100 m 721 1094 q 625 1122 676 1094 q 539 1149 574 1149 q 492 1101 496 1149 l 401 1101 q 529 1240 425 1240 q 626 1213 576 1240 q 714 1186 675 1186 q 761 1233 754 1186 l 851 1233 q 721 1094 831 1094 m 438 1346 l 454 1440 l 893 1440 l 876 1346 l 438 1346 z "},"Œ":{"ha":1353,"x_min":64,"x_max":1392,"o":"m 397 -19 q 154 89 244 -19 q 64 392 64 197 q 132 694 64 558 q 314 911 200 831 q 564 992 428 992 q 797 874 718 992 q 875 585 875 756 q 816 287 875 425 q 649 65 757 149 q 397 -19 542 -19 m 428 100 q 609 168 532 100 q 728 344 686 236 q 769 572 769 451 q 719 786 769 700 q 554 872 668 872 q 372 804 449 872 q 252 628 294 736 q 210 400 210 521 q 261 186 210 272 q 428 100 313 100 m 692 0 l 863 972 l 1392 972 l 1371 853 l 961 853 l 911 568 l 1233 568 l 1213 449 l 890 449 l 832 119 l 1253 119 l 1232 0 l 692 0 z "},"P":{"ha":747,"x_min":39,"x_max":763,"o":"m 39 0 l 210 972 l 478 972 q 692 910 622 972 q 763 711 763 847 q 711 494 763 575 q 580 376 660 413 q 414 340 500 340 l 235 340 l 175 0 l 39 0 m 256 458 l 413 458 q 570 526 517 458 q 624 693 624 594 q 591 810 624 767 q 475 854 558 854 l 326 854 l 256 458 z "},"Þ":{"ha":718,"x_min":28,"x_max":732,"o":"m 28 0 l 200 972 l 336 972 l 297 757 l 485 757 q 669 703 607 757 q 732 554 732 650 q 641 342 732 419 q 399 265 550 265 l 211 265 l 164 0 l 28 0 m 232 383 l 410 383 q 593 532 593 383 q 454 639 593 639 l 276 639 l 232 383 z "},"Q":{"ha":985,"x_min":64,"x_max":949,"o":"m 418 -19 q 160 90 257 -19 q 64 393 64 199 q 136 699 64 564 q 328 913 208 835 q 590 992 447 992 q 853 881 758 992 q 949 583 949 771 q 911 369 949 472 q 792 154 874 267 l 856 86 l 768 4 l 699 79 q 418 -19 565 -19 m 444 100 q 527 110 479 100 q 619 156 575 121 l 515 272 l 603 357 l 707 239 q 779 372 747 300 q 811 561 811 443 q 753 788 811 704 q 571 872 694 872 l 571 872 q 377 804 458 872 q 253 628 296 736 q 210 397 210 519 q 265 184 210 268 q 444 100 319 100 z "},"R":{"ha":785,"x_min":39,"x_max":765,"o":"m 39 0 l 210 972 l 481 972 q 695 908 625 972 q 765 726 765 844 q 703 523 765 603 q 553 414 642 443 l 682 0 l 542 0 l 419 379 l 242 379 l 175 0 l 39 0 m 264 507 l 431 507 q 569 559 513 507 q 625 717 625 611 q 591 827 625 789 q 475 865 557 865 l 328 865 l 264 507 z "},"Ŕ":{"ha":785,"x_min":39,"x_max":765,"o":"m 39 0 l 210 972 l 481 972 q 695 908 625 972 q 765 726 765 844 q 703 523 765 603 q 553 414 642 443 l 682 0 l 542 0 l 419 379 l 242 379 l 175 0 l 39 0 m 264 507 l 431 507 q 569 559 513 507 q 625 717 625 611 q 591 827 625 789 q 475 865 557 865 l 328 865 l 264 507 m 432 1061 l 443 1150 l 681 1282 l 661 1142 l 432 1061 z "},"Ř":{"ha":785,"x_min":39,"x_max":765,"o":"m 39 0 l 210 972 l 481 972 q 695 908 625 972 q 765 726 765 844 q 703 523 765 603 q 553 414 642 443 l 682 0 l 542 0 l 419 379 l 242 379 l 175 0 l 39 0 m 264 507 l 431 507 q 569 559 513 507 q 625 717 625 611 q 591 827 625 789 q 475 865 557 865 l 328 865 l 264 507 m 531 1046 l 376 1171 l 390 1256 l 551 1164 l 718 1250 l 706 1160 l 531 1046 z "},"Ŗ":{"ha":785,"x_min":39,"x_max":765,"o":"m 39 0 l 210 972 l 481 972 q 695 908 625 972 q 765 726 765 844 q 703 523 765 603 q 553 414 642 443 l 682 0 l 542 0 l 419 379 l 242 379 l 175 0 l 39 0 m 264 507 l 431 507 q 569 559 513 507 q 625 717 625 611 q 591 827 625 789 q 475 865 557 865 l 328 865 l 264 507 m 296 -364 l 244 -364 l 306 -246 l 256 -246 l 276 -126 l 410 -126 l 389 -246 l 296 -364 z "},"Ȑ":{"ha":785,"x_min":39,"x_max":765,"o":"m 39 0 l 210 972 l 481 972 q 695 908 625 972 q 765 726 765 844 q 703 523 765 603 q 553 414 642 443 l 682 0 l 542 0 l 419 379 l 242 379 l 175 0 l 39 0 m 264 507 l 431 507 q 569 559 513 507 q 625 717 625 611 q 591 827 625 789 q 475 865 557 865 l 328 865 l 264 507 m 404 1094 l 308 1299 l 442 1299 l 493 1094 l 404 1094 m 596 1094 l 507 1299 l 640 1299 l 685 1094 l 596 1094 z "},"Ṛ":{"ha":785,"x_min":39,"x_max":765,"o":"m 39 0 l 210 972 l 481 972 q 695 908 625 972 q 765 726 765 844 q 703 523 765 603 q 553 414 642 443 l 682 0 l 542 0 l 419 379 l 242 379 l 175 0 l 39 0 m 264 507 l 431 507 q 569 559 513 507 q 625 717 625 611 q 591 827 625 789 q 475 865 557 865 l 328 865 l 264 507 z "},"Ȓ":{"ha":785,"x_min":39,"x_max":765,"o":"m 39 0 l 210 972 l 481 972 q 695 908 625 972 q 765 726 765 844 q 703 523 765 603 q 553 414 642 443 l 682 0 l 542 0 l 419 379 l 242 379 l 175 0 l 39 0 m 264 507 l 431 507 q 569 559 513 507 q 625 717 625 611 q 591 827 625 789 q 475 865 557 865 l 328 865 l 264 507 m 342 1082 q 411 1198 353 1147 q 572 1249 469 1249 q 703 1208 663 1249 q 744 1111 744 1167 q 742 1082 744 1101 l 631 1082 q 632 1099 632 1089 q 557 1163 632 1163 q 490 1142 521 1163 q 453 1082 460 1122 l 342 1082 z "},"Ṟ":{"ha":785,"x_min":39,"x_max":765,"o":"m 39 0 l 210 972 l 481 972 q 695 908 625 972 q 765 726 765 844 q 703 523 765 603 q 553 414 642 443 l 682 0 l 542 0 l 419 379 l 242 379 l 175 0 l 39 0 m 264 507 l 431 507 q 569 559 513 507 q 625 717 625 611 q 591 827 625 789 q 475 865 557 865 l 328 865 l 264 507 z "},"S":{"ha":747,"x_min":8,"x_max":742,"o":"m 283 -19 q 116 0 188 -19 q 8 43 44 19 l 53 197 q 156 131 92 163 q 304 100 219 100 q 462 140 394 100 q 529 267 529 181 q 474 379 529 344 q 343 446 419 414 q 238 492 292 467 q 146 560 183 518 q 108 674 108 603 q 144 810 108 736 q 261 938 181 885 q 478 992 342 992 q 632 970 564 992 q 742 925 700 949 l 704 785 q 592 850 647 828 q 468 872 538 872 q 327 834 400 872 q 254 713 254 796 q 297 624 254 654 q 413 567 339 594 q 536 514 475 542 q 638 436 597 486 q 678 296 678 386 q 642 150 678 222 q 519 29 606 78 q 283 -19 433 -19 z "},"Ś":{"ha":747,"x_min":8,"x_max":742,"o":"m 283 -19 q 116 0 188 -19 q 8 43 44 19 l 53 197 q 156 131 92 163 q 304 100 219 100 q 462 140 394 100 q 529 267 529 181 q 474 379 529 344 q 343 446 419 414 q 238 492 292 467 q 146 560 183 518 q 108 674 108 603 q 144 810 108 736 q 261 938 181 885 q 478 992 342 992 q 632 970 564 992 q 742 925 700 949 l 704 785 q 592 850 647 828 q 468 872 538 872 q 327 834 400 872 q 254 713 254 796 q 297 624 254 654 q 413 567 339 594 q 536 514 475 542 q 638 436 597 486 q 678 296 678 386 q 642 150 678 222 q 519 29 606 78 q 283 -19 433 -19 m 383 1061 l 394 1150 l 632 1282 l 613 1142 l 383 1061 z "},"Ṥ":{"ha":747,"x_min":8,"x_max":742,"o":"m 283 -19 q 116 0 188 -19 q 8 43 44 19 l 53 197 q 156 131 92 163 q 304 100 219 100 q 462 140 394 100 q 529 267 529 181 q 474 379 529 344 q 343 446 419 414 q 238 492 292 467 q 146 560 183 518 q 108 674 108 603 q 144 810 108 736 q 261 938 181 885 q 478 992 342 992 q 632 970 564 992 q 742 925 700 949 l 704 785 q 592 850 647 828 q 468 872 538 872 q 327 834 400 872 q 254 713 254 796 q 297 624 254 654 q 413 567 339 594 q 536 514 475 542 q 638 436 597 486 q 678 296 678 386 q 642 150 678 222 q 519 29 606 78 q 283 -19 433 -19 m 383 1061 l 394 1150 l 632 1282 l 613 1142 l 383 1061 m 479 1351 l 501 1476 l 632 1476 l 610 1351 l 479 1351 z "},"Š":{"ha":747,"x_min":8,"x_max":742,"o":"m 283 -19 q 116 0 188 -19 q 8 43 44 19 l 53 197 q 156 131 92 163 q 304 100 219 100 q 462 140 394 100 q 529 267 529 181 q 474 379 529 344 q 343 446 419 414 q 238 492 292 467 q 146 560 183 518 q 108 674 108 603 q 144 810 108 736 q 261 938 181 885 q 478 992 342 992 q 632 970 564 992 q 742 925 700 949 l 704 785 q 592 850 647 828 q 468 872 538 872 q 327 834 400 872 q 254 713 254 796 q 297 624 254 654 q 413 567 339 594 q 536 514 475 542 q 638 436 597 486 q 678 296 678 386 q 642 150 678 222 q 519 29 606 78 q 283 -19 433 -19 z "},"Ṧ":{"ha":747,"x_min":8,"x_max":742,"o":"m 283 -19 q 116 0 188 -19 q 8 43 44 19 l 53 197 q 156 131 92 163 q 304 100 219 100 q 462 140 394 100 q 529 267 529 181 q 474 379 529 344 q 343 446 419 414 q 238 492 292 467 q 146 560 183 518 q 108 674 108 603 q 144 810 108 736 q 261 938 181 885 q 478 992 342 992 q 632 970 564 992 q 742 925 700 949 l 704 785 q 592 850 647 828 q 468 872 538 872 q 327 834 400 872 q 254 713 254 796 q 297 624 254 654 q 413 567 339 594 q 536 514 475 542 q 638 436 597 486 q 678 296 678 386 q 642 150 678 222 q 519 29 606 78 q 283 -19 433 -19 m 482 1046 l 328 1171 l 342 1256 l 503 1164 l 669 1250 l 657 1160 l 482 1046 m 469 1304 l 492 1429 l 622 1429 l 600 1304 l 469 1304 z "},"Ş":{"ha":747,"x_min":8,"x_max":742,"o":"m 283 -19 q 116 0 188 -19 q 8 43 44 19 l 53 197 q 156 131 92 163 q 304 100 219 100 q 462 140 394 100 q 529 267 529 181 q 474 379 529 344 q 343 446 419 414 q 238 492 292 467 q 146 560 183 518 q 108 674 108 603 q 144 810 108 736 q 261 938 181 885 q 478 992 342 992 q 632 970 564 992 q 742 925 700 949 l 704 785 q 592 850 647 828 q 468 872 538 872 q 327 834 400 872 q 254 713 254 796 q 297 624 254 654 q 413 567 339 594 q 536 514 475 542 q 638 436 597 486 q 678 296 678 386 q 642 150 678 222 q 519 29 606 78 q 283 -19 433 -19 m 307 -110 l 265 -89 q 335 -75 304 -75 q 439 -167 439 -75 q 389 -272 439 -231 q 267 -314 339 -314 q 206 -306 231 -314 q 163 -287 181 -297 l 196 -219 q 235 -237 214 -231 q 279 -243 256 -243 q 357 -182 357 -243 q 296 -135 357 -135 q 229 -146 263 -135 l 292 0 l 361 0 l 307 -110 z "},"Ŝ":{"ha":747,"x_min":8,"x_max":742,"o":"m 283 -19 q 116 0 188 -19 q 8 43 44 19 l 53 197 q 156 131 92 163 q 304 100 219 100 q 462 140 394 100 q 529 267 529 181 q 474 379 529 344 q 343 446 419 414 q 238 492 292 467 q 146 560 183 518 q 108 674 108 603 q 144 810 108 736 q 261 938 181 885 q 478 992 342 992 q 632 970 564 992 q 742 925 700 949 l 704 785 q 592 850 647 828 q 468 872 538 872 q 327 834 400 872 q 254 713 254 796 q 297 624 254 654 q 413 567 339 594 q 536 514 475 542 q 638 436 597 486 q 678 296 678 386 q 642 150 678 222 q 519 29 606 78 q 283 -19 433 -19 m 664 1046 l 503 1138 l 343 1063 l 357 1147 l 524 1256 l 678 1131 l 664 1046 z "},"Ș":{"ha":747,"x_min":8,"x_max":742,"o":"m 283 -19 q 116 0 188 -19 q 8 43 44 19 l 53 197 q 156 131 92 163 q 304 100 219 100 q 462 140 394 100 q 529 267 529 181 q 474 379 529 344 q 343 446 419 414 q 238 492 292 467 q 146 560 183 518 q 108 674 108 603 q 144 810 108 736 q 261 938 181 885 q 478 992 342 992 q 632 970 564 992 q 742 925 700 949 l 704 785 q 592 850 647 828 q 468 872 538 872 q 327 834 400 872 q 254 713 254 796 q 297 624 254 654 q 413 567 339 594 q 536 514 475 542 q 638 436 597 486 q 678 296 678 386 q 642 150 678 222 q 519 29 606 78 q 283 -19 433 -19 m 260 -364 l 208 -364 l 269 -246 l 219 -246 l 240 -126 l 374 -126 l 353 -246 l 260 -364 z "},"Ṡ":{"ha":747,"x_min":8,"x_max":742,"o":"m 283 -19 q 116 0 188 -19 q 8 43 44 19 l 53 197 q 156 131 92 163 q 304 100 219 100 q 462 140 394 100 q 529 267 529 181 q 474 379 529 344 q 343 446 419 414 q 238 492 292 467 q 146 560 183 518 q 108 674 108 603 q 144 810 108 736 q 261 938 181 885 q 478 992 342 992 q 632 970 564 992 q 742 925 700 949 l 704 785 q 592 850 647 828 q 468 872 538 872 q 327 834 400 872 q 254 713 254 796 q 297 624 254 654 q 413 567 339 594 q 536 514 475 542 q 638 436 597 486 q 678 296 678 386 q 642 150 678 222 q 519 29 606 78 q 283 -19 433 -19 m 431 1099 l 453 1224 l 583 1224 l 561 1099 l 431 1099 z "},"Ṣ":{"ha":747,"x_min":8,"x_max":742,"o":"m 283 -19 q 116 0 188 -19 q 8 43 44 19 l 53 197 q 156 131 92 163 q 304 100 219 100 q 462 140 394 100 q 529 267 529 181 q 474 379 529 344 q 343 446 419 414 q 238 492 292 467 q 146 560 183 518 q 108 674 108 603 q 144 810 108 736 q 261 938 181 885 q 478 992 342 992 q 632 970 564 992 q 742 925 700 949 l 704 785 q 592 850 647 828 q 468 872 538 872 q 327 834 400 872 q 254 713 254 796 q 297 624 254 654 q 413 567 339 594 q 536 514 475 542 q 638 436 597 486 q 678 296 678 386 q 642 150 678 222 q 519 29 606 78 q 283 -19 433 -19 z "},"Ṩ":{"ha":747,"x_min":8,"x_max":742,"o":"m 283 -19 q 116 0 188 -19 q 8 43 44 19 l 53 197 q 156 131 92 163 q 304 100 219 100 q 462 140 394 100 q 529 267 529 181 q 474 379 529 344 q 343 446 419 414 q 238 492 292 467 q 146 560 183 518 q 108 674 108 603 q 144 810 108 736 q 261 938 181 885 q 478 992 342 992 q 632 970 564 992 q 742 925 700 949 l 704 785 q 592 850 647 828 q 468 872 538 872 q 327 834 400 872 q 254 713 254 796 q 297 624 254 654 q 413 567 339 594 q 536 514 475 542 q 638 436 597 486 q 678 296 678 386 q 642 150 678 222 q 519 29 606 78 q 283 -19 433 -19 m 431 1099 l 453 1224 l 583 1224 l 561 1099 l 431 1099 z "},"ẞ":{"ha":800,"x_min":33,"x_max":786,"o":"m 33 0 l 153 674 q 281 916 181 840 q 521 992 381 992 q 669 972 601 992 q 786 921 736 951 l 764 815 l 519 501 l 469 560 q 668 492 593 560 q 743 307 743 425 q 648 74 743 167 q 397 -19 553 -19 q 332 -14 364 -19 q 272 0 300 -8 l 296 118 q 345 105 319 110 q 400 100 371 100 q 546 155 493 100 q 599 297 599 210 q 551 416 599 376 q 421 463 503 456 l 401 464 l 419 561 l 692 907 l 686 836 q 612 863 651 853 q 521 872 572 872 q 366 825 429 872 q 285 676 303 778 l 165 0 l 33 0 z "},"Ə":{"ha":926,"x_min":39,"x_max":892,"o":"m 392 100 q 585 169 506 100 q 706 350 664 239 q 747 585 747 461 q 682 796 747 719 q 490 872 617 872 q 338 853 414 872 q 188 807 261 835 l 182 918 q 344 971 256 950 q 526 992 432 992 q 796 888 700 992 q 892 600 892 783 q 824 292 892 433 q 638 66 757 151 q 367 -19 519 -19 q 129 64 219 -19 q 39 301 39 147 q 49 399 39 346 q 72 488 58 451 l 826 488 l 806 371 l 188 371 q 181 301 181 329 q 233 154 182 208 q 392 100 283 100 z "},"T":{"ha":726,"x_min":121,"x_max":779,"o":"m 224 0 l 374 853 l 121 853 l 142 972 l 779 972 l 758 853 l 506 853 l 356 0 l 224 0 z "},"Ŧ":{"ha":726,"x_min":121,"x_max":779,"o":"m 136 454 l 151 540 l 618 540 l 603 454 l 136 454 m 224 0 l 374 853 l 121 853 l 142 972 l 779 972 l 758 853 l 506 853 l 356 0 l 224 0 z "},"Ť":{"ha":726,"x_min":121,"x_max":779,"o":"m 224 0 l 374 853 l 121 853 l 142 972 l 779 972 l 758 853 l 506 853 l 356 0 l 224 0 m 469 1046 l 315 1171 l 329 1256 l 490 1164 l 657 1250 l 644 1160 l 469 1046 z "},"Ţ":{"ha":726,"x_min":121,"x_max":779,"o":"m 224 0 l 374 853 l 121 853 l 142 972 l 779 972 l 758 853 l 506 853 l 356 0 l 224 0 m 275 -110 l 233 -89 q 303 -75 272 -75 q 407 -167 407 -75 q 357 -272 407 -231 q 235 -314 307 -314 q 174 -306 199 -314 q 131 -287 149 -297 l 164 -219 q 203 -237 182 -231 q 247 -243 224 -243 q 325 -182 325 -243 q 264 -135 325 -135 q 197 -146 231 -135 l 260 0 l 329 0 l 275 -110 z "},"Ț":{"ha":726,"x_min":121,"x_max":779,"o":"m 224 0 l 374 853 l 121 853 l 142 972 l 779 972 l 758 853 l 506 853 l 356 0 l 224 0 m 228 -364 l 176 -364 l 238 -246 l 188 -246 l 208 -126 l 342 -126 l 321 -246 l 228 -364 z "},"Ṭ":{"ha":726,"x_min":121,"x_max":779,"o":"m 224 0 l 374 853 l 121 853 l 142 972 l 779 972 l 758 853 l 506 853 l 356 0 l 224 0 z "},"Ṯ":{"ha":726,"x_min":36,"x_max":779,"o":"m 224 0 l 374 853 l 121 853 l 142 972 l 779 972 l 758 853 l 506 853 l 356 0 l 224 0 z "},"U":{"ha":928,"x_min":90,"x_max":926,"o":"m 389 -19 q 163 60 236 -19 q 90 283 90 140 q 94 346 90 314 q 103 413 97 378 l 201 972 l 333 972 l 246 476 q 234 396 239 436 q 229 318 229 356 q 267 163 229 225 q 410 100 306 100 q 567 154 508 100 q 658 294 626 208 q 707 476 690 381 l 794 972 l 926 972 l 828 413 q 683 97 792 213 q 389 -19 574 -19 z "},"Ú":{"ha":928,"x_min":90,"x_max":926,"o":"m 389 -19 q 163 60 236 -19 q 90 283 90 140 q 94 346 90 314 q 103 413 97 378 l 201 972 l 333 972 l 246 476 q 234 396 239 436 q 229 318 229 356 q 267 163 229 225 q 410 100 306 100 q 567 154 508 100 q 658 294 626 208 q 707 476 690 381 l 794 972 l 926 972 l 828 413 q 683 97 792 213 q 389 -19 574 -19 m 478 1090 l 494 1185 l 749 1329 l 725 1175 l 478 1090 z "},"Ŭ":{"ha":928,"x_min":90,"x_max":926,"o":"m 389 -19 q 163 60 236 -19 q 90 283 90 140 q 94 346 90 314 q 103 413 97 378 l 201 972 l 333 972 l 246 476 q 234 396 239 436 q 229 318 229 356 q 267 163 229 225 q 410 100 306 100 q 567 154 508 100 q 658 294 626 208 q 707 476 690 381 l 794 972 l 926 972 l 828 413 q 683 97 792 213 q 389 -19 574 -19 m 589 1061 q 453 1101 496 1061 q 411 1197 411 1142 q 414 1228 411 1208 l 525 1228 q 524 1211 524 1222 q 601 1147 524 1147 q 670 1167 639 1147 q 708 1228 701 1188 l 819 1228 q 749 1108 807 1156 q 589 1061 692 1061 z "},"Û":{"ha":928,"x_min":90,"x_max":926,"o":"m 389 -19 q 163 60 236 -19 q 90 283 90 140 q 94 346 90 314 q 103 413 97 378 l 201 972 l 333 972 l 246 476 q 234 396 239 436 q 229 318 229 356 q 267 163 229 225 q 410 100 306 100 q 567 154 508 100 q 658 294 626 208 q 707 476 690 381 l 794 972 l 926 972 l 828 413 q 683 97 792 213 q 389 -19 574 -19 m 439 1089 l 460 1178 l 638 1313 l 783 1160 l 767 1075 l 613 1186 l 439 1089 z "},"Ȕ":{"ha":928,"x_min":90,"x_max":926,"o":"m 389 -19 q 163 60 236 -19 q 90 283 90 140 q 94 346 90 314 q 103 413 97 378 l 201 972 l 333 972 l 246 476 q 234 396 239 436 q 229 318 229 356 q 267 163 229 225 q 410 100 306 100 q 567 154 508 100 q 658 294 626 208 q 707 476 690 381 l 794 972 l 926 972 l 828 413 q 683 97 792 213 q 389 -19 574 -19 m 453 1094 l 357 1299 l 490 1299 l 542 1094 l 453 1094 m 644 1094 l 556 1299 l 689 1299 l 733 1094 l 644 1094 z "},"Ü":{"ha":928,"x_min":90,"x_max":926,"o":"m 389 -19 q 163 60 236 -19 q 90 283 90 140 q 94 346 90 314 q 103 413 97 378 l 201 972 l 333 972 l 246 476 q 234 396 239 436 q 229 318 229 356 q 267 163 229 225 q 410 100 306 100 q 567 154 508 100 q 658 294 626 208 q 707 476 690 381 l 794 972 l 926 972 l 828 413 q 683 97 792 213 q 389 -19 574 -19 z "},"Ụ":{"ha":928,"x_min":90,"x_max":926,"o":"m 389 -19 q 163 60 236 -19 q 90 283 90 140 q 94 346 90 314 q 103 413 97 378 l 201 972 l 333 972 l 246 476 q 234 396 239 436 q 229 318 229 356 q 267 163 229 225 q 410 100 306 100 q 567 154 508 100 q 658 294 626 208 q 707 476 690 381 l 794 972 l 926 972 l 828 413 q 683 97 792 213 q 389 -19 574 -19 z "},"Ù":{"ha":928,"x_min":90,"x_max":926,"o":"m 389 -19 q 163 60 236 -19 q 90 283 90 140 q 94 346 90 314 q 103 413 97 378 l 201 972 l 333 972 l 246 476 q 234 396 239 436 q 229 318 229 356 q 267 163 229 225 q 410 100 306 100 q 567 154 508 100 q 658 294 626 208 q 707 476 690 381 l 794 972 l 926 972 l 828 413 q 683 97 792 213 q 389 -19 574 -19 m 714 1092 l 485 1188 l 508 1324 l 729 1176 l 714 1092 z "},"Ủ":{"ha":928,"x_min":90,"x_max":926,"o":"m 389 -19 q 163 60 236 -19 q 90 283 90 140 q 94 346 90 314 q 103 413 97 378 l 201 972 l 333 972 l 246 476 q 234 396 239 436 q 229 318 229 356 q 267 163 229 225 q 410 100 306 100 q 567 154 508 100 q 658 294 626 208 q 707 476 690 381 l 794 972 l 926 972 l 828 413 q 683 97 792 213 q 389 -19 574 -19 m 563 1067 q 620 1118 597 1094 q 643 1172 643 1142 q 594 1210 643 1210 q 549 1202 572 1210 q 503 1183 526 1194 l 492 1254 q 608 1281 547 1281 q 692 1256 660 1281 q 726 1188 725 1232 q 690 1094 726 1133 q 601 1021 654 1056 l 563 1067 z "},"Ư":{"ha":928,"x_min":90,"x_max":1096,"o":"m 389 -19 q 163 60 236 -19 q 90 283 90 140 q 94 346 90 314 q 103 413 97 378 l 201 972 l 333 972 l 246 476 q 234 396 239 436 q 229 318 229 356 q 267 163 229 225 q 410 100 306 100 q 567 154 508 100 q 658 294 626 208 q 707 476 690 381 l 794 972 l 926 972 l 828 413 q 683 97 792 213 q 389 -19 574 -19 m 831 881 l 847 972 q 976 1075 957 972 l 1096 1075 q 1008 933 1078 986 q 831 881 938 881 z "},"Ứ":{"ha":928,"x_min":90,"x_max":1096,"o":"m 389 -19 q 163 60 236 -19 q 90 283 90 140 q 94 346 90 314 q 103 413 97 378 l 201 972 l 333 972 l 246 476 q 234 396 239 436 q 229 318 229 356 q 267 163 229 225 q 410 100 306 100 q 567 154 508 100 q 658 294 626 208 q 707 476 690 381 l 794 972 l 926 972 l 828 413 q 683 97 792 213 q 389 -19 574 -19 m 831 881 l 847 972 q 976 1075 957 972 l 1096 1075 q 1008 933 1078 986 q 831 881 938 881 m 478 1090 l 494 1185 l 749 1329 l 725 1175 l 478 1090 z "},"Ự":{"ha":928,"x_min":90,"x_max":1096,"o":"m 389 -19 q 163 60 236 -19 q 90 283 90 140 q 94 346 90 314 q 103 413 97 378 l 201 972 l 333 972 l 246 476 q 234 396 239 436 q 229 318 229 356 q 267 163 229 225 q 410 100 306 100 q 567 154 508 100 q 658 294 626 208 q 707 476 690 381 l 794 972 l 926 972 l 828 413 q 683 97 792 213 q 389 -19 574 -19 m 831 881 l 847 972 q 976 1075 957 972 l 1096 1075 q 1008 933 1078 986 q 831 881 938 881 z "},"Ừ":{"ha":928,"x_min":90,"x_max":1096,"o":"m 389 -19 q 163 60 236 -19 q 90 283 90 140 q 94 346 90 314 q 103 413 97 378 l 201 972 l 333 972 l 246 476 q 234 396 239 436 q 229 318 229 356 q 267 163 229 225 q 410 100 306 100 q 567 154 508 100 q 658 294 626 208 q 707 476 690 381 l 794 972 l 926 972 l 828 413 q 683 97 792 213 q 389 -19 574 -19 m 831 881 l 847 972 q 976 1075 957 972 l 1096 1075 q 1008 933 1078 986 q 831 881 938 881 m 714 1092 l 485 1188 l 508 1324 l 729 1176 l 714 1092 z "},"Ử":{"ha":928,"x_min":90,"x_max":1096,"o":"m 389 -19 q 163 60 236 -19 q 90 283 90 140 q 94 346 90 314 q 103 413 97 378 l 201 972 l 333 972 l 246 476 q 234 396 239 436 q 229 318 229 356 q 267 163 229 225 q 410 100 306 100 q 567 154 508 100 q 658 294 626 208 q 707 476 690 381 l 794 972 l 926 972 l 828 413 q 683 97 792 213 q 389 -19 574 -19 m 831 881 l 847 972 q 976 1075 957 972 l 1096 1075 q 1008 933 1078 986 q 831 881 938 881 m 563 1067 q 620 1118 597 1094 q 643 1172 643 1142 q 594 1210 643 1210 q 549 1202 572 1210 q 503 1183 526 1194 l 492 1254 q 608 1281 547 1281 q 692 1256 660 1281 q 726 1188 725 1232 q 690 1094 726 1133 q 601 1021 654 1056 l 563 1067 z "},"Ữ":{"ha":928,"x_min":90,"x_max":1096,"o":"m 389 -19 q 163 60 236 -19 q 90 283 90 140 q 94 346 90 314 q 103 413 97 378 l 201 972 l 333 972 l 246 476 q 234 396 239 436 q 229 318 229 356 q 267 163 229 225 q 410 100 306 100 q 567 154 508 100 q 658 294 626 208 q 707 476 690 381 l 794 972 l 926 972 l 828 413 q 683 97 792 213 q 389 -19 574 -19 m 831 881 l 847 972 q 976 1075 957 972 l 1096 1075 q 1008 933 1078 986 q 831 881 938 881 m 704 1097 q 613 1128 660 1097 q 529 1158 567 1158 q 476 1108 488 1158 l 376 1108 q 522 1263 413 1263 q 610 1232 569 1263 q 693 1201 650 1201 q 746 1256 736 1201 l 846 1256 q 704 1097 810 1097 z "},"Ű":{"ha":928,"x_min":90,"x_max":926,"o":"m 389 -19 q 163 60 236 -19 q 90 283 90 140 q 94 346 90 314 q 103 413 97 378 l 201 972 l 333 972 l 246 476 q 234 396 239 436 q 229 318 229 356 q 267 163 229 225 q 410 100 306 100 q 567 154 508 100 q 658 294 626 208 q 707 476 690 381 l 794 972 l 926 972 l 828 413 q 683 97 792 213 q 389 -19 574 -19 m 642 1094 l 763 1299 l 896 1299 l 731 1094 l 642 1094 m 450 1094 l 564 1299 l 697 1299 l 539 1094 l 450 1094 z "},"Ȗ":{"ha":928,"x_min":90,"x_max":926,"o":"m 389 -19 q 163 60 236 -19 q 90 283 90 140 q 94 346 90 314 q 103 413 97 378 l 201 972 l 333 972 l 246 476 q 234 396 239 436 q 229 318 229 356 q 267 163 229 225 q 410 100 306 100 q 567 154 508 100 q 658 294 626 208 q 707 476 690 381 l 794 972 l 926 972 l 828 413 q 683 97 792 213 q 389 -19 574 -19 m 390 1082 q 460 1198 401 1147 q 621 1249 518 1249 q 752 1208 711 1249 q 793 1111 793 1167 q 790 1082 793 1101 l 679 1082 q 681 1099 681 1089 q 606 1163 681 1163 q 539 1142 569 1163 q 501 1082 508 1122 l 390 1082 z "},"Ū":{"ha":928,"x_min":90,"x_max":926,"o":"m 389 -19 q 163 60 236 -19 q 90 283 90 140 q 94 346 90 314 q 103 413 97 378 l 201 972 l 333 972 l 246 476 q 234 396 239 436 q 229 318 229 356 q 267 163 229 225 q 410 100 306 100 q 567 154 508 100 q 658 294 626 208 q 707 476 690 381 l 794 972 l 926 972 l 828 413 q 683 97 792 213 q 389 -19 574 -19 m 374 1101 l 390 1196 l 829 1196 l 813 1101 l 374 1101 z "},"Ṻ":{"ha":928,"x_min":90,"x_max":926,"o":"m 389 -19 q 163 60 236 -19 q 90 283 90 140 q 94 346 90 314 q 103 413 97 378 l 201 972 l 333 972 l 246 476 q 234 396 239 436 q 229 318 229 356 q 267 163 229 225 q 410 100 306 100 q 567 154 508 100 q 658 294 626 208 q 707 476 690 381 l 794 972 l 926 972 l 828 413 q 683 97 792 213 q 389 -19 574 -19 m 374 1101 l 390 1196 l 829 1196 l 813 1101 l 374 1101 m 714 1314 l 733 1418 l 850 1418 l 831 1314 l 714 1314 m 458 1314 l 478 1418 l 594 1418 l 575 1314 l 458 1314 z "},"Ų":{"ha":928,"x_min":90,"x_max":926,"o":"m 389 -19 q 163 60 236 -19 q 90 283 90 140 q 94 346 90 314 q 103 413 97 378 l 201 972 l 333 972 l 246 476 q 234 396 239 436 q 229 318 229 356 q 267 163 229 225 q 410 100 306 100 q 567 154 508 100 q 658 294 626 208 q 707 476 690 381 l 794 972 l 926 972 l 828 413 q 683 97 792 213 q 389 -19 574 -19 m 438 0 l 511 0 q 418 -76 460 -36 q 376 -165 376 -115 q 428 -218 376 -218 q 511 -194 468 -218 l 519 -262 q 472 -281 500 -272 q 408 -289 443 -289 q 325 -265 358 -289 q 290 -193 292 -240 q 336 -82 290 -135 q 438 0 382 -29 z "},"Ů":{"ha":928,"x_min":90,"x_max":926,"o":"m 389 -19 q 163 60 236 -19 q 90 283 90 140 q 94 346 90 314 q 103 413 97 378 l 201 972 l 333 972 l 246 476 q 234 396 239 436 q 229 318 229 356 q 267 163 229 225 q 410 100 306 100 q 567 154 508 100 q 658 294 626 208 q 707 476 690 381 l 794 972 l 926 972 l 828 413 q 683 97 792 213 q 389 -19 574 -19 m 588 1050 q 497 1083 526 1050 q 467 1161 467 1115 q 515 1274 467 1226 q 629 1322 563 1322 q 720 1289 690 1322 q 750 1211 750 1256 q 703 1097 750 1144 q 588 1050 657 1050 m 594 1111 q 654 1138 629 1111 q 679 1201 679 1164 q 622 1261 679 1261 q 563 1235 589 1261 q 538 1172 538 1208 q 594 1111 538 1111 z "},"Ũ":{"ha":928,"x_min":90,"x_max":926,"o":"m 389 -19 q 163 60 236 -19 q 90 283 90 140 q 94 346 90 314 q 103 413 97 378 l 201 972 l 333 972 l 246 476 q 234 396 239 436 q 229 318 229 356 q 267 163 229 225 q 410 100 306 100 q 567 154 508 100 q 658 294 626 208 q 707 476 690 381 l 794 972 l 926 972 l 828 413 q 683 97 792 213 q 389 -19 574 -19 m 704 1097 q 613 1128 660 1097 q 529 1158 567 1158 q 476 1108 488 1158 l 376 1108 q 522 1263 413 1263 q 610 1232 569 1263 q 693 1201 650 1201 q 746 1256 736 1201 l 846 1256 q 704 1097 810 1097 z "},"Ṹ":{"ha":928,"x_min":90,"x_max":926,"o":"m 389 -19 q 163 60 236 -19 q 90 283 90 140 q 94 346 90 314 q 103 413 97 378 l 201 972 l 333 972 l 246 476 q 234 396 239 436 q 229 318 229 356 q 267 163 229 225 q 410 100 306 100 q 567 154 508 100 q 658 294 626 208 q 707 476 690 381 l 794 972 l 926 972 l 828 413 q 683 97 792 213 q 389 -19 574 -19 m 700 1094 q 604 1122 656 1094 q 518 1149 553 1149 q 471 1101 475 1149 l 381 1101 q 508 1240 404 1240 q 605 1213 556 1240 q 693 1186 654 1186 q 740 1233 733 1186 l 831 1233 q 700 1094 810 1094 m 524 1306 l 535 1394 l 772 1526 l 753 1386 l 524 1306 z "},"V":{"ha":826,"x_min":104,"x_max":907,"o":"m 261 0 l 104 972 l 243 972 l 363 160 l 768 972 l 907 972 l 408 0 l 261 0 z "},"W":{"ha":1235,"x_min":129,"x_max":1313,"o":"m 203 0 l 129 972 l 268 972 l 306 164 l 649 953 l 786 953 l 844 165 l 1175 972 l 1313 972 l 885 0 l 751 0 l 689 797 l 340 0 l 203 0 z "},"Ẃ":{"ha":1235,"x_min":129,"x_max":1313,"o":"m 203 0 l 129 972 l 268 972 l 306 164 l 649 953 l 786 953 l 844 165 l 1175 972 l 1313 972 l 885 0 l 751 0 l 689 797 l 340 0 l 203 0 m 628 1061 l 639 1150 l 876 1282 l 857 1142 l 628 1061 z "},"Ŵ":{"ha":1235,"x_min":129,"x_max":1313,"o":"m 203 0 l 129 972 l 268 972 l 306 164 l 649 953 l 786 953 l 844 165 l 1175 972 l 1313 972 l 885 0 l 751 0 l 689 797 l 340 0 l 203 0 m 908 1046 l 747 1138 l 588 1063 l 601 1147 l 768 1256 l 922 1131 l 908 1046 z "},"Ẅ":{"ha":1235,"x_min":129,"x_max":1313,"o":"m 203 0 l 129 972 l 268 972 l 306 164 l 649 953 l 786 953 l 844 165 l 1175 972 l 1313 972 l 885 0 l 751 0 l 689 797 l 340 0 l 203 0 m 810 1103 l 829 1207 l 946 1207 l 926 1103 l 810 1103 m 554 1103 l 574 1207 l 690 1207 l 671 1103 l 554 1103 z "},"Ẁ":{"ha":1235,"x_min":129,"x_max":1313,"o":"m 203 0 l 129 972 l 268 972 l 306 164 l 649 953 l 786 953 l 844 165 l 1175 972 l 1313 972 l 885 0 l 751 0 l 689 797 l 340 0 l 203 0 m 856 1061 l 625 1142 l 649 1274 l 871 1142 l 856 1061 z "},"X":{"ha":781,"x_min":-54,"x_max":860,"o":"m -54 0 l 322 496 l 122 972 l 275 972 l 425 586 l 717 972 l 860 972 l 474 494 l 694 0 l 551 0 l 382 399 l 90 0 l -54 0 z "},"Y":{"ha":758,"x_min":108,"x_max":839,"o":"m 235 0 l 314 449 l 108 972 l 247 972 l 406 568 l 700 972 l 839 972 l 450 449 l 371 0 l 235 0 z "},"Ý":{"ha":758,"x_min":108,"x_max":839,"o":"m 235 0 l 314 449 l 108 972 l 247 972 l 406 568 l 700 972 l 839 972 l 450 449 l 371 0 l 235 0 m 381 1090 l 397 1185 l 651 1329 l 628 1175 l 381 1090 z "},"Ŷ":{"ha":758,"x_min":108,"x_max":839,"o":"m 235 0 l 314 449 l 108 972 l 247 972 l 406 568 l 700 972 l 839 972 l 450 449 l 371 0 l 235 0 m 664 1046 l 503 1138 l 343 1063 l 357 1147 l 524 1256 l 678 1131 l 664 1046 z "},"Ÿ":{"ha":758,"x_min":108,"x_max":839,"o":"m 235 0 l 314 449 l 108 972 l 247 972 l 406 568 l 700 972 l 839 972 l 450 449 l 371 0 l 235 0 z "},"Ẏ":{"ha":758,"x_min":108,"x_max":839,"o":"m 235 0 l 314 449 l 108 972 l 247 972 l 406 568 l 700 972 l 839 972 l 450 449 l 371 0 l 235 0 m 431 1099 l 453 1224 l 583 1224 l 561 1099 l 431 1099 z "},"Ỵ":{"ha":758,"x_min":108,"x_max":839,"o":"m 235 0 l 314 449 l 108 972 l 247 972 l 406 568 l 700 972 l 839 972 l 450 449 l 371 0 l 235 0 z "},"Ỳ":{"ha":758,"x_min":108,"x_max":839,"o":"m 235 0 l 314 449 l 108 972 l 247 972 l 406 568 l 700 972 l 839 972 l 450 449 l 371 0 l 235 0 m 617 1092 l 388 1188 l 411 1324 l 632 1176 l 617 1092 z "},"Ỷ":{"ha":758,"x_min":108,"x_max":839,"o":"m 235 0 l 314 449 l 108 972 l 247 972 l 406 568 l 700 972 l 839 972 l 450 449 l 371 0 l 235 0 m 465 1067 q 523 1118 500 1094 q 546 1172 546 1142 q 497 1210 546 1210 q 452 1202 475 1210 q 406 1183 429 1194 l 394 1254 q 511 1281 450 1281 q 595 1256 563 1281 q 629 1188 628 1232 q 593 1094 629 1133 q 504 1021 557 1056 l 465 1067 z "},"Ȳ":{"ha":758,"x_min":108,"x_max":839,"o":"m 235 0 l 314 449 l 108 972 l 247 972 l 406 568 l 700 972 l 839 972 l 450 449 l 371 0 l 235 0 m 276 1101 l 293 1196 l 732 1196 l 715 1101 l 276 1101 z "},"Ỹ":{"ha":758,"x_min":108,"x_max":839,"o":"m 235 0 l 314 449 l 108 972 l 247 972 l 406 568 l 700 972 l 839 972 l 450 449 l 371 0 l 235 0 m 607 1097 q 516 1128 563 1097 q 432 1158 469 1158 q 379 1108 390 1158 l 279 1108 q 425 1263 315 1263 q 513 1232 472 1263 q 596 1201 553 1201 q 649 1256 639 1201 l 749 1256 q 607 1097 713 1097 z "},"Z":{"ha":694,"x_min":-57,"x_max":781,"o":"m -57 0 l 542 853 l 150 853 l 171 972 l 781 972 l 181 119 l 574 119 l 553 0 l -57 0 z "},"Ź":{"ha":694,"x_min":-57,"x_max":781,"o":"m -57 0 l 542 853 l 150 853 l 171 972 l 781 972 l 181 119 l 574 119 l 553 0 l -57 0 m 386 1061 l 397 1150 l 635 1282 l 615 1142 l 386 1061 z "},"Ž":{"ha":694,"x_min":-57,"x_max":781,"o":"m -57 0 l 542 853 l 150 853 l 171 972 l 781 972 l 181 119 l 574 119 l 553 0 l -57 0 z "},"Ż":{"ha":694,"x_min":-57,"x_max":781,"o":"m -57 0 l 542 853 l 150 853 l 171 972 l 781 972 l 181 119 l 574 119 l 553 0 l -57 0 m 433 1099 l 456 1224 l 586 1224 l 564 1099 l 433 1099 z "},"Ẓ":{"ha":694,"x_min":-57,"x_max":781,"o":"m -57 0 l 542 853 l 150 853 l 171 972 l 781 972 l 181 119 l 574 119 l 553 0 l -57 0 z "},"a":{"ha":750,"x_min":29,"x_max":683,"o":"m 256 -14 q 91 61 153 -14 q 29 258 29 136 q 76 468 29 368 q 203 631 122 568 q 388 694 283 694 q 475 678 431 694 q 546 608 519 661 l 572 681 l 683 681 l 601 199 q 596 144 596 169 q 610 99 596 111 q 661 86 625 86 l 626 -14 q 525 0 567 -14 q 468 86 483 14 q 373 12 426 38 q 256 -14 319 -14 m 297 97 q 400 130 350 97 q 483 227 450 163 q 515 385 515 292 q 474 536 515 489 q 374 583 433 583 q 221 493 282 583 q 160 285 160 403 q 192 152 160 207 q 297 97 225 97 z "},"á":{"ha":750,"x_min":29,"x_max":683,"o":"m 256 -14 q 91 61 153 -14 q 29 258 29 136 q 76 468 29 368 q 203 631 122 568 q 388 694 283 694 q 475 678 431 694 q 546 608 519 661 l 572 681 l 683 681 l 601 199 q 596 144 596 169 q 610 99 596 111 q 661 86 625 86 l 626 -14 q 525 0 567 -14 q 468 86 483 14 q 373 12 426 38 q 256 -14 319 -14 m 297 97 q 400 130 350 97 q 483 227 450 163 q 515 385 515 292 q 474 536 515 489 q 374 583 433 583 q 221 493 282 583 q 160 285 160 403 q 192 152 160 207 q 297 97 225 97 m 353 799 l 369 893 l 624 1038 l 600 883 l 353 799 z "},"ă":{"ha":750,"x_min":29,"x_max":704,"o":"m 256 -14 q 91 61 153 -14 q 29 258 29 136 q 76 468 29 368 q 203 631 122 568 q 388 694 283 694 q 475 678 431 694 q 546 608 519 661 l 572 681 l 683 681 l 601 199 q 596 144 596 169 q 610 99 596 111 q 661 86 625 86 l 626 -14 q 525 0 567 -14 q 468 86 483 14 q 373 12 426 38 q 256 -14 319 -14 m 297 97 q 400 130 350 97 q 483 227 450 163 q 515 385 515 292 q 474 536 515 489 q 374 583 433 583 q 221 493 282 583 q 160 285 160 403 q 192 152 160 207 q 297 97 225 97 m 476 800 q 345 842 386 800 q 304 940 304 883 q 310 976 304 960 l 418 976 q 414 953 414 967 q 488 892 414 892 q 553 913 524 892 q 589 976 582 933 l 704 976 q 635 851 693 903 q 476 800 578 800 z "},"ắ":{"ha":750,"x_min":29,"x_max":704,"o":"m 256 -14 q 91 61 153 -14 q 29 258 29 136 q 76 468 29 368 q 203 631 122 568 q 388 694 283 694 q 475 678 431 694 q 546 608 519 661 l 572 681 l 683 681 l 601 199 q 596 144 596 169 q 610 99 596 111 q 661 86 625 86 l 626 -14 q 525 0 567 -14 q 468 86 483 14 q 373 12 426 38 q 256 -14 319 -14 m 297 97 q 400 130 350 97 q 483 227 450 163 q 515 385 515 292 q 474 536 515 489 q 374 583 433 583 q 221 493 282 583 q 160 285 160 403 q 192 152 160 207 q 297 97 225 97 m 474 769 q 338 810 381 769 q 296 906 296 850 q 299 936 296 917 l 410 936 q 408 919 408 931 q 486 856 408 856 q 555 876 524 856 q 593 936 586 896 l 704 936 q 634 817 692 864 q 474 769 576 769 m 418 997 l 429 1086 l 667 1218 l 647 1078 l 418 997 z "},"ặ":{"ha":750,"x_min":29,"x_max":704,"o":"m 256 -14 q 91 61 153 -14 q 29 258 29 136 q 76 468 29 368 q 203 631 122 568 q 388 694 283 694 q 475 678 431 694 q 546 608 519 661 l 572 681 l 683 681 l 601 199 q 596 144 596 169 q 610 99 596 111 q 661 86 625 86 l 626 -14 q 525 0 567 -14 q 468 86 483 14 q 373 12 426 38 q 256 -14 319 -14 m 297 97 q 400 130 350 97 q 483 227 450 163 q 515 385 515 292 q 474 536 515 489 q 374 583 433 583 q 221 493 282 583 q 160 285 160 403 q 192 152 160 207 q 297 97 225 97 m 476 800 q 345 842 386 800 q 304 940 304 883 q 310 976 304 960 l 418 976 q 414 953 414 967 q 488 892 414 892 q 553 913 524 892 q 589 976 582 933 l 704 976 q 635 851 693 903 q 476 800 578 800 z "},"ằ":{"ha":750,"x_min":29,"x_max":700,"o":"m 256 -14 q 91 61 153 -14 q 29 258 29 136 q 76 468 29 368 q 203 631 122 568 q 388 694 283 694 q 475 678 431 694 q 546 608 519 661 l 572 681 l 683 681 l 601 199 q 596 144 596 169 q 610 99 596 111 q 661 86 625 86 l 626 -14 q 525 0 567 -14 q 468 86 483 14 q 373 12 426 38 q 256 -14 319 -14 m 297 97 q 400 130 350 97 q 483 227 450 163 q 515 385 515 292 q 474 536 515 489 q 374 583 433 583 q 221 493 282 583 q 160 285 160 403 q 192 152 160 207 q 297 97 225 97 m 469 768 q 334 808 376 768 q 292 904 292 849 q 294 935 292 915 l 406 935 q 404 918 404 929 q 482 854 404 854 q 551 874 519 854 q 589 935 582 894 l 700 935 q 630 815 688 863 q 469 768 572 768 m 642 996 l 411 1076 l 435 1208 l 657 1076 l 642 996 z "},"ẳ":{"ha":750,"x_min":29,"x_max":714,"o":"m 256 -14 q 91 61 153 -14 q 29 258 29 136 q 76 468 29 368 q 203 631 122 568 q 388 694 283 694 q 475 678 431 694 q 546 608 519 661 l 572 681 l 683 681 l 601 199 q 596 144 596 169 q 610 99 596 111 q 661 86 625 86 l 626 -14 q 525 0 567 -14 q 468 86 483 14 q 373 12 426 38 q 256 -14 319 -14 m 297 97 q 400 130 350 97 q 483 227 450 163 q 515 385 515 292 q 474 536 515 489 q 374 583 433 583 q 221 493 282 583 q 160 285 160 403 q 192 152 160 207 q 297 97 225 97 m 483 769 q 347 810 389 769 q 306 906 306 850 q 308 936 306 917 l 419 936 q 418 919 418 931 q 496 856 418 856 q 565 876 533 856 q 603 936 596 896 l 714 936 q 644 817 701 864 q 483 769 586 769 m 519 958 l 517 1014 q 574 1074 574 1033 q 524 1113 574 1113 q 483 1105 504 1113 q 439 1088 461 1097 l 428 1158 q 540 1183 481 1183 q 623 1159 590 1183 q 656 1090 656 1135 q 617 1003 656 1036 q 519 958 579 971 z "},"ẵ":{"ha":750,"x_min":29,"x_max":768,"o":"m 256 -14 q 91 61 153 -14 q 29 258 29 136 q 76 468 29 368 q 203 631 122 568 q 388 694 283 694 q 475 678 431 694 q 546 608 519 661 l 572 681 l 683 681 l 601 199 q 596 144 596 169 q 610 99 596 111 q 661 86 625 86 l 626 -14 q 525 0 567 -14 q 468 86 483 14 q 373 12 426 38 q 256 -14 319 -14 m 297 97 q 400 130 350 97 q 483 227 450 163 q 515 385 515 292 q 474 536 515 489 q 374 583 433 583 q 221 493 282 583 q 160 285 160 403 q 192 152 160 207 q 297 97 225 97 m 479 769 q 344 810 386 769 q 301 906 301 850 q 304 936 301 917 l 415 936 q 414 919 414 931 q 492 856 414 856 q 560 876 529 856 q 599 936 592 896 l 710 936 q 640 817 697 864 q 479 769 582 769 m 638 1001 q 542 1028 593 1001 q 456 1056 490 1056 q 408 1008 413 1056 l 318 1008 q 446 1147 342 1147 q 542 1120 493 1147 q 631 1093 592 1093 q 678 1140 671 1093 l 768 1140 q 638 1001 747 1001 z "},"â":{"ha":750,"x_min":29,"x_max":683,"o":"m 256 -14 q 91 61 153 -14 q 29 258 29 136 q 76 468 29 368 q 203 631 122 568 q 388 694 283 694 q 475 678 431 694 q 546 608 519 661 l 572 681 l 683 681 l 601 199 q 596 144 596 169 q 610 99 596 111 q 661 86 625 86 l 626 -14 q 525 0 567 -14 q 468 86 483 14 q 373 12 426 38 q 256 -14 319 -14 m 297 97 q 400 130 350 97 q 483 227 450 163 q 515 385 515 292 q 474 536 515 489 q 374 583 433 583 q 221 493 282 583 q 160 285 160 403 q 192 152 160 207 q 297 97 225 97 m 314 797 l 335 886 l 513 1021 l 658 868 l 642 783 l 488 894 l 314 797 z "},"ấ":{"ha":750,"x_min":29,"x_max":831,"o":"m 256 -14 q 91 61 153 -14 q 29 258 29 136 q 76 468 29 368 q 203 631 122 568 q 388 694 283 694 q 475 678 431 694 q 546 608 519 661 l 572 681 l 683 681 l 601 199 q 596 144 596 169 q 610 99 596 111 q 661 86 625 86 l 626 -14 q 525 0 567 -14 q 468 86 483 14 q 373 12 426 38 q 256 -14 319 -14 m 297 97 q 400 130 350 97 q 483 227 450 163 q 515 385 515 292 q 474 536 515 489 q 374 583 433 583 q 221 493 282 583 q 160 285 160 403 q 192 152 160 207 q 297 97 225 97 m 636 754 l 475 846 l 315 771 l 329 856 l 496 964 l 650 839 l 636 754 m 583 957 l 697 1113 l 831 1113 l 672 957 l 583 957 z "},"ậ":{"ha":750,"x_min":29,"x_max":683,"o":"m 256 -14 q 91 61 153 -14 q 29 258 29 136 q 76 468 29 368 q 203 631 122 568 q 388 694 283 694 q 475 678 431 694 q 546 608 519 661 l 572 681 l 683 681 l 601 199 q 596 144 596 169 q 610 99 596 111 q 661 86 625 86 l 626 -14 q 525 0 567 -14 q 468 86 483 14 q 373 12 426 38 q 256 -14 319 -14 m 297 97 q 400 130 350 97 q 483 227 450 163 q 515 385 515 292 q 474 536 515 489 q 374 583 433 583 q 221 493 282 583 q 160 285 160 403 q 192 152 160 207 q 297 97 225 97 m 314 797 l 335 886 l 513 1021 l 658 868 l 642 783 l 488 894 l 314 797 z "},"ầ":{"ha":750,"x_min":29,"x_max":683,"o":"m 256 -14 q 91 61 153 -14 q 29 258 29 136 q 76 468 29 368 q 203 631 122 568 q 388 694 283 694 q 475 678 431 694 q 546 608 519 661 l 572 681 l 683 681 l 601 199 q 596 144 596 169 q 610 99 596 111 q 661 86 625 86 l 626 -14 q 525 0 567 -14 q 468 86 483 14 q 373 12 426 38 q 256 -14 319 -14 m 297 97 q 400 130 350 97 q 483 227 450 163 q 515 385 515 292 q 474 536 515 489 q 374 583 433 583 q 221 493 282 583 q 160 285 160 403 q 192 152 160 207 q 297 97 225 97 m 636 754 l 475 846 l 315 771 l 329 856 l 496 964 l 650 839 l 636 754 m 575 957 l 482 1119 l 614 1119 l 664 957 l 575 957 z "},"ẩ":{"ha":750,"x_min":29,"x_max":744,"o":"m 256 -14 q 91 61 153 -14 q 29 258 29 136 q 76 468 29 368 q 203 631 122 568 q 388 694 283 694 q 475 678 431 694 q 546 608 519 661 l 572 681 l 683 681 l 601 199 q 596 144 596 169 q 610 99 596 111 q 661 86 625 86 l 626 -14 q 525 0 567 -14 q 468 86 483 14 q 373 12 426 38 q 256 -14 319 -14 m 297 97 q 400 130 350 97 q 483 227 450 163 q 515 385 515 292 q 474 536 515 489 q 374 583 433 583 q 221 493 282 583 q 160 285 160 403 q 192 152 160 207 q 297 97 225 97 m 636 754 l 475 846 l 315 771 l 329 856 l 496 964 l 650 839 l 636 754 m 608 919 l 606 975 q 663 1035 663 994 q 613 1074 663 1074 q 572 1066 593 1074 q 528 1049 550 1058 l 517 1119 q 629 1144 569 1144 q 712 1120 679 1144 q 744 1051 744 1096 q 706 965 744 997 q 608 919 668 932 z "},"ẫ":{"ha":750,"x_min":29,"x_max":744,"o":"m 256 -14 q 91 61 153 -14 q 29 258 29 136 q 76 468 29 368 q 203 631 122 568 q 388 694 283 694 q 475 678 431 694 q 546 608 519 661 l 572 681 l 683 681 l 601 199 q 596 144 596 169 q 610 99 596 111 q 661 86 625 86 l 626 -14 q 525 0 567 -14 q 468 86 483 14 q 373 12 426 38 q 256 -14 319 -14 m 297 97 q 400 130 350 97 q 483 227 450 163 q 515 385 515 292 q 474 536 515 489 q 374 583 433 583 q 221 493 282 583 q 160 285 160 403 q 192 152 160 207 q 297 97 225 97 m 636 754 l 475 846 l 315 771 l 329 856 l 496 964 l 650 839 l 636 754 m 614 1007 q 518 1034 569 1007 q 432 1061 467 1061 q 385 1014 389 1061 l 294 1014 q 422 1153 318 1153 q 519 1126 469 1153 q 607 1099 568 1099 q 654 1146 647 1099 l 744 1146 q 614 1007 724 1007 z "},"ȁ":{"ha":750,"x_min":29,"x_max":683,"o":"m 256 -14 q 91 61 153 -14 q 29 258 29 136 q 76 468 29 368 q 203 631 122 568 q 388 694 283 694 q 475 678 431 694 q 546 608 519 661 l 572 681 l 683 681 l 601 199 q 596 144 596 169 q 610 99 596 111 q 661 86 625 86 l 626 -14 q 525 0 567 -14 q 468 86 483 14 q 373 12 426 38 q 256 -14 319 -14 m 297 97 q 400 130 350 97 q 483 227 450 163 q 515 385 515 292 q 474 536 515 489 q 374 583 433 583 q 221 493 282 583 q 160 285 160 403 q 192 152 160 207 q 297 97 225 97 m 610 803 l 518 803 l 424 1035 l 560 1035 l 610 803 m 417 803 l 325 803 l 224 1035 l 360 1035 l 417 803 z "},"ä":{"ha":750,"x_min":29,"x_max":683,"o":"m 256 -14 q 91 61 153 -14 q 29 258 29 136 q 76 468 29 368 q 203 631 122 568 q 388 694 283 694 q 475 678 431 694 q 546 608 519 661 l 572 681 l 683 681 l 601 199 q 596 144 596 169 q 610 99 596 111 q 661 86 625 86 l 626 -14 q 525 0 567 -14 q 468 86 483 14 q 373 12 426 38 q 256 -14 319 -14 m 297 97 q 400 130 350 97 q 483 227 450 163 q 515 385 515 292 q 474 536 515 489 q 374 583 433 583 q 221 493 282 583 q 160 285 160 403 q 192 152 160 207 q 297 97 225 97 z "},"ạ":{"ha":750,"x_min":29,"x_max":683,"o":"m 256 -14 q 91 61 153 -14 q 29 258 29 136 q 76 468 29 368 q 203 631 122 568 q 388 694 283 694 q 475 678 431 694 q 546 608 519 661 l 572 681 l 683 681 l 601 199 q 596 144 596 169 q 610 99 596 111 q 661 86 625 86 l 626 -14 q 525 0 567 -14 q 468 86 483 14 q 373 12 426 38 q 256 -14 319 -14 m 297 97 q 400 130 350 97 q 483 227 450 163 q 515 385 515 292 q 474 536 515 489 q 374 583 433 583 q 221 493 282 583 q 160 285 160 403 q 192 152 160 207 q 297 97 225 97 z "},"à":{"ha":750,"x_min":29,"x_max":683,"o":"m 256 -14 q 91 61 153 -14 q 29 258 29 136 q 76 468 29 368 q 203 631 122 568 q 388 694 283 694 q 475 678 431 694 q 546 608 519 661 l 572 681 l 683 681 l 601 199 q 596 144 596 169 q 610 99 596 111 q 661 86 625 86 l 626 -14 q 525 0 567 -14 q 468 86 483 14 q 373 12 426 38 q 256 -14 319 -14 m 297 97 q 400 130 350 97 q 483 227 450 163 q 515 385 515 292 q 474 536 515 489 q 374 583 433 583 q 221 493 282 583 q 160 285 160 403 q 192 152 160 207 q 297 97 225 97 m 589 800 l 360 896 l 383 1032 l 604 885 l 589 800 z "},"ả":{"ha":750,"x_min":29,"x_max":683,"o":"m 256 -14 q 91 61 153 -14 q 29 258 29 136 q 76 468 29 368 q 203 631 122 568 q 388 694 283 694 q 475 678 431 694 q 546 608 519 661 l 572 681 l 683 681 l 601 199 q 596 144 596 169 q 610 99 596 111 q 661 86 625 86 l 626 -14 q 525 0 567 -14 q 468 86 483 14 q 373 12 426 38 q 256 -14 319 -14 m 297 97 q 400 130 350 97 q 483 227 450 163 q 515 385 515 292 q 474 536 515 489 q 374 583 433 583 q 221 493 282 583 q 160 285 160 403 q 192 152 160 207 q 297 97 225 97 m 438 775 q 495 826 472 803 q 518 881 518 850 q 469 918 518 918 q 424 910 447 918 q 378 892 401 903 l 367 963 q 483 989 422 989 q 567 965 535 989 q 601 896 600 940 q 565 803 601 842 q 476 729 529 764 l 438 775 z "},"ȃ":{"ha":750,"x_min":29,"x_max":683,"o":"m 256 -14 q 91 61 153 -14 q 29 258 29 136 q 76 468 29 368 q 203 631 122 568 q 388 694 283 694 q 475 678 431 694 q 546 608 519 661 l 572 681 l 683 681 l 601 199 q 596 144 596 169 q 610 99 596 111 q 661 86 625 86 l 626 -14 q 525 0 567 -14 q 468 86 483 14 q 373 12 426 38 q 256 -14 319 -14 m 297 97 q 400 130 350 97 q 483 227 450 163 q 515 385 515 292 q 474 536 515 489 q 374 583 433 583 q 221 493 282 583 q 160 285 160 403 q 192 152 160 207 q 297 97 225 97 m 494 976 q 628 934 586 976 q 669 832 669 892 q 667 800 669 822 l 558 800 q 560 818 560 806 q 482 885 560 885 q 413 864 444 885 q 375 800 382 843 l 261 800 q 331 923 272 869 q 494 976 390 976 z "},"ā":{"ha":750,"x_min":29,"x_max":710,"o":"m 256 -14 q 91 61 153 -14 q 29 258 29 136 q 76 468 29 368 q 203 631 122 568 q 388 694 283 694 q 475 678 431 694 q 546 608 519 661 l 572 681 l 683 681 l 601 199 q 596 144 596 169 q 610 99 596 111 q 661 86 625 86 l 626 -14 q 525 0 567 -14 q 468 86 483 14 q 373 12 426 38 q 256 -14 319 -14 m 297 97 q 400 130 350 97 q 483 227 450 163 q 515 385 515 292 q 474 536 515 489 q 374 583 433 583 q 221 493 282 583 q 160 285 160 403 q 192 152 160 207 q 297 97 225 97 m 257 821 l 276 919 l 710 919 l 690 821 l 257 821 z "},"ą":{"ha":750,"x_min":29,"x_max":683,"o":"m 256 -14 q 91 61 153 -14 q 29 258 29 136 q 76 468 29 368 q 203 631 122 568 q 388 694 283 694 q 475 678 431 694 q 546 608 519 661 l 572 681 l 683 681 l 601 199 q 596 144 596 169 q 610 99 596 111 q 661 86 625 86 l 626 -14 q 525 0 567 -14 q 468 86 483 14 q 373 12 426 38 q 256 -14 319 -14 m 297 97 q 400 130 350 97 q 483 227 450 163 q 515 385 515 292 q 474 536 515 489 q 374 583 433 583 q 221 493 282 583 q 160 285 160 403 q 192 152 160 207 q 297 97 225 97 m 529 0 l 603 0 q 510 -76 551 -36 q 468 -165 468 -115 q 519 -218 468 -218 q 603 -194 560 -218 l 611 -262 q 563 -281 592 -272 q 500 -289 535 -289 q 417 -265 450 -289 q 382 -193 383 -240 q 428 -82 382 -135 q 529 0 474 -29 z "},"å":{"ha":750,"x_min":29,"x_max":683,"o":"m 256 -14 q 91 61 153 -14 q 29 258 29 136 q 76 468 29 368 q 203 631 122 568 q 388 694 283 694 q 475 678 431 694 q 546 608 519 661 l 572 681 l 683 681 l 601 199 q 596 144 596 169 q 610 99 596 111 q 661 86 625 86 l 626 -14 q 525 0 567 -14 q 468 86 483 14 q 373 12 426 38 q 256 -14 319 -14 m 297 97 q 400 130 350 97 q 483 227 450 163 q 515 385 515 292 q 474 536 515 489 q 374 583 433 583 q 221 493 282 583 q 160 285 160 403 q 192 152 160 207 q 297 97 225 97 m 465 789 q 374 822 404 789 q 344 899 344 854 q 395 1017 344 968 q 515 1067 446 1067 q 606 1034 576 1067 q 636 957 636 1001 q 587 838 636 888 q 465 789 538 789 m 475 850 q 537 878 510 850 q 564 943 564 906 q 506 1006 564 1006 q 444 977 471 1006 q 417 911 417 949 q 475 850 417 850 z "},"ǻ":{"ha":750,"x_min":29,"x_max":683,"o":"m 256 -14 q 91 61 153 -14 q 29 258 29 136 q 76 468 29 368 q 203 631 122 568 q 388 694 283 694 q 475 678 431 694 q 546 608 519 661 l 572 681 l 683 681 l 601 199 q 596 144 596 169 q 610 99 596 111 q 661 86 625 86 l 626 -14 q 525 0 567 -14 q 468 86 483 14 q 373 12 426 38 q 256 -14 319 -14 m 297 97 q 400 130 350 97 q 483 227 450 163 q 515 385 515 292 q 474 536 515 489 q 374 583 433 583 q 221 493 282 583 q 160 285 160 403 q 192 152 160 207 q 297 97 225 97 m 463 758 q 372 791 401 758 q 342 869 342 824 q 390 983 342 935 q 504 1031 438 1031 q 595 997 565 1031 q 625 919 625 964 q 578 806 625 853 q 463 758 532 758 m 469 819 q 529 846 504 819 q 554 910 554 872 q 497 969 554 969 q 438 943 464 969 q 413 881 413 917 q 469 819 413 819 m 410 1076 l 421 1165 l 658 1297 l 639 1157 l 410 1076 z "},"ã":{"ha":750,"x_min":29,"x_max":721,"o":"m 256 -14 q 91 61 153 -14 q 29 258 29 136 q 76 468 29 368 q 203 631 122 568 q 388 694 283 694 q 475 678 431 694 q 546 608 519 661 l 572 681 l 683 681 l 601 199 q 596 144 596 169 q 610 99 596 111 q 661 86 625 86 l 626 -14 q 525 0 567 -14 q 468 86 483 14 q 373 12 426 38 q 256 -14 319 -14 m 297 97 q 400 130 350 97 q 483 227 450 163 q 515 385 515 292 q 474 536 515 489 q 374 583 433 583 q 221 493 282 583 q 160 285 160 403 q 192 152 160 207 q 297 97 225 97 m 579 806 q 488 836 535 806 q 404 867 442 867 q 351 817 363 867 l 251 817 q 397 971 288 971 q 485 940 444 971 q 568 910 525 910 q 621 964 611 910 l 721 964 q 579 806 685 806 z "},"æ":{"ha":1011,"x_min":-11,"x_max":976,"o":"m 154 -19 q 30 21 71 -19 q -11 129 -11 61 q 31 276 -11 219 q 140 365 74 333 q 278 409 206 396 q 408 426 350 422 q 388 547 408 510 q 299 583 367 583 q 219 573 258 583 q 133 543 181 563 l 139 640 q 354 694 256 694 q 463 664 406 694 q 519 528 519 633 q 631 658 558 621 q 778 694 703 694 q 923 638 869 694 q 976 476 976 582 q 969 404 976 436 q 950 340 961 372 l 538 340 q 534 306 536 322 q 532 275 532 290 q 576 133 532 181 q 690 86 621 86 q 779 100 735 86 q 875 138 824 114 l 875 42 q 776 3 828 19 q 660 -14 724 -14 q 513 22 569 -14 q 436 143 456 58 q 314 21 388 61 q 154 -19 240 -19 m 200 86 q 315 128 254 86 q 393 275 375 169 q 397 306 394 289 q 403 340 400 322 q 281 323 346 340 q 169 265 215 306 q 122 156 122 225 q 200 86 122 86 m 561 426 l 854 426 q 860 483 860 454 q 832 560 858 536 q 753 583 806 583 q 642 547 692 583 q 561 426 592 510 z "},"ǽ":{"ha":1011,"x_min":-11,"x_max":976,"o":"m 154 -19 q 30 21 71 -19 q -11 129 -11 61 q 31 276 -11 219 q 140 365 74 333 q 278 409 206 396 q 408 426 350 422 q 388 547 408 510 q 299 583 367 583 q 219 573 258 583 q 133 543 181 563 l 139 640 q 354 694 256 694 q 463 664 406 694 q 519 528 519 633 q 631 658 558 621 q 778 694 703 694 q 923 638 869 694 q 976 476 976 582 q 969 404 976 436 q 950 340 961 372 l 538 340 q 534 306 536 322 q 532 275 532 290 q 576 133 532 181 q 690 86 621 86 q 779 100 735 86 q 875 138 824 114 l 875 42 q 776 3 828 19 q 660 -14 724 -14 q 513 22 569 -14 q 436 143 456 58 q 314 21 388 61 q 154 -19 240 -19 m 200 86 q 315 128 254 86 q 393 275 375 169 q 397 306 394 289 q 403 340 400 322 q 281 323 346 340 q 169 265 215 306 q 122 156 122 225 q 200 86 122 86 m 561 426 l 854 426 q 860 483 860 454 q 832 560 858 536 q 753 583 806 583 q 642 547 692 583 q 561 426 592 510 m 468 799 l 485 893 l 739 1038 l 715 883 l 468 799 z "},"b":{"ha":722,"x_min":14,"x_max":669,"o":"m 342 -14 q 153 86 211 -14 l 128 0 l 14 0 l 197 1042 l 324 1042 l 247 607 q 344 677 293 660 q 438 694 396 694 q 612 609 554 694 q 669 408 669 524 q 623 178 669 272 q 502 35 576 83 q 342 -14 428 -14 m 335 97 q 481 183 424 97 q 539 396 539 269 q 506 530 539 476 q 403 583 472 583 q 253 503 321 583 q 186 283 186 422 q 228 140 186 182 q 335 97 271 97 z "},"c":{"ha":581,"x_min":32,"x_max":588,"o":"m 292 -14 q 92 71 151 -14 q 32 276 32 156 q 75 480 32 385 q 203 635 118 575 q 415 694 289 694 q 513 683 467 694 q 588 654 560 672 l 551 542 q 485 572 519 561 q 415 583 451 583 q 225 499 289 583 q 161 294 161 414 q 203 148 161 200 q 332 96 244 96 q 482 138 403 96 l 478 31 q 400 0 447 14 q 292 -14 353 -14 z "},"ć":{"ha":581,"x_min":32,"x_max":606,"o":"m 292 -14 q 92 71 151 -14 q 32 276 32 156 q 75 480 32 385 q 203 635 118 575 q 415 694 289 694 q 513 683 467 694 q 588 654 560 672 l 551 542 q 485 572 519 561 q 415 583 451 583 q 225 499 289 583 q 161 294 161 414 q 203 148 161 200 q 332 96 244 96 q 482 138 403 96 l 478 31 q 400 0 447 14 q 292 -14 353 -14 m 335 799 l 351 893 l 606 1038 l 582 883 l 335 799 z "},"č":{"ha":581,"x_min":32,"x_max":660,"o":"m 292 -14 q 92 71 151 -14 q 32 276 32 156 q 75 480 32 385 q 203 635 118 575 q 415 694 289 694 q 513 683 467 694 q 588 654 560 672 l 551 542 q 485 572 519 561 q 415 583 451 583 q 225 499 289 583 q 161 294 161 414 q 203 148 161 200 q 332 96 244 96 q 482 138 403 96 l 478 31 q 400 0 447 14 q 292 -14 353 -14 m 446 775 l 300 928 l 317 1013 l 471 901 l 660 1013 l 643 908 l 446 775 z "},"ç":{"ha":581,"x_min":32,"x_max":588,"o":"m 292 -14 q 92 71 151 -14 q 32 276 32 156 q 75 480 32 385 q 203 635 118 575 q 415 694 289 694 q 513 683 467 694 q 588 654 560 672 l 551 542 q 485 572 519 561 q 415 583 451 583 q 225 499 289 583 q 161 294 161 414 q 203 148 161 200 q 332 96 244 96 q 482 138 403 96 l 478 31 q 400 0 447 14 q 292 -14 353 -14 m 278 -110 l 236 -89 q 306 -75 275 -75 q 410 -167 410 -75 q 360 -272 410 -231 q 238 -314 310 -314 q 176 -306 201 -314 q 133 -287 151 -297 l 167 -219 q 206 -237 185 -231 q 250 -243 226 -243 q 328 -182 328 -243 q 267 -135 328 -135 q 200 -146 233 -135 l 263 0 l 332 0 l 278 -110 z "},"ḉ":{"ha":581,"x_min":32,"x_max":606,"o":"m 292 -14 q 92 71 151 -14 q 32 276 32 156 q 75 480 32 385 q 203 635 118 575 q 415 694 289 694 q 513 683 467 694 q 588 654 560 672 l 551 542 q 485 572 519 561 q 415 583 451 583 q 225 499 289 583 q 161 294 161 414 q 203 148 161 200 q 332 96 244 96 q 482 138 403 96 l 478 31 q 400 0 447 14 q 292 -14 353 -14 m 278 -110 l 236 -89 q 306 -75 275 -75 q 410 -167 410 -75 q 360 -272 410 -231 q 238 -314 310 -314 q 176 -306 201 -314 q 133 -287 151 -297 l 167 -219 q 206 -237 185 -231 q 250 -243 226 -243 q 328 -182 328 -243 q 267 -135 328 -135 q 200 -146 233 -135 l 263 0 l 332 0 l 278 -110 m 335 799 l 351 893 l 606 1038 l 582 883 l 335 799 z "},"ĉ":{"ha":581,"x_min":32,"x_max":640,"o":"m 292 -14 q 92 71 151 -14 q 32 276 32 156 q 75 480 32 385 q 203 635 118 575 q 415 694 289 694 q 513 683 467 694 q 588 654 560 672 l 551 542 q 485 572 519 561 q 415 583 451 583 q 225 499 289 583 q 161 294 161 414 q 203 148 161 200 q 332 96 244 96 q 482 138 403 96 l 478 31 q 400 0 447 14 q 292 -14 353 -14 m 296 797 l 317 886 l 494 1021 l 640 868 l 624 783 l 469 894 l 296 797 z "},"ċ":{"ha":581,"x_min":32,"x_max":588,"o":"m 292 -14 q 92 71 151 -14 q 32 276 32 156 q 75 480 32 385 q 203 635 118 575 q 415 694 289 694 q 513 683 467 694 q 588 654 560 672 l 551 542 q 485 572 519 561 q 415 583 451 583 q 225 499 289 583 q 161 294 161 414 q 203 148 161 200 q 332 96 244 96 q 482 138 403 96 l 478 31 q 400 0 447 14 q 292 -14 353 -14 m 390 821 l 415 946 l 543 946 l 518 821 l 390 821 z "},"d":{"ha":722,"x_min":29,"x_max":749,"o":"m 256 -14 q 91 68 153 -14 q 29 274 29 150 q 74 476 29 379 q 196 633 118 572 q 374 694 274 694 q 490 661 446 694 q 565 560 533 628 l 536 550 l 622 1042 l 749 1042 l 565 0 l 450 0 l 456 86 q 256 -14 368 -14 m 297 97 q 446 171 376 97 q 515 385 515 244 q 474 536 515 489 q 374 583 433 583 q 221 493 282 583 q 160 285 160 403 q 192 152 160 207 q 297 97 225 97 z "},"ð":{"ha":676,"x_min":14,"x_max":633,"o":"m 263 -17 q 78 56 142 -17 q 14 236 14 129 q 103 486 14 381 q 326 592 192 592 q 429 566 392 592 q 486 515 467 540 q 426 760 486 658 q 257 915 365 863 l 301 974 q 533 791 450 924 q 615 475 615 658 q 513 115 615 247 q 263 -17 411 -17 m 274 99 q 401 166 349 99 q 453 331 453 233 q 423 435 453 394 q 336 476 393 476 q 201 410 253 476 q 149 256 149 344 q 180 144 149 190 q 274 99 211 99 m 249 701 l 213 779 l 599 943 l 633 865 l 249 701 z "},"ď":{"ha":794,"x_min":29,"x_max":933,"o":"m 256 -14 q 91 68 153 -14 q 29 274 29 150 q 74 476 29 379 q 196 633 118 572 q 374 694 274 694 q 490 661 446 694 q 565 560 533 628 l 536 550 l 622 1042 l 749 1042 l 565 0 l 450 0 l 456 86 q 256 -14 368 -14 m 297 97 q 446 171 376 97 q 515 385 515 244 q 474 536 515 489 q 374 583 433 583 q 221 493 282 583 q 160 285 160 403 q 192 152 160 207 q 297 97 225 97 m 763 810 l 804 1042 l 933 1042 l 853 810 l 763 810 z "},"đ":{"ha":722,"x_min":29,"x_max":808,"o":"m 256 -14 q 91 68 153 -14 q 29 274 29 150 q 74 476 29 379 q 196 633 118 572 q 374 694 274 694 q 490 661 446 694 q 565 560 533 628 l 536 550 l 622 1042 l 749 1042 l 565 0 l 450 0 l 456 86 q 256 -14 368 -14 m 297 97 q 446 171 376 97 q 515 385 515 244 q 474 536 515 489 q 374 583 433 583 q 221 493 282 583 q 160 285 160 403 q 192 152 160 207 q 297 97 225 97 m 394 811 l 411 899 l 808 899 l 792 811 l 394 811 z "},"ḍ":{"ha":722,"x_min":29,"x_max":749,"o":"m 256 -14 q 91 68 153 -14 q 29 274 29 150 q 74 476 29 379 q 196 633 118 572 q 374 694 274 694 q 490 661 446 694 q 565 560 533 628 l 536 550 l 622 1042 l 749 1042 l 565 0 l 450 0 l 456 86 q 256 -14 368 -14 m 297 97 q 446 171 376 97 q 515 385 515 244 q 474 536 515 489 q 374 583 433 583 q 221 493 282 583 q 160 285 160 403 q 192 152 160 207 q 297 97 225 97 z "},"ḏ":{"ha":722,"x_min":29,"x_max":749,"o":"m 256 -14 q 91 68 153 -14 q 29 274 29 150 q 74 476 29 379 q 196 633 118 572 q 374 694 274 694 q 490 661 446 694 q 565 560 533 628 l 536 550 l 622 1042 l 749 1042 l 565 0 l 450 0 l 456 86 q 256 -14 368 -14 m 297 97 q 446 171 376 97 q 515 385 515 244 q 474 536 515 489 q 374 583 433 583 q 221 493 282 583 q 160 285 160 403 q 192 152 160 207 q 297 97 225 97 z "},"ǆ":{"ha":1319,"x_min":29,"x_max":1335,"o":"m 256 -14 q 91 68 153 -14 q 29 274 29 150 q 74 476 29 379 q 196 633 118 572 q 374 694 274 694 q 490 661 446 694 q 565 560 533 628 l 536 550 l 622 1042 l 749 1042 l 565 0 l 450 0 l 456 86 q 256 -14 368 -14 m 297 97 q 446 171 376 97 q 515 385 515 244 q 474 536 515 489 q 374 583 433 583 q 221 493 282 583 q 160 285 160 403 q 192 152 160 207 q 297 97 225 97 z "},"e":{"ha":636,"x_min":29,"x_max":603,"o":"m 307 -14 q 97 72 165 -14 q 29 281 29 157 q 76 483 29 389 q 206 636 122 578 q 400 694 289 694 q 551 646 499 694 q 603 521 603 597 q 536 368 603 444 q 286 292 469 292 q 213 296 249 292 q 164 303 178 300 q 215 139 164 181 q 340 97 267 97 q 432 107 381 97 q 528 138 483 117 l 522 39 q 428 1 483 17 q 307 -14 374 -14 m 275 376 q 444 420 400 376 q 488 506 488 464 q 458 565 488 547 q 388 583 428 583 q 268 538 322 583 q 178 390 214 492 q 217 381 193 385 q 275 376 240 376 z "},"é":{"ha":636,"x_min":29,"x_max":603,"o":"m 307 -14 q 97 72 165 -14 q 29 281 29 157 q 76 483 29 389 q 206 636 122 578 q 400 694 289 694 q 551 646 499 694 q 603 521 603 597 q 536 368 603 444 q 286 292 469 292 q 213 296 249 292 q 164 303 178 300 q 215 139 164 181 q 340 97 267 97 q 432 107 381 97 q 528 138 483 117 l 522 39 q 428 1 483 17 q 307 -14 374 -14 m 275 376 q 444 420 400 376 q 488 506 488 464 q 458 565 488 547 q 388 583 428 583 q 268 538 322 583 q 178 390 214 492 q 217 381 193 385 q 275 376 240 376 m 319 799 l 336 893 l 590 1038 l 567 883 l 319 799 z "},"ĕ":{"ha":636,"x_min":29,"x_max":671,"o":"m 307 -14 q 97 72 165 -14 q 29 281 29 157 q 76 483 29 389 q 206 636 122 578 q 400 694 289 694 q 551 646 499 694 q 603 521 603 597 q 536 368 603 444 q 286 292 469 292 q 213 296 249 292 q 164 303 178 300 q 215 139 164 181 q 340 97 267 97 q 432 107 381 97 q 528 138 483 117 l 522 39 q 428 1 483 17 q 307 -14 374 -14 m 275 376 q 444 420 400 376 q 488 506 488 464 q 458 565 488 547 q 388 583 428 583 q 268 538 322 583 q 178 390 214 492 q 217 381 193 385 q 275 376 240 376 m 443 800 q 312 842 353 800 q 271 940 271 883 q 276 976 271 960 l 385 976 q 381 953 381 967 q 454 892 381 892 q 519 913 490 892 q 556 976 549 933 l 671 976 q 602 851 660 903 q 443 800 544 800 z "},"ě":{"ha":636,"x_min":29,"x_max":644,"o":"m 307 -14 q 97 72 165 -14 q 29 281 29 157 q 76 483 29 389 q 206 636 122 578 q 400 694 289 694 q 551 646 499 694 q 603 521 603 597 q 536 368 603 444 q 286 292 469 292 q 213 296 249 292 q 164 303 178 300 q 215 139 164 181 q 340 97 267 97 q 432 107 381 97 q 528 138 483 117 l 522 39 q 428 1 483 17 q 307 -14 374 -14 m 275 376 q 444 420 400 376 q 488 506 488 464 q 458 565 488 547 q 388 583 428 583 q 268 538 322 583 q 178 390 214 492 q 217 381 193 385 q 275 376 240 376 m 431 775 l 285 928 l 301 1013 l 456 901 l 644 1013 l 628 908 l 431 775 z "},"ḝ":{"ha":636,"x_min":29,"x_max":671,"o":"m 307 -14 q 97 72 165 -14 q 29 281 29 157 q 76 483 29 389 q 206 636 122 578 q 400 694 289 694 q 551 646 499 694 q 603 521 603 597 q 536 368 603 444 q 286 292 469 292 q 213 296 249 292 q 164 303 178 300 q 215 139 164 181 q 340 97 267 97 q 432 107 381 97 q 528 138 483 117 l 522 39 q 428 1 483 17 q 307 -14 374 -14 m 275 376 q 444 420 400 376 q 488 506 488 464 q 458 565 488 547 q 388 583 428 583 q 268 538 322 583 q 178 390 214 492 q 217 381 193 385 q 275 376 240 376 m 308 -110 l 267 -89 q 336 -75 306 -75 q 440 -167 440 -75 q 390 -272 440 -231 q 268 -314 340 -314 q 207 -306 232 -314 q 164 -287 182 -297 l 197 -219 q 236 -237 215 -231 q 281 -243 257 -243 q 358 -182 358 -243 q 297 -135 358 -135 q 231 -146 264 -135 l 293 0 l 363 0 l 308 -110 m 443 800 q 312 842 353 800 q 271 940 271 883 q 276 976 271 960 l 385 976 q 381 953 381 967 q 454 892 381 892 q 519 913 490 892 q 556 976 549 933 l 671 976 q 602 851 660 903 q 443 800 544 800 z "},"ê":{"ha":636,"x_min":29,"x_max":625,"o":"m 307 -14 q 97 72 165 -14 q 29 281 29 157 q 76 483 29 389 q 206 636 122 578 q 400 694 289 694 q 551 646 499 694 q 603 521 603 597 q 536 368 603 444 q 286 292 469 292 q 213 296 249 292 q 164 303 178 300 q 215 139 164 181 q 340 97 267 97 q 432 107 381 97 q 528 138 483 117 l 522 39 q 428 1 483 17 q 307 -14 374 -14 m 275 376 q 444 420 400 376 q 488 506 488 464 q 458 565 488 547 q 388 583 428 583 q 268 538 322 583 q 178 390 214 492 q 217 381 193 385 q 275 376 240 376 m 281 797 l 301 886 l 479 1021 l 625 868 l 608 783 l 454 894 l 281 797 z "},"ế":{"ha":636,"x_min":29,"x_max":797,"o":"m 307 -14 q 97 72 165 -14 q 29 281 29 157 q 76 483 29 389 q 206 636 122 578 q 400 694 289 694 q 551 646 499 694 q 603 521 603 597 q 536 368 603 444 q 286 292 469 292 q 213 296 249 292 q 164 303 178 300 q 215 139 164 181 q 340 97 267 97 q 432 107 381 97 q 528 138 483 117 l 522 39 q 428 1 483 17 q 307 -14 374 -14 m 275 376 q 444 420 400 376 q 488 506 488 464 q 458 565 488 547 q 388 583 428 583 q 268 538 322 583 q 178 390 214 492 q 217 381 193 385 q 275 376 240 376 m 603 754 l 442 846 l 282 771 l 296 856 l 463 964 l 617 839 l 603 754 m 550 957 l 664 1113 l 797 1113 l 639 957 l 550 957 z "},"ệ":{"ha":636,"x_min":29,"x_max":625,"o":"m 307 -14 q 97 72 165 -14 q 29 281 29 157 q 76 483 29 389 q 206 636 122 578 q 400 694 289 694 q 551 646 499 694 q 603 521 603 597 q 536 368 603 444 q 286 292 469 292 q 213 296 249 292 q 164 303 178 300 q 215 139 164 181 q 340 97 267 97 q 432 107 381 97 q 528 138 483 117 l 522 39 q 428 1 483 17 q 307 -14 374 -14 m 275 376 q 444 420 400 376 q 488 506 488 464 q 458 565 488 547 q 388 583 428 583 q 268 538 322 583 q 178 390 214 492 q 217 381 193 385 q 275 376 240 376 m 281 797 l 301 886 l 479 1021 l 625 868 l 608 783 l 454 894 l 281 797 z "},"ề":{"ha":636,"x_min":29,"x_max":631,"o":"m 307 -14 q 97 72 165 -14 q 29 281 29 157 q 76 483 29 389 q 206 636 122 578 q 400 694 289 694 q 551 646 499 694 q 603 521 603 597 q 536 368 603 444 q 286 292 469 292 q 213 296 249 292 q 164 303 178 300 q 215 139 164 181 q 340 97 267 97 q 432 107 381 97 q 528 138 483 117 l 522 39 q 428 1 483 17 q 307 -14 374 -14 m 275 376 q 444 420 400 376 q 488 506 488 464 q 458 565 488 547 q 388 583 428 583 q 268 538 322 583 q 178 390 214 492 q 217 381 193 385 q 275 376 240 376 m 603 754 l 442 846 l 282 771 l 296 856 l 463 964 l 617 839 l 603 754 m 542 957 l 449 1119 l 581 1119 l 631 957 l 542 957 z "},"ể":{"ha":636,"x_min":29,"x_max":711,"o":"m 307 -14 q 97 72 165 -14 q 29 281 29 157 q 76 483 29 389 q 206 636 122 578 q 400 694 289 694 q 551 646 499 694 q 603 521 603 597 q 536 368 603 444 q 286 292 469 292 q 213 296 249 292 q 164 303 178 300 q 215 139 164 181 q 340 97 267 97 q 432 107 381 97 q 528 138 483 117 l 522 39 q 428 1 483 17 q 307 -14 374 -14 m 275 376 q 444 420 400 376 q 488 506 488 464 q 458 565 488 547 q 388 583 428 583 q 268 538 322 583 q 178 390 214 492 q 217 381 193 385 q 275 376 240 376 m 603 754 l 442 846 l 282 771 l 296 856 l 463 964 l 617 839 l 603 754 m 575 919 l 572 975 q 629 1035 629 994 q 579 1074 629 1074 q 538 1066 560 1074 q 494 1049 517 1058 l 483 1119 q 596 1144 536 1144 q 678 1120 646 1144 q 711 1051 711 1096 q 673 965 711 997 q 575 919 635 932 z "},"ễ":{"ha":636,"x_min":29,"x_max":711,"o":"m 307 -14 q 97 72 165 -14 q 29 281 29 157 q 76 483 29 389 q 206 636 122 578 q 400 694 289 694 q 551 646 499 694 q 603 521 603 597 q 536 368 603 444 q 286 292 469 292 q 213 296 249 292 q 164 303 178 300 q 215 139 164 181 q 340 97 267 97 q 432 107 381 97 q 528 138 483 117 l 522 39 q 428 1 483 17 q 307 -14 374 -14 m 275 376 q 444 420 400 376 q 488 506 488 464 q 458 565 488 547 q 388 583 428 583 q 268 538 322 583 q 178 390 214 492 q 217 381 193 385 q 275 376 240 376 m 603 754 l 442 846 l 282 771 l 296 856 l 463 964 l 617 839 l 603 754 m 581 1007 q 485 1034 536 1007 q 399 1061 433 1061 q 351 1014 356 1061 l 261 1014 q 389 1153 285 1153 q 485 1126 436 1153 q 574 1099 535 1099 q 621 1146 614 1099 l 711 1146 q 581 1007 690 1007 z "},"ȅ":{"ha":636,"x_min":29,"x_max":603,"o":"m 307 -14 q 97 72 165 -14 q 29 281 29 157 q 76 483 29 389 q 206 636 122 578 q 400 694 289 694 q 551 646 499 694 q 603 521 603 597 q 536 368 603 444 q 286 292 469 292 q 213 296 249 292 q 164 303 178 300 q 215 139 164 181 q 340 97 267 97 q 432 107 381 97 q 528 138 483 117 l 522 39 q 428 1 483 17 q 307 -14 374 -14 m 275 376 q 444 420 400 376 q 488 506 488 464 q 458 565 488 547 q 388 583 428 583 q 268 538 322 583 q 178 390 214 492 q 217 381 193 385 q 275 376 240 376 m 576 803 l 485 803 l 390 1035 l 526 1035 l 576 803 m 383 803 l 292 803 l 190 1035 l 326 1035 l 383 803 z "},"ë":{"ha":636,"x_min":29,"x_max":649,"o":"m 307 -14 q 97 72 165 -14 q 29 281 29 157 q 76 483 29 389 q 206 636 122 578 q 400 694 289 694 q 551 646 499 694 q 603 521 603 597 q 536 368 603 444 q 286 292 469 292 q 213 296 249 292 q 164 303 178 300 q 215 139 164 181 q 340 97 267 97 q 432 107 381 97 q 528 138 483 117 l 522 39 q 428 1 483 17 q 307 -14 374 -14 m 275 376 q 444 420 400 376 q 488 506 488 464 q 458 565 488 547 q 388 583 428 583 q 268 538 322 583 q 178 390 214 492 q 217 381 193 385 q 275 376 240 376 z "},"ė":{"ha":636,"x_min":29,"x_max":603,"o":"m 307 -14 q 97 72 165 -14 q 29 281 29 157 q 76 483 29 389 q 206 636 122 578 q 400 694 289 694 q 551 646 499 694 q 603 521 603 597 q 536 368 603 444 q 286 292 469 292 q 213 296 249 292 q 164 303 178 300 q 215 139 164 181 q 340 97 267 97 q 432 107 381 97 q 528 138 483 117 l 522 39 q 428 1 483 17 q 307 -14 374 -14 m 275 376 q 444 420 400 376 q 488 506 488 464 q 458 565 488 547 q 388 583 428 583 q 268 538 322 583 q 178 390 214 492 q 217 381 193 385 q 275 376 240 376 m 375 821 l 400 946 l 528 946 l 503 821 l 375 821 z "},"ẹ":{"ha":636,"x_min":29,"x_max":603,"o":"m 307 -14 q 97 72 165 -14 q 29 281 29 157 q 76 483 29 389 q 206 636 122 578 q 400 694 289 694 q 551 646 499 694 q 603 521 603 597 q 536 368 603 444 q 286 292 469 292 q 213 296 249 292 q 164 303 178 300 q 215 139 164 181 q 340 97 267 97 q 432 107 381 97 q 528 138 483 117 l 522 39 q 428 1 483 17 q 307 -14 374 -14 m 275 376 q 444 420 400 376 q 488 506 488 464 q 458 565 488 547 q 388 583 428 583 q 268 538 322 583 q 178 390 214 492 q 217 381 193 385 q 275 376 240 376 z "},"è":{"ha":636,"x_min":29,"x_max":603,"o":"m 307 -14 q 97 72 165 -14 q 29 281 29 157 q 76 483 29 389 q 206 636 122 578 q 400 694 289 694 q 551 646 499 694 q 603 521 603 597 q 536 368 603 444 q 286 292 469 292 q 213 296 249 292 q 164 303 178 300 q 215 139 164 181 q 340 97 267 97 q 432 107 381 97 q 528 138 483 117 l 522 39 q 428 1 483 17 q 307 -14 374 -14 m 275 376 q 444 420 400 376 q 488 506 488 464 q 458 565 488 547 q 388 583 428 583 q 268 538 322 583 q 178 390 214 492 q 217 381 193 385 q 275 376 240 376 m 556 800 l 326 896 l 350 1032 l 571 885 l 556 800 z "},"ẻ":{"ha":636,"x_min":29,"x_max":603,"o":"m 307 -14 q 97 72 165 -14 q 29 281 29 157 q 76 483 29 389 q 206 636 122 578 q 400 694 289 694 q 551 646 499 694 q 603 521 603 597 q 536 368 603 444 q 286 292 469 292 q 213 296 249 292 q 164 303 178 300 q 215 139 164 181 q 340 97 267 97 q 432 107 381 97 q 528 138 483 117 l 522 39 q 428 1 483 17 q 307 -14 374 -14 m 275 376 q 444 420 400 376 q 488 506 488 464 q 458 565 488 547 q 388 583 428 583 q 268 538 322 583 q 178 390 214 492 q 217 381 193 385 q 275 376 240 376 m 404 775 q 462 826 439 803 q 485 881 485 850 q 436 918 485 918 q 391 910 414 918 q 344 892 368 903 l 333 963 q 450 989 389 989 q 534 965 501 989 q 568 896 567 940 q 532 803 568 842 q 443 729 496 764 l 404 775 z "},"ȇ":{"ha":636,"x_min":29,"x_max":636,"o":"m 307 -14 q 97 72 165 -14 q 29 281 29 157 q 76 483 29 389 q 206 636 122 578 q 400 694 289 694 q 551 646 499 694 q 603 521 603 597 q 536 368 603 444 q 286 292 469 292 q 213 296 249 292 q 164 303 178 300 q 215 139 164 181 q 340 97 267 97 q 432 107 381 97 q 528 138 483 117 l 522 39 q 428 1 483 17 q 307 -14 374 -14 m 275 376 q 444 420 400 376 q 488 506 488 464 q 458 565 488 547 q 388 583 428 583 q 268 538 322 583 q 178 390 214 492 q 217 381 193 385 q 275 376 240 376 m 461 976 q 594 934 553 976 q 636 832 636 892 q 633 800 636 822 l 525 800 q 526 818 526 806 q 449 885 526 885 q 380 864 411 885 q 342 800 349 843 l 228 800 q 298 923 239 869 q 461 976 357 976 z "},"ē":{"ha":636,"x_min":29,"x_max":676,"o":"m 307 -14 q 97 72 165 -14 q 29 281 29 157 q 76 483 29 389 q 206 636 122 578 q 400 694 289 694 q 551 646 499 694 q 603 521 603 597 q 536 368 603 444 q 286 292 469 292 q 213 296 249 292 q 164 303 178 300 q 215 139 164 181 q 340 97 267 97 q 432 107 381 97 q 528 138 483 117 l 522 39 q 428 1 483 17 q 307 -14 374 -14 m 275 376 q 444 420 400 376 q 488 506 488 464 q 458 565 488 547 q 388 583 428 583 q 268 538 322 583 q 178 390 214 492 q 217 381 193 385 q 275 376 240 376 m 224 821 l 243 919 l 676 919 l 657 821 l 224 821 z "},"ḗ":{"ha":636,"x_min":29,"x_max":671,"o":"m 307 -14 q 97 72 165 -14 q 29 281 29 157 q 76 483 29 389 q 206 636 122 578 q 400 694 289 694 q 551 646 499 694 q 603 521 603 597 q 536 368 603 444 q 286 292 469 292 q 213 296 249 292 q 164 303 178 300 q 215 139 164 181 q 340 97 267 97 q 432 107 381 97 q 528 138 483 117 l 522 39 q 428 1 483 17 q 307 -14 374 -14 m 275 376 q 444 420 400 376 q 488 506 488 464 q 458 565 488 547 q 388 583 428 583 q 268 538 322 583 q 178 390 214 492 q 217 381 193 385 q 275 376 240 376 m 215 810 l 232 904 l 671 904 l 654 810 l 215 810 m 374 981 l 385 1069 l 622 1201 l 603 1061 l 374 981 z "},"ḕ":{"ha":636,"x_min":29,"x_max":671,"o":"m 307 -14 q 97 72 165 -14 q 29 281 29 157 q 76 483 29 389 q 206 636 122 578 q 400 694 289 694 q 551 646 499 694 q 603 521 603 597 q 536 368 603 444 q 286 292 469 292 q 213 296 249 292 q 164 303 178 300 q 215 139 164 181 q 340 97 267 97 q 432 107 381 97 q 528 138 483 117 l 522 39 q 428 1 483 17 q 307 -14 374 -14 m 275 376 q 444 420 400 376 q 488 506 488 464 q 458 565 488 547 q 388 583 428 583 q 268 538 322 583 q 178 390 214 492 q 217 381 193 385 q 275 376 240 376 m 215 810 l 232 904 l 671 904 l 654 810 l 215 810 m 601 981 l 371 1061 l 394 1193 l 617 1061 l 601 981 z "},"ę":{"ha":636,"x_min":29,"x_max":603,"o":"m 307 -14 q 97 72 165 -14 q 29 281 29 157 q 76 483 29 389 q 206 636 122 578 q 400 694 289 694 q 551 646 499 694 q 603 521 603 597 q 536 368 603 444 q 286 292 469 292 q 213 296 249 292 q 164 303 178 300 q 215 139 164 181 q 340 97 267 97 q 432 107 381 97 q 528 138 483 117 l 522 39 q 428 1 483 17 q 307 -14 374 -14 m 275 376 q 444 420 400 376 q 488 506 488 464 q 458 565 488 547 q 388 583 428 583 q 268 538 322 583 q 178 390 214 492 q 217 381 193 385 q 275 376 240 376 m 449 39 l 522 39 q 429 -37 471 3 q 388 -126 388 -76 q 439 -179 388 -179 q 522 -156 479 -179 l 531 -224 q 483 -242 511 -233 q 419 -250 454 -250 q 336 -226 369 -250 q 301 -154 303 -201 q 347 -43 301 -96 q 449 39 393 10 z "},"ẽ":{"ha":636,"x_min":29,"x_max":688,"o":"m 307 -14 q 97 72 165 -14 q 29 281 29 157 q 76 483 29 389 q 206 636 122 578 q 400 694 289 694 q 551 646 499 694 q 603 521 603 597 q 536 368 603 444 q 286 292 469 292 q 213 296 249 292 q 164 303 178 300 q 215 139 164 181 q 340 97 267 97 q 432 107 381 97 q 528 138 483 117 l 522 39 q 428 1 483 17 q 307 -14 374 -14 m 275 376 q 444 420 400 376 q 488 506 488 464 q 458 565 488 547 q 388 583 428 583 q 268 538 322 583 q 178 390 214 492 q 217 381 193 385 q 275 376 240 376 m 546 806 q 455 836 501 806 q 371 867 408 867 q 318 817 329 867 l 218 817 q 364 971 254 971 q 451 940 411 971 q 535 910 492 910 q 588 964 578 910 l 688 964 q 546 806 651 806 z "},"f":{"ha":421,"x_min":47,"x_max":504,"o":"m 47 0 l 150 583 l 50 583 l 81 681 l 167 681 l 197 853 q 256 988 211 935 q 399 1042 300 1042 q 467 1034 439 1042 q 504 1024 496 1026 l 469 918 q 433 928 450 925 q 401 931 415 931 q 343 899 358 931 q 308 764 328 868 l 293 681 l 450 681 l 432 583 l 276 583 l 174 0 l 47 0 z "},"g":{"ha":638,"x_min":-58,"x_max":668,"o":"m 200 -347 q -1 -287 56 -347 q -58 -171 -58 -228 q -31 -79 -58 -135 q 78 11 -4 -24 q 42 50 51 28 q 32 86 32 72 q 52 140 32 107 q 119 199 72 174 q 66 288 81 239 q 51 381 51 336 q 133 597 51 500 q 354 694 214 694 q 499 644 440 694 q 565 672 526 661 q 649 683 604 683 l 668 683 l 642 600 l 604 600 q 578 598 597 600 q 542 590 560 596 q 562 527 556 560 q 568 468 568 494 q 486 257 568 357 q 268 157 404 157 q 188 169 222 157 q 156 124 156 147 q 194 88 156 100 q 322 56 233 75 q 415 30 364 47 q 504 -21 467 13 q 542 -112 542 -54 q 450 -273 542 -199 q 200 -347 358 -347 m 217 -250 q 364 -212 310 -250 q 418 -132 418 -175 q 374 -71 418 -90 q 272 -42 329 -51 q 174 -19 214 -33 q 92 -74 128 -35 q 57 -153 57 -112 q 98 -222 57 -193 q 217 -250 139 -250 m 282 253 q 404 318 358 253 q 450 464 450 383 q 338 594 450 594 q 215 532 260 594 q 169 389 169 469 q 282 253 169 253 z "},"ğ":{"ha":638,"x_min":-58,"x_max":668,"o":"m 200 -347 q -1 -287 56 -347 q -58 -171 -58 -228 q -31 -79 -58 -135 q 78 11 -4 -24 q 42 50 51 28 q 32 86 32 72 q 52 140 32 107 q 119 199 72 174 q 66 288 81 239 q 51 381 51 336 q 133 597 51 500 q 354 694 214 694 q 499 644 440 694 q 565 672 526 661 q 649 683 604 683 l 668 683 l 642 600 l 604 600 q 578 598 597 600 q 542 590 560 596 q 562 527 556 560 q 568 468 568 494 q 486 257 568 357 q 268 157 404 157 q 188 169 222 157 q 156 124 156 147 q 194 88 156 100 q 322 56 233 75 q 415 30 364 47 q 504 -21 467 13 q 542 -112 542 -54 q 450 -273 542 -199 q 200 -347 358 -347 m 217 -250 q 364 -212 310 -250 q 418 -132 418 -175 q 374 -71 418 -90 q 272 -42 329 -51 q 174 -19 214 -33 q 92 -74 128 -35 q 57 -153 57 -112 q 98 -222 57 -193 q 217 -250 139 -250 m 282 253 q 404 318 358 253 q 450 464 450 383 q 338 594 450 594 q 215 532 260 594 q 169 389 169 469 q 282 253 169 253 m 376 800 q 245 842 286 800 q 204 940 204 883 q 210 976 204 960 l 318 976 q 314 953 314 967 q 388 892 314 892 q 453 913 424 892 q 489 976 482 933 l 604 976 q 535 851 593 903 q 376 800 478 800 z "},"ǧ":{"ha":638,"x_min":-58,"x_max":668,"o":"m 200 -347 q -1 -287 56 -347 q -58 -171 -58 -228 q -31 -79 -58 -135 q 78 11 -4 -24 q 42 50 51 28 q 32 86 32 72 q 52 140 32 107 q 119 199 72 174 q 66 288 81 239 q 51 381 51 336 q 133 597 51 500 q 354 694 214 694 q 499 644 440 694 q 565 672 526 661 q 649 683 604 683 l 668 683 l 642 600 l 604 600 q 578 598 597 600 q 542 590 560 596 q 562 527 556 560 q 568 468 568 494 q 486 257 568 357 q 268 157 404 157 q 188 169 222 157 q 156 124 156 147 q 194 88 156 100 q 322 56 233 75 q 415 30 364 47 q 504 -21 467 13 q 542 -112 542 -54 q 450 -273 542 -199 q 200 -347 358 -347 m 217 -250 q 364 -212 310 -250 q 418 -132 418 -175 q 374 -71 418 -90 q 272 -42 329 -51 q 174 -19 214 -33 q 92 -74 128 -35 q 57 -153 57 -112 q 98 -222 57 -193 q 217 -250 139 -250 m 282 253 q 404 318 358 253 q 450 464 450 383 q 338 594 450 594 q 215 532 260 594 q 169 389 169 469 q 282 253 169 253 m 364 775 l 218 928 l 235 1013 l 389 901 l 578 1013 l 561 908 l 364 775 z "},"ĝ":{"ha":638,"x_min":-58,"x_max":668,"o":"m 200 -347 q -1 -287 56 -347 q -58 -171 -58 -228 q -31 -79 -58 -135 q 78 11 -4 -24 q 42 50 51 28 q 32 86 32 72 q 52 140 32 107 q 119 199 72 174 q 66 288 81 239 q 51 381 51 336 q 133 597 51 500 q 354 694 214 694 q 499 644 440 694 q 565 672 526 661 q 649 683 604 683 l 668 683 l 642 600 l 604 600 q 578 598 597 600 q 542 590 560 596 q 562 527 556 560 q 568 468 568 494 q 486 257 568 357 q 268 157 404 157 q 188 169 222 157 q 156 124 156 147 q 194 88 156 100 q 322 56 233 75 q 415 30 364 47 q 504 -21 467 13 q 542 -112 542 -54 q 450 -273 542 -199 q 200 -347 358 -347 m 217 -250 q 364 -212 310 -250 q 418 -132 418 -175 q 374 -71 418 -90 q 272 -42 329 -51 q 174 -19 214 -33 q 92 -74 128 -35 q 57 -153 57 -112 q 98 -222 57 -193 q 217 -250 139 -250 m 282 253 q 404 318 358 253 q 450 464 450 383 q 338 594 450 594 q 215 532 260 594 q 169 389 169 469 q 282 253 169 253 m 214 797 l 235 886 l 413 1021 l 558 868 l 542 783 l 388 894 l 214 797 z "},"ģ":{"ha":638,"x_min":-58,"x_max":668,"o":"m 200 -347 q -1 -287 56 -347 q -58 -171 -58 -228 q -31 -79 -58 -135 q 78 11 -4 -24 q 42 50 51 28 q 32 86 32 72 q 52 140 32 107 q 119 199 72 174 q 66 288 81 239 q 51 381 51 336 q 133 597 51 500 q 354 694 214 694 q 499 644 440 694 q 565 672 526 661 q 649 683 604 683 l 668 683 l 642 600 l 604 600 q 578 598 597 600 q 542 590 560 596 q 562 527 556 560 q 568 468 568 494 q 486 257 568 357 q 268 157 404 157 q 188 169 222 157 q 156 124 156 147 q 194 88 156 100 q 322 56 233 75 q 415 30 364 47 q 504 -21 467 13 q 542 -112 542 -54 q 450 -273 542 -199 q 200 -347 358 -347 m 217 -250 q 364 -212 310 -250 q 418 -132 418 -175 q 374 -71 418 -90 q 272 -42 329 -51 q 174 -19 214 -33 q 92 -74 128 -35 q 57 -153 57 -112 q 98 -222 57 -193 q 217 -250 139 -250 m 282 253 q 404 318 358 253 q 450 464 450 383 q 338 594 450 594 q 215 532 260 594 q 169 389 169 469 q 282 253 169 253 z "},"ġ":{"ha":638,"x_min":-58,"x_max":668,"o":"m 200 -347 q -1 -287 56 -347 q -58 -171 -58 -228 q -31 -79 -58 -135 q 78 11 -4 -24 q 42 50 51 28 q 32 86 32 72 q 52 140 32 107 q 119 199 72 174 q 66 288 81 239 q 51 381 51 336 q 133 597 51 500 q 354 694 214 694 q 499 644 440 694 q 565 672 526 661 q 649 683 604 683 l 668 683 l 642 600 l 604 600 q 578 598 597 600 q 542 590 560 596 q 562 527 556 560 q 568 468 568 494 q 486 257 568 357 q 268 157 404 157 q 188 169 222 157 q 156 124 156 147 q 194 88 156 100 q 322 56 233 75 q 415 30 364 47 q 504 -21 467 13 q 542 -112 542 -54 q 450 -273 542 -199 q 200 -347 358 -347 m 217 -250 q 364 -212 310 -250 q 418 -132 418 -175 q 374 -71 418 -90 q 272 -42 329 -51 q 174 -19 214 -33 q 92 -74 128 -35 q 57 -153 57 -112 q 98 -222 57 -193 q 217 -250 139 -250 m 282 253 q 404 318 358 253 q 450 464 450 383 q 338 594 450 594 q 215 532 260 594 q 169 389 169 469 q 282 253 169 253 m 308 821 l 333 946 l 461 946 l 436 821 l 308 821 z "},"ḡ":{"ha":638,"x_min":-58,"x_max":668,"o":"m 200 -347 q -1 -287 56 -347 q -58 -171 -58 -228 q -31 -79 -58 -135 q 78 11 -4 -24 q 42 50 51 28 q 32 86 32 72 q 52 140 32 107 q 119 199 72 174 q 66 288 81 239 q 51 381 51 336 q 133 597 51 500 q 354 694 214 694 q 499 644 440 694 q 565 672 526 661 q 649 683 604 683 l 668 683 l 642 600 l 604 600 q 578 598 597 600 q 542 590 560 596 q 562 527 556 560 q 568 468 568 494 q 486 257 568 357 q 268 157 404 157 q 188 169 222 157 q 156 124 156 147 q 194 88 156 100 q 322 56 233 75 q 415 30 364 47 q 504 -21 467 13 q 542 -112 542 -54 q 450 -273 542 -199 q 200 -347 358 -347 m 217 -250 q 364 -212 310 -250 q 418 -132 418 -175 q 374 -71 418 -90 q 272 -42 329 -51 q 174 -19 214 -33 q 92 -74 128 -35 q 57 -153 57 -112 q 98 -222 57 -193 q 217 -250 139 -250 m 282 253 q 404 318 358 253 q 450 464 450 383 q 338 594 450 594 q 215 532 260 594 q 169 389 169 469 q 282 253 169 253 m 157 821 l 176 919 l 610 919 l 590 821 l 157 821 z "},"h":{"ha":703,"x_min":14,"x_max":628,"o":"m 14 0 l 197 1042 l 325 1042 l 247 607 q 442 694 328 694 q 583 632 538 694 q 628 483 628 569 q 624 426 628 461 q 613 343 621 392 l 553 0 l 426 0 l 485 340 q 496 413 492 383 q 500 467 500 443 q 390 583 500 583 q 300 558 339 583 q 228 494 261 533 l 140 0 l 14 0 z "},"ħ":{"ha":703,"x_min":14,"x_max":628,"o":"m 14 0 l 197 1042 l 325 1042 l 247 607 q 442 694 328 694 q 583 632 538 694 q 628 483 628 569 q 624 426 628 461 q 613 343 621 392 l 553 0 l 426 0 l 485 340 q 496 413 492 383 q 500 467 500 443 q 390 583 500 583 q 300 558 339 583 q 228 494 261 533 l 140 0 l 14 0 m 72 811 l 89 899 l 486 899 l 469 811 l 72 811 z "},"ḫ":{"ha":703,"x_min":14,"x_max":628,"o":"m 14 0 l 197 1042 l 325 1042 l 247 607 q 442 694 328 694 q 583 632 538 694 q 628 483 628 569 q 624 426 628 461 q 613 343 621 392 l 553 0 l 426 0 l 485 340 q 496 413 492 383 q 500 467 500 443 q 390 583 500 583 q 300 558 339 583 q 228 494 261 533 l 140 0 l 14 0 z "},"ĥ":{"ha":703,"x_min":14,"x_max":628,"o":"m 14 0 l 197 1042 l 325 1042 l 247 607 q 442 694 328 694 q 583 632 538 694 q 628 483 628 569 q 624 426 628 461 q 613 343 621 392 l 553 0 l 426 0 l 485 340 q 496 413 492 383 q 500 467 500 443 q 390 583 500 583 q 300 558 339 583 q 228 494 261 533 l 140 0 l 14 0 m 451 1115 l 290 1207 l 131 1132 l 144 1217 l 311 1325 l 465 1200 l 451 1115 z "},"ḥ":{"ha":703,"x_min":14,"x_max":628,"o":"m 14 0 l 197 1042 l 325 1042 l 247 607 q 442 694 328 694 q 583 632 538 694 q 628 483 628 569 q 624 426 628 461 q 613 343 621 392 l 553 0 l 426 0 l 485 340 q 496 413 492 383 q 500 467 500 443 q 390 583 500 583 q 300 558 339 583 q 228 494 261 533 l 140 0 l 14 0 z "},"i":{"ha":297,"x_min":14,"x_max":311,"o":"m 14 0 l 133 681 l 260 681 l 140 0 l 14 0 m 161 833 l 185 972 l 311 972 l 288 833 l 161 833 z "},"ı":{"ha":297,"x_min":14,"x_max":260,"o":"m 14 0 l 133 681 l 260 681 l 140 0 l 14 0 z "},"í":{"ha":297,"x_min":14,"x_max":375,"o":"m 14 0 l 133 681 l 260 681 l 140 0 l 14 0 m 104 799 l 121 893 l 375 1038 l 351 883 l 104 799 z "},"ĭ":{"ha":297,"x_min":14,"x_max":456,"o":"m 14 0 l 133 681 l 260 681 l 140 0 l 14 0 m 228 800 q 97 842 138 800 q 56 940 56 883 q 61 976 56 960 l 169 976 q 165 953 165 967 q 239 892 165 892 q 304 913 275 892 q 340 976 333 933 l 456 976 q 387 851 444 903 q 228 800 329 800 z "},"î":{"ha":297,"x_min":14,"x_max":410,"o":"m 14 0 l 133 681 l 260 681 l 140 0 l 14 0 m 65 797 l 86 886 l 264 1021 l 410 868 l 393 783 l 239 894 l 65 797 z "},"ȉ":{"ha":297,"x_min":-25,"x_max":361,"o":"m 14 0 l 133 681 l 260 681 l 140 0 l 14 0 m 361 803 l 269 803 l 175 1035 l 311 1035 l 361 803 m 168 803 l 76 803 l -25 1035 l 111 1035 l 168 803 z "},"ï":{"ha":297,"x_min":14,"x_max":433,"o":"m 14 0 l 133 681 l 260 681 l 140 0 l 14 0 z "},"ḯ":{"ha":297,"x_min":14,"x_max":425,"o":"m 14 0 l 133 681 l 260 681 l 140 0 l 14 0 m 289 811 l 308 915 l 425 915 l 406 811 l 289 811 m 33 811 l 53 915 l 169 915 l 150 811 l 33 811 m 146 992 l 157 1081 l 394 1213 l 375 1072 l 146 992 z "},"ị":{"ha":297,"x_min":-32,"x_max":311,"o":"m 14 0 l 133 681 l 260 681 l 140 0 l 14 0 m 161 833 l 185 972 l 311 972 l 288 833 l 161 833 z "},"ì":{"ha":297,"x_min":14,"x_max":356,"o":"m 14 0 l 133 681 l 260 681 l 140 0 l 14 0 m 340 800 l 111 896 l 135 1032 l 356 885 l 340 800 z "},"ỉ":{"ha":297,"x_min":14,"x_max":353,"o":"m 14 0 l 133 681 l 260 681 l 140 0 l 14 0 m 189 775 q 247 826 224 803 q 269 881 269 850 q 221 918 269 918 q 176 910 199 918 q 129 892 153 903 l 118 963 q 235 989 174 989 q 319 965 286 989 q 353 896 351 940 q 317 803 353 842 q 228 729 281 764 l 189 775 z "},"ȋ":{"ha":297,"x_min":13,"x_max":421,"o":"m 14 0 l 133 681 l 260 681 l 140 0 l 14 0 m 246 976 q 379 934 338 976 q 421 832 421 892 q 418 800 421 822 l 310 800 q 311 818 311 806 q 233 885 311 885 q 165 864 196 885 q 126 800 133 843 l 13 800 q 83 923 24 869 q 246 976 142 976 z "},"ĳ":{"ha":594,"x_min":14,"x_max":610,"o":"m 14 0 l 133 681 l 260 681 l 140 0 l 14 0 m 161 833 l 185 972 l 311 972 l 288 833 l 161 833 m 179 -336 l 183 -240 q 258 -208 238 -233 q 293 -101 278 -183 l 431 681 l 557 681 l 411 -149 q 338 -283 393 -247 q 224 -329 283 -319 l 179 -336 m 458 833 l 483 972 l 610 972 l 585 833 l 458 833 z "},"ī":{"ha":297,"x_min":8,"x_max":461,"o":"m 14 0 l 133 681 l 260 681 l 140 0 l 14 0 m 8 821 l 28 919 l 461 919 l 442 821 l 8 821 z "},"į":{"ha":297,"x_min":-81,"x_max":313,"o":"m 14 0 l 133 681 l 260 681 l 140 0 l 14 0 m 160 821 l 185 946 l 313 946 l 288 821 l 160 821 m 67 0 l 140 0 q 47 -76 89 -36 q 6 -165 6 -115 q 57 -218 6 -218 q 140 -194 97 -218 l 149 -262 q 101 -281 129 -272 q 38 -289 72 -289 q -46 -265 -12 -289 q -81 -193 -79 -240 q -35 -82 -81 -135 q 67 0 11 -29 z "},"ĩ":{"ha":297,"x_min":3,"x_max":472,"o":"m 14 0 l 133 681 l 260 681 l 140 0 l 14 0 m 331 806 q 240 836 286 806 q 156 867 193 867 q 103 817 114 867 l 3 817 q 149 971 39 971 q 236 940 196 971 q 319 910 276 910 q 372 964 363 910 l 472 964 q 331 806 436 806 z "},"j":{"ha":297,"x_min":-118,"x_max":313,"o":"m -118 -336 l -114 -240 q -40 -208 -60 -233 q -4 -101 -19 -183 l 133 681 l 260 681 l 114 -149 q 41 -283 96 -247 q -74 -329 -14 -319 l -118 -336 m 161 833 l 186 972 l 313 972 l 288 833 l 161 833 z "},"ȷ":{"ha":297,"x_min":-118,"x_max":260,"o":"m -118 -336 l -114 -240 q -40 -208 -60 -233 q -4 -101 -19 -183 l 133 681 l 260 681 l 114 -149 q 41 -283 96 -247 q -74 -329 -14 -319 l -118 -336 z "},"ĵ":{"ha":297,"x_min":-118,"x_max":410,"o":"m -118 -336 l -114 -240 q -40 -208 -60 -233 q -4 -101 -19 -183 l 133 681 l 260 681 l 114 -149 q 41 -283 96 -247 q -74 -329 -14 -319 l -118 -336 m 65 797 l 86 886 l 264 1021 l 410 868 l 393 783 l 239 894 l 65 797 z "},"k":{"ha":594,"x_min":14,"x_max":626,"o":"m 14 0 l 197 1042 l 324 1042 l 206 374 l 476 681 l 626 681 l 326 367 l 510 0 l 361 0 l 201 346 l 140 0 l 14 0 z "},"ķ":{"ha":594,"x_min":14,"x_max":626,"o":"m 14 0 l 197 1042 l 324 1042 l 206 374 l 476 681 l 626 681 l 326 367 l 510 0 l 361 0 l 201 346 l 140 0 l 14 0 m 189 -364 l 138 -364 l 199 -246 l 149 -246 l 169 -126 l 303 -126 l 282 -246 l 189 -364 z "},"ĸ":{"ha":631,"x_min":14,"x_max":672,"o":"m 14 0 l 133 681 l 260 681 l 206 374 l 518 681 l 672 681 l 329 356 l 547 0 l 403 0 l 201 346 l 140 0 l 14 0 z "},"l":{"ha":325,"x_min":33,"x_max":319,"o":"m 167 -14 q 63 22 93 -14 q 33 106 33 57 q 38 145 33 121 q 47 208 42 169 l 193 1042 l 319 1042 l 172 196 q 165 142 165 153 q 183 97 165 107 q 243 86 200 86 l 210 -14 l 167 -14 z "},"ĺ":{"ha":325,"x_min":33,"x_max":415,"o":"m 167 -14 q 63 22 93 -14 q 33 106 33 57 q 38 145 33 121 q 47 208 42 169 l 193 1042 l 319 1042 l 172 196 q 165 142 165 153 q 183 97 165 107 q 243 86 200 86 l 210 -14 l 167 -14 m 167 1131 l 178 1219 l 415 1351 l 396 1211 l 167 1131 z "},"ľ":{"ha":357,"x_min":33,"x_max":504,"o":"m 167 -14 q 63 22 93 -14 q 33 106 33 57 q 38 145 33 121 q 47 208 42 169 l 193 1042 l 319 1042 l 172 196 q 165 142 165 153 q 183 97 165 107 q 243 86 200 86 l 210 -14 l 167 -14 m 333 810 l 375 1042 l 504 1042 l 424 810 l 333 810 z "},"ļ":{"ha":325,"x_min":33,"x_max":319,"o":"m 167 -14 q 63 22 93 -14 q 33 106 33 57 q 38 145 33 121 q 47 208 42 169 l 193 1042 l 319 1042 l 172 196 q 165 142 165 153 q 183 97 165 107 q 243 86 200 86 l 210 -14 l 167 -14 m 100 -364 l 49 -364 l 110 -246 l 60 -246 l 81 -126 l 214 -126 l 193 -246 l 100 -364 z "},"ŀ":{"ha":394,"x_min":33,"x_max":443,"o":"m 167 -14 q 63 22 93 -14 q 33 106 33 57 q 38 145 33 121 q 47 208 42 169 l 193 1042 l 319 1042 l 172 196 q 165 142 165 153 q 183 97 165 107 q 243 86 200 86 l 210 -14 l 167 -14 m 301 514 l 324 639 l 443 639 l 421 514 l 301 514 z "},"ḷ":{"ha":325,"x_min":33,"x_max":319,"o":"m 167 -14 q 63 22 93 -14 q 33 106 33 57 q 38 145 33 121 q 47 208 42 169 l 193 1042 l 319 1042 l 172 196 q 165 142 165 153 q 183 97 165 107 q 243 86 200 86 l 210 -14 l 167 -14 z "},"ǉ":{"ha":622,"x_min":33,"x_max":638,"o":"m 167 -14 q 63 22 93 -14 q 33 106 33 57 q 38 145 33 121 q 47 208 42 169 l 193 1042 l 319 1042 l 172 196 q 165 142 165 153 q 183 97 165 107 q 243 86 200 86 l 210 -14 l 167 -14 m 207 -336 l 211 -240 q 285 -208 265 -233 q 321 -101 306 -183 l 458 681 l 585 681 l 439 -149 q 366 -283 421 -247 q 251 -329 311 -319 l 207 -336 m 486 833 l 511 972 l 638 972 l 613 833 l 486 833 z "},"ḻ":{"ha":325,"x_min":-92,"x_max":361,"o":"m 167 -14 q 63 22 93 -14 q 33 106 33 57 q 38 145 33 121 q 47 208 42 169 l 193 1042 l 319 1042 l 172 196 q 165 142 165 153 q 183 97 165 107 q 243 86 200 86 l 210 -14 l 167 -14 z "},"ł":{"ha":325,"x_min":-1,"x_max":375,"o":"m -1 489 l 15 585 l 375 719 l 358 624 l -1 489 m 167 -14 q 63 22 93 -14 q 33 106 33 57 q 38 145 33 121 q 47 208 42 169 l 193 1042 l 319 1042 l 172 196 q 165 142 165 153 q 183 97 165 107 q 243 86 200 86 l 210 -14 l 167 -14 z "},"m":{"ha":1113,"x_min":14,"x_max":1043,"o":"m 14 0 l 133 681 l 233 681 l 233 608 q 331 678 286 661 q 422 694 375 694 q 528 669 478 694 q 603 558 579 644 q 699 658 639 622 q 846 694 760 694 q 993 646 943 694 q 1043 500 1043 597 q 1039 451 1043 483 q 1017 318 1035 418 q 963 0 1000 218 l 836 0 q 890 309 874 214 q 910 433 906 404 q 914 472 914 461 q 888 556 914 528 q 806 583 861 583 q 669 519 708 583 q 621 394 631 454 l 551 0 l 425 0 q 477 299 461 206 q 497 422 493 392 q 500 464 500 451 q 471 558 500 533 q 393 583 442 583 q 228 494 286 583 l 140 0 l 14 0 z "},"ṃ":{"ha":1113,"x_min":14,"x_max":1043,"o":"m 14 0 l 133 681 l 233 681 l 233 608 q 331 678 286 661 q 422 694 375 694 q 528 669 478 694 q 603 558 579 644 q 699 658 639 622 q 846 694 760 694 q 993 646 943 694 q 1043 500 1043 597 q 1039 451 1043 483 q 1017 318 1035 418 q 963 0 1000 218 l 836 0 q 890 309 874 214 q 910 433 906 404 q 914 472 914 461 q 888 556 914 528 q 806 583 861 583 q 669 519 708 583 q 621 394 631 454 l 551 0 l 425 0 q 477 299 461 206 q 497 422 493 392 q 500 464 500 451 q 471 558 500 533 q 393 583 442 583 q 228 494 286 583 l 140 0 l 14 0 z "},"n":{"ha":715,"x_min":14,"x_max":642,"o":"m 14 0 l 133 681 l 240 681 l 236 608 q 340 678 290 661 q 439 694 389 694 q 594 637 547 694 q 642 476 642 579 q 638 429 642 461 q 619 301 635 397 q 565 0 603 206 l 439 0 q 491 297 475 204 q 510 419 507 390 q 514 460 514 447 q 397 583 514 583 q 302 562 346 583 q 228 494 258 540 l 140 0 l 14 0 z "},"ń":{"ha":715,"x_min":14,"x_max":642,"o":"m 14 0 l 133 681 l 240 681 l 236 608 q 340 678 290 661 q 439 694 389 694 q 594 637 547 694 q 642 476 642 579 q 638 429 642 461 q 619 301 635 397 q 565 0 603 206 l 439 0 q 491 297 475 204 q 510 419 507 390 q 514 460 514 447 q 397 583 514 583 q 302 562 346 583 q 228 494 258 540 l 140 0 l 14 0 m 325 799 l 342 893 l 596 1038 l 572 883 l 325 799 z "},"ŉ":{"ha":726,"x_min":25,"x_max":653,"o":"m 25 0 l 144 681 l 251 681 l 247 608 q 351 678 301 661 q 450 694 400 694 q 606 637 558 694 q 653 476 653 579 q 649 429 653 461 q 630 301 646 397 q 576 0 614 206 l 450 0 q 502 297 486 204 q 522 419 518 390 q 525 460 525 447 q 408 583 525 583 q 313 562 357 583 q 239 494 269 540 l 151 0 l 25 0 z "},"ň":{"ha":715,"x_min":14,"x_max":650,"o":"m 14 0 l 133 681 l 240 681 l 236 608 q 340 678 290 661 q 439 694 389 694 q 594 637 547 694 q 642 476 642 579 q 638 429 642 461 q 619 301 635 397 q 565 0 603 206 l 439 0 q 491 297 475 204 q 510 419 507 390 q 514 460 514 447 q 397 583 514 583 q 302 562 346 583 q 228 494 258 540 l 140 0 l 14 0 m 436 775 l 290 928 l 307 1013 l 461 901 l 650 1013 l 633 908 l 436 775 z "},"ņ":{"ha":715,"x_min":14,"x_max":642,"o":"m 14 0 l 133 681 l 240 681 l 236 608 q 340 678 290 661 q 439 694 389 694 q 594 637 547 694 q 642 476 642 579 q 638 429 642 461 q 619 301 635 397 q 565 0 603 206 l 439 0 q 491 297 475 204 q 510 419 507 390 q 514 460 514 447 q 397 583 514 583 q 302 562 346 583 q 228 494 258 540 l 140 0 l 14 0 m 228 -364 l 176 -364 l 238 -246 l 188 -246 l 208 -126 l 342 -126 l 321 -246 l 228 -364 z "},"ṅ":{"ha":715,"x_min":14,"x_max":642,"o":"m 14 0 l 133 681 l 240 681 l 236 608 q 340 678 290 661 q 439 694 389 694 q 594 637 547 694 q 642 476 642 579 q 638 429 642 461 q 619 301 635 397 q 565 0 603 206 l 439 0 q 491 297 475 204 q 510 419 507 390 q 514 460 514 447 q 397 583 514 583 q 302 562 346 583 q 228 494 258 540 l 140 0 l 14 0 m 381 821 l 406 946 l 533 946 l 508 821 l 381 821 z "},"ṇ":{"ha":715,"x_min":14,"x_max":642,"o":"m 14 0 l 133 681 l 240 681 l 236 608 q 340 678 290 661 q 439 694 389 694 q 594 637 547 694 q 642 476 642 579 q 638 429 642 461 q 619 301 635 397 q 565 0 603 206 l 439 0 q 491 297 475 204 q 510 419 507 390 q 514 460 514 447 q 397 583 514 583 q 302 562 346 583 q 228 494 258 540 l 140 0 l 14 0 z "},"ŋ":{"ha":785,"x_min":44,"x_max":679,"o":"m 608 24 q 503 -184 583 -119 q 315 -249 424 -249 q 182 -225 244 -249 l 219 -117 q 321 -137 269 -137 q 482 19 454 -137 l 544 375 q 553 451 553 419 q 432 583 553 583 q 334 562 381 583 q 257 494 288 540 l 171 0 l 44 0 l 164 681 l 263 681 l 264 608 q 376 678 324 661 q 476 694 428 694 q 631 635 583 694 q 679 474 679 576 q 676 426 679 450 q 669 375 674 401 l 608 24 z "},"ǌ":{"ha":1013,"x_min":14,"x_max":1028,"o":"m 14 0 l 133 681 l 240 681 l 236 608 q 340 678 290 661 q 439 694 389 694 q 594 637 547 694 q 642 476 642 579 q 638 429 642 461 q 619 301 635 397 q 565 0 603 206 l 439 0 q 491 297 475 204 q 510 419 507 390 q 514 460 514 447 q 397 583 514 583 q 302 562 346 583 q 228 494 258 540 l 140 0 l 14 0 m 597 -336 l 601 -240 q 676 -208 656 -233 q 711 -101 696 -183 l 849 681 l 975 681 l 829 -149 q 756 -283 811 -247 q 642 -329 701 -319 l 597 -336 m 876 833 l 901 972 l 1028 972 l 1003 833 l 876 833 z "},"ṉ":{"ha":715,"x_min":14,"x_max":642,"o":"m 14 0 l 133 681 l 240 681 l 236 608 q 340 678 290 661 q 439 694 389 694 q 594 637 547 694 q 642 476 642 579 q 638 429 642 461 q 619 301 635 397 q 565 0 603 206 l 439 0 q 491 297 475 204 q 510 419 507 390 q 514 460 514 447 q 397 583 514 583 q 302 562 346 583 q 228 494 258 540 l 140 0 l 14 0 z "},"ñ":{"ha":715,"x_min":14,"x_max":693,"o":"m 14 0 l 133 681 l 240 681 l 236 608 q 340 678 290 661 q 439 694 389 694 q 594 637 547 694 q 642 476 642 579 q 638 429 642 461 q 619 301 635 397 q 565 0 603 206 l 439 0 q 491 297 475 204 q 510 419 507 390 q 514 460 514 447 q 397 583 514 583 q 302 562 346 583 q 228 494 258 540 l 140 0 l 14 0 m 551 806 q 460 836 507 806 q 376 867 414 867 q 324 817 335 867 l 224 817 q 369 971 260 971 q 457 940 417 971 q 540 910 497 910 q 593 964 583 910 l 693 964 q 551 806 657 806 z "},"o":{"ha":714,"x_min":29,"x_max":660,"o":"m 286 -14 q 92 69 156 -14 q 29 274 29 151 q 77 482 29 386 q 210 636 125 578 q 403 694 294 694 q 597 611 533 694 q 660 406 660 528 q 612 199 660 294 q 479 44 564 103 q 286 -14 394 -14 m 304 97 q 469 185 408 97 q 531 396 531 272 q 385 583 531 583 q 219 496 281 583 q 158 285 158 408 q 194 144 158 192 q 304 97 231 97 z "},"ó":{"ha":714,"x_min":29,"x_max":660,"o":"m 286 -14 q 92 69 156 -14 q 29 274 29 151 q 77 482 29 386 q 210 636 125 578 q 403 694 294 694 q 597 611 533 694 q 660 406 660 528 q 612 199 660 294 q 479 44 564 103 q 286 -14 394 -14 m 304 97 q 469 185 408 97 q 531 396 531 272 q 385 583 531 583 q 219 496 281 583 q 158 285 158 408 q 194 144 158 192 q 304 97 231 97 m 314 799 l 331 893 l 585 1038 l 561 883 l 314 799 z "},"ŏ":{"ha":714,"x_min":29,"x_max":665,"o":"m 286 -14 q 92 69 156 -14 q 29 274 29 151 q 77 482 29 386 q 210 636 125 578 q 403 694 294 694 q 597 611 533 694 q 660 406 660 528 q 612 199 660 294 q 479 44 564 103 q 286 -14 394 -14 m 304 97 q 469 185 408 97 q 531 396 531 272 q 385 583 531 583 q 219 496 281 583 q 158 285 158 408 q 194 144 158 192 q 304 97 231 97 m 438 800 q 306 842 347 800 q 265 940 265 883 q 271 976 265 960 l 379 976 q 375 953 375 967 q 449 892 375 892 q 514 913 485 892 q 550 976 543 933 l 665 976 q 597 851 654 903 q 438 800 539 800 z "},"ô":{"ha":714,"x_min":29,"x_max":660,"o":"m 286 -14 q 92 69 156 -14 q 29 274 29 151 q 77 482 29 386 q 210 636 125 578 q 403 694 294 694 q 597 611 533 694 q 660 406 660 528 q 612 199 660 294 q 479 44 564 103 q 286 -14 394 -14 m 304 97 q 469 185 408 97 q 531 396 531 272 q 385 583 531 583 q 219 496 281 583 q 158 285 158 408 q 194 144 158 192 q 304 97 231 97 m 275 797 l 296 886 l 474 1021 l 619 868 l 603 783 l 449 894 l 275 797 z "},"ố":{"ha":714,"x_min":29,"x_max":792,"o":"m 286 -14 q 92 69 156 -14 q 29 274 29 151 q 77 482 29 386 q 210 636 125 578 q 403 694 294 694 q 597 611 533 694 q 660 406 660 528 q 612 199 660 294 q 479 44 564 103 q 286 -14 394 -14 m 304 97 q 469 185 408 97 q 531 396 531 272 q 385 583 531 583 q 219 496 281 583 q 158 285 158 408 q 194 144 158 192 q 304 97 231 97 m 597 754 l 436 846 l 276 771 l 290 856 l 457 964 l 611 839 l 597 754 m 544 957 l 658 1113 l 792 1113 l 633 957 l 544 957 z "},"ộ":{"ha":714,"x_min":29,"x_max":660,"o":"m 286 -14 q 92 69 156 -14 q 29 274 29 151 q 77 482 29 386 q 210 636 125 578 q 403 694 294 694 q 597 611 533 694 q 660 406 660 528 q 612 199 660 294 q 479 44 564 103 q 286 -14 394 -14 m 304 97 q 469 185 408 97 q 531 396 531 272 q 385 583 531 583 q 219 496 281 583 q 158 285 158 408 q 194 144 158 192 q 304 97 231 97 m 275 797 l 296 886 l 474 1021 l 619 868 l 603 783 l 449 894 l 275 797 z "},"ồ":{"ha":714,"x_min":29,"x_max":660,"o":"m 286 -14 q 92 69 156 -14 q 29 274 29 151 q 77 482 29 386 q 210 636 125 578 q 403 694 294 694 q 597 611 533 694 q 660 406 660 528 q 612 199 660 294 q 479 44 564 103 q 286 -14 394 -14 m 304 97 q 469 185 408 97 q 531 396 531 272 q 385 583 531 583 q 219 496 281 583 q 158 285 158 408 q 194 144 158 192 q 304 97 231 97 m 597 754 l 436 846 l 276 771 l 290 856 l 457 964 l 611 839 l 597 754 m 536 957 l 443 1119 l 575 1119 l 625 957 l 536 957 z "},"ổ":{"ha":714,"x_min":29,"x_max":706,"o":"m 286 -14 q 92 69 156 -14 q 29 274 29 151 q 77 482 29 386 q 210 636 125 578 q 403 694 294 694 q 597 611 533 694 q 660 406 660 528 q 612 199 660 294 q 479 44 564 103 q 286 -14 394 -14 m 304 97 q 469 185 408 97 q 531 396 531 272 q 385 583 531 583 q 219 496 281 583 q 158 285 158 408 q 194 144 158 192 q 304 97 231 97 m 597 754 l 436 846 l 276 771 l 290 856 l 457 964 l 611 839 l 597 754 m 569 919 l 567 975 q 624 1035 624 994 q 574 1074 624 1074 q 533 1066 554 1074 q 489 1049 511 1058 l 478 1119 q 590 1144 531 1144 q 673 1120 640 1144 q 706 1051 706 1096 q 667 965 706 997 q 569 919 629 932 z "},"ỗ":{"ha":714,"x_min":29,"x_max":706,"o":"m 286 -14 q 92 69 156 -14 q 29 274 29 151 q 77 482 29 386 q 210 636 125 578 q 403 694 294 694 q 597 611 533 694 q 660 406 660 528 q 612 199 660 294 q 479 44 564 103 q 286 -14 394 -14 m 304 97 q 469 185 408 97 q 531 396 531 272 q 385 583 531 583 q 219 496 281 583 q 158 285 158 408 q 194 144 158 192 q 304 97 231 97 m 597 754 l 436 846 l 276 771 l 290 856 l 457 964 l 611 839 l 597 754 m 575 1007 q 479 1034 531 1007 q 393 1061 428 1061 q 346 1014 350 1061 l 256 1014 q 383 1153 279 1153 q 480 1126 431 1153 q 568 1099 529 1099 q 615 1146 608 1099 l 706 1146 q 575 1007 685 1007 z "},"ȍ":{"ha":714,"x_min":29,"x_max":660,"o":"m 286 -14 q 92 69 156 -14 q 29 274 29 151 q 77 482 29 386 q 210 636 125 578 q 403 694 294 694 q 597 611 533 694 q 660 406 660 528 q 612 199 660 294 q 479 44 564 103 q 286 -14 394 -14 m 304 97 q 469 185 408 97 q 531 396 531 272 q 385 583 531 583 q 219 496 281 583 q 158 285 158 408 q 194 144 158 192 q 304 97 231 97 m 571 803 l 479 803 l 385 1035 l 521 1035 l 571 803 m 378 803 l 286 803 l 185 1035 l 321 1035 l 378 803 z "},"ö":{"ha":714,"x_min":29,"x_max":660,"o":"m 286 -14 q 92 69 156 -14 q 29 274 29 151 q 77 482 29 386 q 210 636 125 578 q 403 694 294 694 q 597 611 533 694 q 660 406 660 528 q 612 199 660 294 q 479 44 564 103 q 286 -14 394 -14 m 304 97 q 469 185 408 97 q 531 396 531 272 q 385 583 531 583 q 219 496 281 583 q 158 285 158 408 q 194 144 158 192 q 304 97 231 97 z "},"ȫ":{"ha":714,"x_min":29,"x_max":704,"o":"m 286 -14 q 92 69 156 -14 q 29 274 29 151 q 77 482 29 386 q 210 636 125 578 q 403 694 294 694 q 597 611 533 694 q 660 406 660 528 q 612 199 660 294 q 479 44 564 103 q 286 -14 394 -14 m 304 97 q 469 185 408 97 q 531 396 531 272 q 385 583 531 583 q 219 496 281 583 q 158 285 158 408 q 194 144 158 192 q 304 97 231 97 m 499 811 l 518 915 l 635 915 l 615 811 l 499 811 m 243 811 l 263 915 l 379 915 l 360 811 l 243 811 m 249 1032 l 265 1126 l 704 1126 l 688 1032 l 249 1032 z "},"ȱ":{"ha":714,"x_min":29,"x_max":706,"o":"m 286 -14 q 92 69 156 -14 q 29 274 29 151 q 77 482 29 386 q 210 636 125 578 q 403 694 294 694 q 597 611 533 694 q 660 406 660 528 q 612 199 660 294 q 479 44 564 103 q 286 -14 394 -14 m 304 97 q 469 185 408 97 q 531 396 531 272 q 385 583 531 583 q 219 496 281 583 q 158 285 158 408 q 194 144 158 192 q 304 97 231 97 m 364 807 l 386 932 l 517 932 l 494 807 l 364 807 m 250 1040 l 267 1135 l 706 1135 l 689 1040 l 250 1040 z "},"ọ":{"ha":714,"x_min":29,"x_max":660,"o":"m 286 -14 q 92 69 156 -14 q 29 274 29 151 q 77 482 29 386 q 210 636 125 578 q 403 694 294 694 q 597 611 533 694 q 660 406 660 528 q 612 199 660 294 q 479 44 564 103 q 286 -14 394 -14 m 304 97 q 469 185 408 97 q 531 396 531 272 q 385 583 531 583 q 219 496 281 583 q 158 285 158 408 q 194 144 158 192 q 304 97 231 97 z "},"ò":{"ha":714,"x_min":29,"x_max":660,"o":"m 286 -14 q 92 69 156 -14 q 29 274 29 151 q 77 482 29 386 q 210 636 125 578 q 403 694 294 694 q 597 611 533 694 q 660 406 660 528 q 612 199 660 294 q 479 44 564 103 q 286 -14 394 -14 m 304 97 q 469 185 408 97 q 531 396 531 272 q 385 583 531 583 q 219 496 281 583 q 158 285 158 408 q 194 144 158 192 q 304 97 231 97 m 550 800 l 321 896 l 344 1032 l 565 885 l 550 800 z "},"ỏ":{"ha":714,"x_min":29,"x_max":660,"o":"m 286 -14 q 92 69 156 -14 q 29 274 29 151 q 77 482 29 386 q 210 636 125 578 q 403 694 294 694 q 597 611 533 694 q 660 406 660 528 q 612 199 660 294 q 479 44 564 103 q 286 -14 394 -14 m 304 97 q 469 185 408 97 q 531 396 531 272 q 385 583 531 583 q 219 496 281 583 q 158 285 158 408 q 194 144 158 192 q 304 97 231 97 m 399 775 q 456 826 433 803 q 479 881 479 850 q 431 918 479 918 q 385 910 408 918 q 339 892 363 903 l 328 963 q 444 989 383 989 q 528 965 496 989 q 563 896 561 940 q 526 803 563 842 q 438 729 490 764 l 399 775 z "},"ơ":{"ha":714,"x_min":29,"x_max":708,"o":"m 286 -14 q 92 69 156 -14 q 29 274 29 151 q 77 482 29 386 q 210 636 125 578 q 403 694 294 694 q 597 611 533 694 q 660 406 660 528 q 612 199 660 294 q 479 44 564 103 q 286 -14 394 -14 m 304 97 q 469 185 408 97 q 531 396 531 272 q 385 583 531 583 q 219 496 281 583 q 158 285 158 408 q 194 144 158 192 q 304 97 231 97 m 443 589 l 460 681 q 589 783 569 681 l 708 783 q 620 642 690 694 q 443 589 550 589 z "},"ớ":{"ha":714,"x_min":29,"x_max":708,"o":"m 286 -14 q 92 69 156 -14 q 29 274 29 151 q 77 482 29 386 q 210 636 125 578 q 403 694 294 694 q 597 611 533 694 q 660 406 660 528 q 612 199 660 294 q 479 44 564 103 q 286 -14 394 -14 m 304 97 q 469 185 408 97 q 531 396 531 272 q 385 583 531 583 q 219 496 281 583 q 158 285 158 408 q 194 144 158 192 q 304 97 231 97 m 443 589 l 460 681 q 589 783 569 681 l 708 783 q 620 642 690 694 q 443 589 550 589 m 314 799 l 331 893 l 585 1038 l 561 883 l 314 799 z "},"ợ":{"ha":714,"x_min":29,"x_max":708,"o":"m 286 -14 q 92 69 156 -14 q 29 274 29 151 q 77 482 29 386 q 210 636 125 578 q 403 694 294 694 q 597 611 533 694 q 660 406 660 528 q 612 199 660 294 q 479 44 564 103 q 286 -14 394 -14 m 304 97 q 469 185 408 97 q 531 396 531 272 q 385 583 531 583 q 219 496 281 583 q 158 285 158 408 q 194 144 158 192 q 304 97 231 97 m 443 589 l 460 681 q 589 783 569 681 l 708 783 q 620 642 690 694 q 443 589 550 589 z "},"ờ":{"ha":714,"x_min":29,"x_max":708,"o":"m 286 -14 q 92 69 156 -14 q 29 274 29 151 q 77 482 29 386 q 210 636 125 578 q 403 694 294 694 q 597 611 533 694 q 660 406 660 528 q 612 199 660 294 q 479 44 564 103 q 286 -14 394 -14 m 304 97 q 469 185 408 97 q 531 396 531 272 q 385 583 531 583 q 219 496 281 583 q 158 285 158 408 q 194 144 158 192 q 304 97 231 97 m 443 589 l 460 681 q 589 783 569 681 l 708 783 q 620 642 690 694 q 443 589 550 589 m 550 800 l 321 896 l 344 1032 l 565 885 l 550 800 z "},"ở":{"ha":714,"x_min":29,"x_max":708,"o":"m 286 -14 q 92 69 156 -14 q 29 274 29 151 q 77 482 29 386 q 210 636 125 578 q 403 694 294 694 q 597 611 533 694 q 660 406 660 528 q 612 199 660 294 q 479 44 564 103 q 286 -14 394 -14 m 304 97 q 469 185 408 97 q 531 396 531 272 q 385 583 531 583 q 219 496 281 583 q 158 285 158 408 q 194 144 158 192 q 304 97 231 97 m 443 589 l 460 681 q 589 783 569 681 l 708 783 q 620 642 690 694 q 443 589 550 589 m 399 775 q 456 826 433 803 q 479 881 479 850 q 431 918 479 918 q 385 910 408 918 q 339 892 363 903 l 328 963 q 444 989 383 989 q 528 965 496 989 q 563 896 561 940 q 526 803 563 842 q 438 729 490 764 l 399 775 z "},"ỡ":{"ha":714,"x_min":29,"x_max":708,"o":"m 286 -14 q 92 69 156 -14 q 29 274 29 151 q 77 482 29 386 q 210 636 125 578 q 403 694 294 694 q 597 611 533 694 q 660 406 660 528 q 612 199 660 294 q 479 44 564 103 q 286 -14 394 -14 m 304 97 q 469 185 408 97 q 531 396 531 272 q 385 583 531 583 q 219 496 281 583 q 158 285 158 408 q 194 144 158 192 q 304 97 231 97 m 443 589 l 460 681 q 589 783 569 681 l 708 783 q 620 642 690 694 q 443 589 550 589 m 540 806 q 449 836 496 806 q 365 867 403 867 q 313 817 324 867 l 213 817 q 358 971 249 971 q 446 940 406 971 q 529 910 486 910 q 582 964 572 910 l 682 964 q 540 806 646 806 z "},"ő":{"ha":714,"x_min":29,"x_max":771,"o":"m 286 -14 q 92 69 156 -14 q 29 274 29 151 q 77 482 29 386 q 210 636 125 578 q 403 694 294 694 q 597 611 533 694 q 660 406 660 528 q 612 199 660 294 q 479 44 564 103 q 286 -14 394 -14 m 304 97 q 469 185 408 97 q 531 396 531 272 q 385 583 531 583 q 219 496 281 583 q 158 285 158 408 q 194 144 158 192 q 304 97 231 97 m 286 803 l 433 1035 l 569 1035 l 378 803 l 286 803 m 481 803 l 635 1035 l 771 1035 l 572 803 l 481 803 z "},"ȏ":{"ha":714,"x_min":29,"x_max":660,"o":"m 286 -14 q 92 69 156 -14 q 29 274 29 151 q 77 482 29 386 q 210 636 125 578 q 403 694 294 694 q 597 611 533 694 q 660 406 660 528 q 612 199 660 294 q 479 44 564 103 q 286 -14 394 -14 m 304 97 q 469 185 408 97 q 531 396 531 272 q 385 583 531 583 q 219 496 281 583 q 158 285 158 408 q 194 144 158 192 q 304 97 231 97 m 456 976 q 589 934 547 976 q 631 832 631 892 q 628 800 631 822 l 519 800 q 521 818 521 806 q 443 885 521 885 q 374 864 406 885 q 336 800 343 843 l 222 800 q 292 923 233 869 q 456 976 351 976 z "},"ō":{"ha":714,"x_min":29,"x_max":671,"o":"m 286 -14 q 92 69 156 -14 q 29 274 29 151 q 77 482 29 386 q 210 636 125 578 q 403 694 294 694 q 597 611 533 694 q 660 406 660 528 q 612 199 660 294 q 479 44 564 103 q 286 -14 394 -14 m 304 97 q 469 185 408 97 q 531 396 531 272 q 385 583 531 583 q 219 496 281 583 q 158 285 158 408 q 194 144 158 192 q 304 97 231 97 m 218 821 l 238 919 l 671 919 l 651 821 l 218 821 z "},"ṓ":{"ha":714,"x_min":29,"x_max":665,"o":"m 286 -14 q 92 69 156 -14 q 29 274 29 151 q 77 482 29 386 q 210 636 125 578 q 403 694 294 694 q 597 611 533 694 q 660 406 660 528 q 612 199 660 294 q 479 44 564 103 q 286 -14 394 -14 m 304 97 q 469 185 408 97 q 531 396 531 272 q 385 583 531 583 q 219 496 281 583 q 158 285 158 408 q 194 144 158 192 q 304 97 231 97 m 210 810 l 226 904 l 665 904 l 649 810 l 210 810 m 368 981 l 379 1069 l 617 1201 l 597 1061 l 368 981 z "},"ṑ":{"ha":714,"x_min":29,"x_max":665,"o":"m 286 -14 q 92 69 156 -14 q 29 274 29 151 q 77 482 29 386 q 210 636 125 578 q 403 694 294 694 q 597 611 533 694 q 660 406 660 528 q 612 199 660 294 q 479 44 564 103 q 286 -14 394 -14 m 304 97 q 469 185 408 97 q 531 396 531 272 q 385 583 531 583 q 219 496 281 583 q 158 285 158 408 q 194 144 158 192 q 304 97 231 97 m 210 810 l 226 904 l 665 904 l 649 810 l 210 810 m 596 981 l 365 1061 l 389 1193 l 611 1061 l 596 981 z "},"ǫ":{"ha":714,"x_min":29,"x_max":660,"o":"m 286 -14 q 92 69 156 -14 q 29 274 29 151 q 77 482 29 386 q 210 636 125 578 q 403 694 294 694 q 597 611 533 694 q 660 406 660 528 q 612 199 660 294 q 479 44 564 103 q 286 -14 394 -14 m 304 97 q 469 185 408 97 q 531 396 531 272 q 385 583 531 583 q 219 496 281 583 q 158 285 158 408 q 194 144 158 192 q 304 97 231 97 m 301 0 l 375 0 q 282 -76 324 -36 q 240 -165 240 -115 q 292 -218 240 -218 q 375 -194 332 -218 l 383 -262 q 335 -281 364 -272 q 272 -289 307 -289 q 189 -265 222 -289 q 154 -193 156 -240 q 200 -82 154 -135 q 301 0 246 -29 z "},"ø":{"ha":714,"x_min":-14,"x_max":703,"o":"m 592 736 l 703 736 l 97 -56 l -14 -56 l 592 736 m 286 -14 q 92 69 156 -14 q 29 274 29 151 q 77 482 29 386 q 210 636 125 578 q 403 694 294 694 q 597 611 533 694 q 660 406 660 528 q 612 199 660 294 q 479 44 564 103 q 286 -14 394 -14 m 304 97 q 469 185 408 97 q 531 396 531 272 q 385 583 531 583 q 219 496 281 583 q 158 285 158 408 q 194 144 158 192 q 304 97 231 97 z "},"ǿ":{"ha":714,"x_min":-14,"x_max":703,"o":"m 592 736 l 703 736 l 97 -56 l -14 -56 l 592 736 m 286 -14 q 92 69 156 -14 q 29 274 29 151 q 77 482 29 386 q 210 636 125 578 q 403 694 294 694 q 597 611 533 694 q 660 406 660 528 q 612 199 660 294 q 479 44 564 103 q 286 -14 394 -14 m 304 97 q 469 185 408 97 q 531 396 531 272 q 385 583 531 583 q 219 496 281 583 q 158 285 158 408 q 194 144 158 192 q 304 97 231 97 m 314 799 l 331 893 l 585 1038 l 561 883 l 314 799 z "},"õ":{"ha":714,"x_min":29,"x_max":682,"o":"m 286 -14 q 92 69 156 -14 q 29 274 29 151 q 77 482 29 386 q 210 636 125 578 q 403 694 294 694 q 597 611 533 694 q 660 406 660 528 q 612 199 660 294 q 479 44 564 103 q 286 -14 394 -14 m 304 97 q 469 185 408 97 q 531 396 531 272 q 385 583 531 583 q 219 496 281 583 q 158 285 158 408 q 194 144 158 192 q 304 97 231 97 m 540 806 q 449 836 496 806 q 365 867 403 867 q 313 817 324 867 l 213 817 q 358 971 249 971 q 446 940 406 971 q 529 910 486 910 q 582 964 572 910 l 682 964 q 540 806 646 806 z "},"ṍ":{"ha":714,"x_min":29,"x_max":667,"o":"m 286 -14 q 92 69 156 -14 q 29 274 29 151 q 77 482 29 386 q 210 636 125 578 q 403 694 294 694 q 597 611 533 694 q 660 406 660 528 q 612 199 660 294 q 479 44 564 103 q 286 -14 394 -14 m 304 97 q 469 185 408 97 q 531 396 531 272 q 385 583 531 583 q 219 496 281 583 q 158 285 158 408 q 194 144 158 192 q 304 97 231 97 m 536 803 q 440 830 492 803 q 354 857 389 857 q 307 810 311 857 l 217 810 q 344 949 240 949 q 441 922 392 949 q 529 894 490 894 q 576 942 569 894 l 667 942 q 536 803 646 803 m 360 1014 l 371 1103 l 608 1235 l 589 1094 l 360 1014 z "},"ṏ":{"ha":714,"x_min":29,"x_max":678,"o":"m 286 -14 q 92 69 156 -14 q 29 274 29 151 q 77 482 29 386 q 210 636 125 578 q 403 694 294 694 q 597 611 533 694 q 660 406 660 528 q 612 199 660 294 q 479 44 564 103 q 286 -14 394 -14 m 304 97 q 469 185 408 97 q 531 396 531 272 q 385 583 531 583 q 219 496 281 583 q 158 285 158 408 q 194 144 158 192 q 304 97 231 97 m 536 803 q 440 830 492 803 q 354 857 389 857 q 307 810 311 857 l 217 810 q 344 949 240 949 q 441 922 392 949 q 529 894 490 894 q 576 942 569 894 l 667 942 q 536 803 646 803 m 542 1056 l 561 1160 l 678 1160 l 658 1056 l 542 1056 m 286 1056 l 306 1160 l 422 1160 l 403 1056 l 286 1056 z "},"ȭ":{"ha":714,"x_min":29,"x_max":708,"o":"m 286 -14 q 92 69 156 -14 q 29 274 29 151 q 77 482 29 386 q 210 636 125 578 q 403 694 294 694 q 597 611 533 694 q 660 406 660 528 q 612 199 660 294 q 479 44 564 103 q 286 -14 394 -14 m 304 97 q 469 185 408 97 q 531 396 531 272 q 385 583 531 583 q 219 496 281 583 q 158 285 158 408 q 194 144 158 192 q 304 97 231 97 m 536 803 q 440 830 492 803 q 354 857 389 857 q 307 810 311 857 l 217 810 q 344 949 240 949 q 441 922 392 949 q 529 894 490 894 q 576 942 569 894 l 667 942 q 536 803 646 803 m 253 1054 l 269 1149 l 708 1149 l 692 1054 l 253 1054 z "},"œ":{"ha":1142,"x_min":31,"x_max":1106,"o":"m 285 -14 q 95 71 160 -14 q 31 278 31 156 q 77 486 31 392 q 208 638 124 581 q 404 694 292 694 q 542 660 478 694 q 626 553 606 625 q 745 660 675 625 q 881 694 815 694 q 1044 634 983 694 q 1106 465 1106 574 q 1096 382 1106 406 q 1081 340 1086 358 l 660 340 q 653 265 653 294 q 706 119 653 151 q 808 86 760 86 q 913 101 858 86 q 1011 138 968 115 l 1003 31 q 913 -1 965 13 q 799 -14 861 -14 q 632 24 689 -14 q 556 135 575 61 q 438 24 511 61 q 285 -14 364 -14 m 307 97 q 476 191 417 97 q 536 400 536 285 q 501 532 536 481 q 393 583 465 583 q 219 497 281 583 q 158 278 158 411 q 196 145 158 193 q 307 97 233 97 m 678 426 l 974 426 q 976 461 976 451 q 948 550 976 517 q 861 583 919 583 q 751 543 797 583 q 678 426 704 503 z "},"p":{"ha":725,"x_min":-46,"x_max":669,"o":"m -46 -336 l 133 681 l 236 681 l 232 583 q 325 665 278 636 q 438 694 372 694 q 612 610 554 694 q 669 407 669 525 q 626 203 669 300 q 505 47 582 107 q 328 -14 428 -14 q 227 10 272 -14 q 154 86 182 33 l 81 -336 l -46 -336 m 321 97 q 478 189 417 97 q 539 399 539 281 q 506 532 539 481 q 406 583 474 583 q 255 504 324 583 q 186 286 186 425 q 225 140 186 183 q 321 97 264 97 z "},"þ":{"ha":725,"x_min":-46,"x_max":669,"o":"m -46 -336 l 197 1042 l 324 1042 l 246 614 q 335 674 286 653 q 444 694 383 694 q 614 610 558 694 q 669 407 669 525 q 626 203 669 300 q 505 47 582 107 q 328 -14 428 -14 q 227 10 272 -14 q 154 86 182 33 l 81 -336 l -46 -336 m 321 97 q 478 189 417 97 q 539 399 539 281 q 506 532 539 481 q 406 583 474 583 q 255 504 324 583 q 186 286 186 425 q 225 140 186 183 q 321 97 264 97 z "},"q":{"ha":724,"x_min":29,"x_max":686,"o":"m 381 -336 l 456 86 q 358 11 413 36 q 260 -14 303 -14 q 85 65 142 -14 q 29 263 29 144 q 74 472 29 372 q 199 633 119 571 q 383 694 279 694 q 489 665 451 694 q 554 583 526 636 l 583 681 l 686 681 l 507 -336 l 381 -336 m 296 97 q 446 174 378 97 q 514 390 514 250 q 474 538 514 493 q 376 583 435 583 q 222 493 282 583 q 161 285 161 403 q 193 151 161 204 q 296 97 225 97 z "},"r":{"ha":426,"x_min":14,"x_max":472,"o":"m 14 0 l 133 681 l 243 681 l 233 568 q 344 672 292 638 q 453 706 397 706 l 472 706 l 422 568 l 376 568 q 294 540 338 568 q 229 481 250 513 l 144 0 l 14 0 z "},"ŕ":{"ha":426,"x_min":14,"x_max":475,"o":"m 14 0 l 133 681 l 243 681 l 233 568 q 344 672 292 638 q 453 706 397 706 l 472 706 l 422 568 l 376 568 q 294 540 338 568 q 229 481 250 513 l 144 0 l 14 0 m 204 799 l 221 893 l 475 1038 l 451 883 l 204 799 z "},"ř":{"ha":426,"x_min":14,"x_max":529,"o":"m 14 0 l 133 681 l 243 681 l 233 568 q 344 672 292 638 q 453 706 397 706 l 472 706 l 422 568 l 376 568 q 294 540 338 568 q 229 481 250 513 l 144 0 l 14 0 m 315 775 l 169 928 l 186 1013 l 340 901 l 529 1013 l 513 908 l 315 775 z "},"ŗ":{"ha":426,"x_min":-35,"x_max":472,"o":"m 14 0 l 133 681 l 243 681 l 233 568 q 344 672 292 638 q 453 706 397 706 l 472 706 l 422 568 l 376 568 q 294 540 338 568 q 229 481 250 513 l 144 0 l 14 0 m 17 -364 l -35 -364 l 26 -246 l -24 -246 l -3 -126 l 131 -126 l 110 -246 l 17 -364 z "},"ȑ":{"ha":426,"x_min":14,"x_max":472,"o":"m 14 0 l 133 681 l 243 681 l 233 568 q 344 672 292 638 q 453 706 397 706 l 472 706 l 422 568 l 376 568 q 294 540 338 568 q 229 481 250 513 l 144 0 l 14 0 m 461 803 l 369 803 l 275 1035 l 411 1035 l 461 803 m 268 803 l 176 803 l 75 1035 l 211 1035 l 268 803 z "},"ṛ":{"ha":426,"x_min":-29,"x_max":472,"o":"m 14 0 l 133 681 l 243 681 l 233 568 q 344 672 292 638 q 453 706 397 706 l 472 706 l 422 568 l 376 568 q 294 540 338 568 q 229 481 250 513 l 144 0 l 14 0 z "},"ȓ":{"ha":426,"x_min":14,"x_max":521,"o":"m 14 0 l 133 681 l 243 681 l 233 568 q 344 672 292 638 q 453 706 397 706 l 472 706 l 422 568 l 376 568 q 294 540 338 568 q 229 481 250 513 l 144 0 l 14 0 m 346 976 q 479 934 438 976 q 521 832 521 892 q 518 800 521 822 l 410 800 q 411 818 411 806 q 333 885 411 885 q 265 864 296 885 q 226 800 233 843 l 113 800 q 183 923 124 869 q 346 976 242 976 z "},"ṟ":{"ha":426,"x_min":-175,"x_max":472,"o":"m 14 0 l 133 681 l 243 681 l 233 568 q 344 672 292 638 q 453 706 397 706 l 472 706 l 422 568 l 376 568 q 294 540 338 568 q 229 481 250 513 l 144 0 l 14 0 z "},"s":{"ha":540,"x_min":-14,"x_max":508,"o":"m 192 -14 q 56 8 106 -14 q -14 46 7 29 l 21 167 q 88 122 40 147 q 203 97 135 97 q 299 124 268 97 q 331 194 331 151 q 297 263 331 243 q 229 294 264 283 q 121 344 171 314 q 71 460 71 375 q 131 616 71 538 q 339 694 192 694 q 443 680 401 694 q 508 650 485 665 l 475 536 q 416 578 453 561 q 331 596 379 596 q 236 570 275 596 q 197 493 197 544 q 227 433 197 451 q 321 393 257 415 q 414 343 365 378 q 463 222 463 308 q 443 126 463 182 q 366 28 424 71 q 192 -14 308 -14 z "},"ś":{"ha":540,"x_min":-14,"x_max":508,"o":"m 192 -14 q 56 8 106 -14 q -14 46 7 29 l 21 167 q 88 122 40 147 q 203 97 135 97 q 299 124 268 97 q 331 194 331 151 q 297 263 331 243 q 229 294 264 283 q 121 344 171 314 q 71 460 71 375 q 131 616 71 538 q 339 694 192 694 q 443 680 401 694 q 508 650 485 665 l 475 536 q 416 578 453 561 q 331 596 379 596 q 236 570 275 596 q 197 493 197 544 q 227 433 197 451 q 321 393 257 415 q 414 343 365 378 q 463 222 463 308 q 443 126 463 182 q 366 28 424 71 q 192 -14 308 -14 m 236 799 l 253 893 l 507 1038 l 483 883 l 236 799 z "},"ṥ":{"ha":540,"x_min":-14,"x_max":508,"o":"m 192 -14 q 56 8 106 -14 q -14 46 7 29 l 21 167 q 88 122 40 147 q 203 97 135 97 q 299 124 268 97 q 331 194 331 151 q 297 263 331 243 q 229 294 264 283 q 121 344 171 314 q 71 460 71 375 q 131 616 71 538 q 339 694 192 694 q 443 680 401 694 q 508 650 485 665 l 475 536 q 416 578 453 561 q 331 596 379 596 q 236 570 275 596 q 197 493 197 544 q 227 433 197 451 q 321 393 257 415 q 414 343 365 378 q 463 222 463 308 q 443 126 463 182 q 366 28 424 71 q 192 -14 308 -14 m 239 769 l 250 858 l 488 990 l 468 850 l 239 769 m 335 1060 l 357 1185 l 488 1185 l 465 1060 l 335 1060 z "},"š":{"ha":540,"x_min":-14,"x_max":561,"o":"m 192 -14 q 56 8 106 -14 q -14 46 7 29 l 21 167 q 88 122 40 147 q 203 97 135 97 q 299 124 268 97 q 331 194 331 151 q 297 263 331 243 q 229 294 264 283 q 121 344 171 314 q 71 460 71 375 q 131 616 71 538 q 339 694 192 694 q 443 680 401 694 q 508 650 485 665 l 475 536 q 416 578 453 561 q 331 596 379 596 q 236 570 275 596 q 197 493 197 544 q 227 433 197 451 q 321 393 257 415 q 414 343 365 378 q 463 222 463 308 q 443 126 463 182 q 366 28 424 71 q 192 -14 308 -14 z "},"ṧ":{"ha":540,"x_min":-14,"x_max":525,"o":"m 192 -14 q 56 8 106 -14 q -14 46 7 29 l 21 167 q 88 122 40 147 q 203 97 135 97 q 299 124 268 97 q 331 194 331 151 q 297 263 331 243 q 229 294 264 283 q 121 344 171 314 q 71 460 71 375 q 131 616 71 538 q 339 694 192 694 q 443 680 401 694 q 508 650 485 665 l 475 536 q 416 578 453 561 q 331 596 379 596 q 236 570 275 596 q 197 493 197 544 q 227 433 197 451 q 321 393 257 415 q 414 343 365 378 q 463 222 463 308 q 443 126 463 182 q 366 28 424 71 q 192 -14 308 -14 m 338 754 l 183 879 l 197 964 l 358 872 l 525 958 l 513 868 l 338 754 m 325 1013 l 347 1138 l 478 1138 l 456 1013 l 325 1013 z "},"ş":{"ha":540,"x_min":-14,"x_max":508,"o":"m 192 -14 q 56 8 106 -14 q -14 46 7 29 l 21 167 q 88 122 40 147 q 203 97 135 97 q 299 124 268 97 q 331 194 331 151 q 297 263 331 243 q 229 294 264 283 q 121 344 171 314 q 71 460 71 375 q 131 616 71 538 q 339 694 192 694 q 443 680 401 694 q 508 650 485 665 l 475 536 q 416 578 453 561 q 331 596 379 596 q 236 570 275 596 q 197 493 197 544 q 227 433 197 451 q 321 393 257 415 q 414 343 365 378 q 463 222 463 308 q 443 126 463 182 q 366 28 424 71 q 192 -14 308 -14 m 183 -110 l 142 -89 q 211 -75 181 -75 q 315 -167 315 -75 q 265 -272 315 -231 q 143 -314 215 -314 q 82 -306 107 -314 q 39 -287 57 -297 l 72 -219 q 111 -237 90 -231 q 156 -243 132 -243 q 233 -182 233 -243 q 172 -135 233 -135 q 106 -146 139 -135 l 168 0 l 238 0 l 183 -110 z "},"ŝ":{"ha":540,"x_min":-14,"x_max":542,"o":"m 192 -14 q 56 8 106 -14 q -14 46 7 29 l 21 167 q 88 122 40 147 q 203 97 135 97 q 299 124 268 97 q 331 194 331 151 q 297 263 331 243 q 229 294 264 283 q 121 344 171 314 q 71 460 71 375 q 131 616 71 538 q 339 694 192 694 q 443 680 401 694 q 508 650 485 665 l 475 536 q 416 578 453 561 q 331 596 379 596 q 236 570 275 596 q 197 493 197 544 q 227 433 197 451 q 321 393 257 415 q 414 343 365 378 q 463 222 463 308 q 443 126 463 182 q 366 28 424 71 q 192 -14 308 -14 m 197 797 l 218 886 l 396 1021 l 542 868 l 525 783 l 371 894 l 197 797 z "},"ș":{"ha":540,"x_min":-14,"x_max":508,"o":"m 192 -14 q 56 8 106 -14 q -14 46 7 29 l 21 167 q 88 122 40 147 q 203 97 135 97 q 299 124 268 97 q 331 194 331 151 q 297 263 331 243 q 229 294 264 283 q 121 344 171 314 q 71 460 71 375 q 131 616 71 538 q 339 694 192 694 q 443 680 401 694 q 508 650 485 665 l 475 536 q 416 578 453 561 q 331 596 379 596 q 236 570 275 596 q 197 493 197 544 q 227 433 197 451 q 321 393 257 415 q 414 343 365 378 q 463 222 463 308 q 443 126 463 182 q 366 28 424 71 q 192 -14 308 -14 m 136 -364 l 85 -364 l 146 -246 l 96 -246 l 117 -126 l 250 -126 l 229 -246 l 136 -364 z "},"ṡ":{"ha":540,"x_min":-14,"x_max":508,"o":"m 192 -14 q 56 8 106 -14 q -14 46 7 29 l 21 167 q 88 122 40 147 q 203 97 135 97 q 299 124 268 97 q 331 194 331 151 q 297 263 331 243 q 229 294 264 283 q 121 344 171 314 q 71 460 71 375 q 131 616 71 538 q 339 694 192 694 q 443 680 401 694 q 508 650 485 665 l 475 536 q 416 578 453 561 q 331 596 379 596 q 236 570 275 596 q 197 493 197 544 q 227 433 197 451 q 321 393 257 415 q 414 343 365 378 q 463 222 463 308 q 443 126 463 182 q 366 28 424 71 q 192 -14 308 -14 m 292 821 l 317 946 l 444 946 l 419 821 l 292 821 z "},"ṣ":{"ha":540,"x_min":-14,"x_max":508,"o":"m 192 -14 q 56 8 106 -14 q -14 46 7 29 l 21 167 q 88 122 40 147 q 203 97 135 97 q 299 124 268 97 q 331 194 331 151 q 297 263 331 243 q 229 294 264 283 q 121 344 171 314 q 71 460 71 375 q 131 616 71 538 q 339 694 192 694 q 443 680 401 694 q 508 650 485 665 l 475 536 q 416 578 453 561 q 331 596 379 596 q 236 570 275 596 q 197 493 197 544 q 227 433 197 451 q 321 393 257 415 q 414 343 365 378 q 463 222 463 308 q 443 126 463 182 q 366 28 424 71 q 192 -14 308 -14 z "},"ṩ":{"ha":540,"x_min":-14,"x_max":508,"o":"m 192 -14 q 56 8 106 -14 q -14 46 7 29 l 21 167 q 88 122 40 147 q 203 97 135 97 q 299 124 268 97 q 331 194 331 151 q 297 263 331 243 q 229 294 264 283 q 121 344 171 314 q 71 460 71 375 q 131 616 71 538 q 339 694 192 694 q 443 680 401 694 q 508 650 485 665 l 475 536 q 416 578 453 561 q 331 596 379 596 q 236 570 275 596 q 197 493 197 544 q 227 433 197 451 q 321 393 257 415 q 414 343 365 378 q 463 222 463 308 q 443 126 463 182 q 366 28 424 71 q 192 -14 308 -14 m 292 821 l 317 946 l 444 946 l 419 821 l 292 821 z "},"ß":{"ha":768,"x_min":31,"x_max":735,"o":"m 392 -19 q 236 0 308 -19 l 253 111 q 401 92 326 92 q 525 124 474 92 q 576 219 576 157 q 547 303 576 271 q 479 362 518 336 q 411 419 440 388 q 382 501 382 451 q 422 599 382 551 q 525 703 461 646 q 587 772 564 739 q 610 854 610 806 q 490 950 607 950 q 356 901 407 950 q 292 767 306 853 l 157 0 l 31 0 l 133 583 l 33 583 l 61 681 l 150 681 l 165 764 q 288 988 192 914 q 514 1061 383 1061 q 676 1011 617 1061 q 735 882 735 961 q 707 763 735 808 q 626 665 679 717 q 541 581 568 608 q 514 521 514 553 q 542 461 514 488 q 609 406 571 435 q 676 338 647 378 q 706 235 706 297 q 613 49 707 117 q 392 -19 519 -19 z "},"ə":{"ha":636,"x_min":33,"x_max":607,"o":"m 329 694 q 539 609 471 694 q 607 400 607 524 q 560 197 607 292 q 431 44 514 103 q 236 -14 347 -14 q 85 35 138 -14 q 33 160 33 83 q 100 313 33 236 q 350 389 167 389 q 423 385 388 389 q 472 378 458 381 q 421 542 472 500 q 296 583 369 583 q 204 574 256 583 q 108 543 153 564 l 114 642 q 208 679 153 664 q 329 694 263 694 m 361 304 q 192 260 236 304 q 149 175 149 217 q 178 115 149 133 q 249 97 208 97 q 368 143 314 97 q 458 290 422 189 q 419 300 443 296 q 361 304 396 304 z "},"t":{"ha":421,"x_min":49,"x_max":446,"o":"m 206 -14 q 100 24 131 -14 q 69 113 69 63 q 73 145 69 119 q 93 267 76 171 q 149 583 110 364 l 49 583 l 76 681 l 165 681 l 196 849 l 324 861 l 292 681 l 446 681 l 428 583 l 274 583 q 224 296 239 386 q 204 178 208 206 q 200 140 200 150 q 222 94 200 103 q 304 86 244 86 l 338 86 l 310 -14 l 206 -14 z "},"ŧ":{"ha":436,"x_min":19,"x_max":461,"o":"m 19 336 l 36 424 l 415 424 l 399 336 l 19 336 m 221 -14 q 115 24 146 -14 q 85 113 85 63 q 88 145 85 119 q 108 267 92 171 q 164 583 125 364 l 64 583 l 92 681 l 181 681 l 211 849 l 339 861 l 307 681 l 461 681 l 443 583 l 289 583 q 239 296 254 386 q 219 178 224 206 q 215 140 215 150 q 238 94 215 103 q 319 86 260 86 l 353 86 l 325 -14 l 221 -14 z "},"ť":{"ha":421,"x_min":49,"x_max":543,"o":"m 206 -14 q 100 24 131 -14 q 69 113 69 63 q 73 145 69 119 q 93 267 76 171 q 149 583 110 364 l 49 583 l 76 681 l 165 681 l 196 849 l 324 861 l 292 681 l 446 681 l 428 583 l 274 583 q 224 296 239 386 q 204 178 208 206 q 200 140 200 150 q 222 94 200 103 q 304 86 244 86 l 338 86 l 310 -14 l 206 -14 m 372 751 l 414 983 l 543 983 l 463 751 l 372 751 z "},"ţ":{"ha":421,"x_min":49,"x_max":446,"o":"m 206 -14 q 100 24 131 -14 q 69 113 69 63 q 73 145 69 119 q 93 267 76 171 q 149 583 110 364 l 49 583 l 76 681 l 165 681 l 196 849 l 324 861 l 292 681 l 446 681 l 428 583 l 274 583 q 224 296 239 386 q 204 178 208 206 q 200 140 200 150 q 222 94 200 103 q 304 86 244 86 l 338 86 l 310 -14 l 206 -14 m 196 -110 l 154 -89 q 224 -75 193 -75 q 328 -167 328 -75 q 278 -272 328 -231 q 156 -314 228 -314 q 94 -306 119 -314 q 51 -287 69 -297 l 85 -219 q 124 -237 103 -231 q 168 -243 144 -243 q 246 -182 246 -243 q 185 -135 246 -135 q 118 -146 151 -135 l 181 0 l 250 0 l 196 -110 z "},"ț":{"ha":421,"x_min":49,"x_max":446,"o":"m 206 -14 q 100 24 131 -14 q 69 113 69 63 q 73 145 69 119 q 93 267 76 171 q 149 583 110 364 l 49 583 l 76 681 l 165 681 l 196 849 l 324 861 l 292 681 l 446 681 l 428 583 l 274 583 q 224 296 239 386 q 204 178 208 206 q 200 140 200 150 q 222 94 200 103 q 304 86 244 86 l 338 86 l 310 -14 l 206 -14 m 149 -364 l 97 -364 l 158 -246 l 108 -246 l 129 -126 l 263 -126 l 242 -246 l 149 -364 z "},"ẗ":{"ha":421,"x_min":49,"x_max":496,"o":"m 206 -14 q 100 24 131 -14 q 69 113 69 63 q 73 145 69 119 q 93 267 76 171 q 149 583 110 364 l 49 583 l 76 681 l 165 681 l 196 849 l 324 861 l 292 681 l 446 681 l 428 583 l 274 583 q 224 296 239 386 q 204 178 208 206 q 200 140 200 150 q 222 94 200 103 q 304 86 244 86 l 338 86 l 310 -14 l 206 -14 m 99 989 l 121 1100 l 238 1100 l 215 989 l 99 989 m 357 989 l 379 1100 l 496 1100 l 474 989 l 357 989 z "},"ṭ":{"ha":421,"x_min":49,"x_max":446,"o":"m 206 -14 q 100 24 131 -14 q 69 113 69 63 q 73 145 69 119 q 93 267 76 171 q 149 583 110 364 l 49 583 l 76 681 l 165 681 l 196 849 l 324 861 l 292 681 l 446 681 l 428 583 l 274 583 q 224 296 239 386 q 204 178 208 206 q 200 140 200 150 q 222 94 200 103 q 304 86 244 86 l 338 86 l 310 -14 l 206 -14 z "},"ṯ":{"ha":421,"x_min":-43,"x_max":446,"o":"m 206 -14 q 100 24 131 -14 q 69 113 69 63 q 73 145 69 119 q 93 267 76 171 q 149 583 110 364 l 49 583 l 76 681 l 165 681 l 196 849 l 324 861 l 292 681 l 446 681 l 428 583 l 274 583 q 224 296 239 386 q 204 178 208 206 q 200 140 200 150 q 222 94 200 103 q 304 86 244 86 l 338 86 l 310 -14 l 206 -14 z "},"u":{"ha":686,"x_min":47,"x_max":649,"o":"m 236 -14 q 97 38 146 -14 q 47 186 47 90 q 50 222 47 199 q 58 281 53 246 l 126 681 l 253 681 l 188 300 q 181 253 182 269 q 179 225 179 236 q 288 97 179 97 q 433 175 378 97 l 522 681 l 649 681 l 529 0 l 414 0 l 418 75 q 340 11 383 36 q 236 -14 296 -14 z "},"ú":{"ha":686,"x_min":47,"x_max":649,"o":"m 236 -14 q 97 38 146 -14 q 47 186 47 90 q 50 222 47 199 q 58 281 53 246 l 126 681 l 253 681 l 188 300 q 181 253 182 269 q 179 225 179 236 q 288 97 179 97 q 433 175 378 97 l 522 681 l 649 681 l 529 0 l 414 0 l 418 75 q 340 11 383 36 q 236 -14 296 -14 m 294 799 l 311 893 l 565 1038 l 542 883 l 294 799 z "},"ŭ":{"ha":686,"x_min":47,"x_max":649,"o":"m 236 -14 q 97 38 146 -14 q 47 186 47 90 q 50 222 47 199 q 58 281 53 246 l 126 681 l 253 681 l 188 300 q 181 253 182 269 q 179 225 179 236 q 288 97 179 97 q 433 175 378 97 l 522 681 l 649 681 l 529 0 l 414 0 l 418 75 q 340 11 383 36 q 236 -14 296 -14 m 418 800 q 287 842 328 800 q 246 940 246 883 q 251 976 246 960 l 360 976 q 356 953 356 967 q 429 892 356 892 q 494 913 465 892 q 531 976 524 933 l 646 976 q 577 851 635 903 q 418 800 519 800 z "},"û":{"ha":686,"x_min":47,"x_max":649,"o":"m 236 -14 q 97 38 146 -14 q 47 186 47 90 q 50 222 47 199 q 58 281 53 246 l 126 681 l 253 681 l 188 300 q 181 253 182 269 q 179 225 179 236 q 288 97 179 97 q 433 175 378 97 l 522 681 l 649 681 l 529 0 l 414 0 l 418 75 q 340 11 383 36 q 236 -14 296 -14 m 256 797 l 276 886 l 454 1021 l 600 868 l 583 783 l 429 894 l 256 797 z "},"ȕ":{"ha":686,"x_min":47,"x_max":649,"o":"m 236 -14 q 97 38 146 -14 q 47 186 47 90 q 50 222 47 199 q 58 281 53 246 l 126 681 l 253 681 l 188 300 q 181 253 182 269 q 179 225 179 236 q 288 97 179 97 q 433 175 378 97 l 522 681 l 649 681 l 529 0 l 414 0 l 418 75 q 340 11 383 36 q 236 -14 296 -14 m 551 803 l 460 803 l 365 1035 l 501 1035 l 551 803 m 358 803 l 267 803 l 165 1035 l 301 1035 l 358 803 z "},"ü":{"ha":686,"x_min":47,"x_max":649,"o":"m 236 -14 q 97 38 146 -14 q 47 186 47 90 q 50 222 47 199 q 58 281 53 246 l 126 681 l 253 681 l 188 300 q 181 253 182 269 q 179 225 179 236 q 288 97 179 97 q 433 175 378 97 l 522 681 l 649 681 l 529 0 l 414 0 l 418 75 q 340 11 383 36 q 236 -14 296 -14 z "},"ụ":{"ha":686,"x_min":47,"x_max":649,"o":"m 236 -14 q 97 38 146 -14 q 47 186 47 90 q 50 222 47 199 q 58 281 53 246 l 126 681 l 253 681 l 188 300 q 181 253 182 269 q 179 225 179 236 q 288 97 179 97 q 433 175 378 97 l 522 681 l 649 681 l 529 0 l 414 0 l 418 75 q 340 11 383 36 q 236 -14 296 -14 z "},"ù":{"ha":686,"x_min":47,"x_max":649,"o":"m 236 -14 q 97 38 146 -14 q 47 186 47 90 q 50 222 47 199 q 58 281 53 246 l 126 681 l 253 681 l 188 300 q 181 253 182 269 q 179 225 179 236 q 288 97 179 97 q 433 175 378 97 l 522 681 l 649 681 l 529 0 l 414 0 l 418 75 q 340 11 383 36 q 236 -14 296 -14 m 531 800 l 301 896 l 325 1032 l 546 885 l 531 800 z "},"ủ":{"ha":686,"x_min":47,"x_max":649,"o":"m 236 -14 q 97 38 146 -14 q 47 186 47 90 q 50 222 47 199 q 58 281 53 246 l 126 681 l 253 681 l 188 300 q 181 253 182 269 q 179 225 179 236 q 288 97 179 97 q 433 175 378 97 l 522 681 l 649 681 l 529 0 l 414 0 l 418 75 q 340 11 383 36 q 236 -14 296 -14 m 379 775 q 437 826 414 803 q 460 881 460 850 q 411 918 460 918 q 366 910 389 918 q 319 892 343 903 l 308 963 q 425 989 364 989 q 509 965 476 989 q 543 896 542 940 q 507 803 543 842 q 418 729 471 764 l 379 775 z "},"ư":{"ha":686,"x_min":47,"x_max":822,"o":"m 236 -14 q 97 38 146 -14 q 47 186 47 90 q 50 222 47 199 q 58 281 53 246 l 126 681 l 253 681 l 188 300 q 181 253 182 269 q 179 225 179 236 q 288 97 179 97 q 433 175 378 97 l 522 681 l 649 681 l 529 0 l 414 0 l 418 75 q 340 11 383 36 q 236 -14 296 -14 m 557 589 l 574 681 q 703 783 683 681 l 822 783 q 734 642 804 694 q 557 589 664 589 z "},"ứ":{"ha":686,"x_min":47,"x_max":822,"o":"m 236 -14 q 97 38 146 -14 q 47 186 47 90 q 50 222 47 199 q 58 281 53 246 l 126 681 l 253 681 l 188 300 q 181 253 182 269 q 179 225 179 236 q 288 97 179 97 q 433 175 378 97 l 522 681 l 649 681 l 529 0 l 414 0 l 418 75 q 340 11 383 36 q 236 -14 296 -14 m 557 589 l 574 681 q 703 783 683 681 l 822 783 q 734 642 804 694 q 557 589 664 589 m 294 799 l 311 893 l 565 1038 l 542 883 l 294 799 z "},"ự":{"ha":686,"x_min":47,"x_max":822,"o":"m 236 -14 q 97 38 146 -14 q 47 186 47 90 q 50 222 47 199 q 58 281 53 246 l 126 681 l 253 681 l 188 300 q 181 253 182 269 q 179 225 179 236 q 288 97 179 97 q 433 175 378 97 l 522 681 l 649 681 l 529 0 l 414 0 l 418 75 q 340 11 383 36 q 236 -14 296 -14 m 557 589 l 574 681 q 703 783 683 681 l 822 783 q 734 642 804 694 q 557 589 664 589 z "},"ừ":{"ha":686,"x_min":47,"x_max":822,"o":"m 236 -14 q 97 38 146 -14 q 47 186 47 90 q 50 222 47 199 q 58 281 53 246 l 126 681 l 253 681 l 188 300 q 181 253 182 269 q 179 225 179 236 q 288 97 179 97 q 433 175 378 97 l 522 681 l 649 681 l 529 0 l 414 0 l 418 75 q 340 11 383 36 q 236 -14 296 -14 m 557 589 l 574 681 q 703 783 683 681 l 822 783 q 734 642 804 694 q 557 589 664 589 m 531 800 l 301 896 l 325 1032 l 546 885 l 531 800 z "},"ử":{"ha":686,"x_min":47,"x_max":822,"o":"m 236 -14 q 97 38 146 -14 q 47 186 47 90 q 50 222 47 199 q 58 281 53 246 l 126 681 l 253 681 l 188 300 q 181 253 182 269 q 179 225 179 236 q 288 97 179 97 q 433 175 378 97 l 522 681 l 649 681 l 529 0 l 414 0 l 418 75 q 340 11 383 36 q 236 -14 296 -14 m 557 589 l 574 681 q 703 783 683 681 l 822 783 q 734 642 804 694 q 557 589 664 589 m 379 775 q 437 826 414 803 q 460 881 460 850 q 411 918 460 918 q 366 910 389 918 q 319 892 343 903 l 308 963 q 425 989 364 989 q 509 965 476 989 q 543 896 542 940 q 507 803 543 842 q 418 729 471 764 l 379 775 z "},"ữ":{"ha":686,"x_min":47,"x_max":822,"o":"m 236 -14 q 97 38 146 -14 q 47 186 47 90 q 50 222 47 199 q 58 281 53 246 l 126 681 l 253 681 l 188 300 q 181 253 182 269 q 179 225 179 236 q 288 97 179 97 q 433 175 378 97 l 522 681 l 649 681 l 529 0 l 414 0 l 418 75 q 340 11 383 36 q 236 -14 296 -14 m 557 589 l 574 681 q 703 783 683 681 l 822 783 q 734 642 804 694 q 557 589 664 589 m 521 806 q 430 836 476 806 q 346 867 383 867 q 293 817 304 867 l 193 817 q 339 971 229 971 q 426 940 386 971 q 510 910 467 910 q 563 964 553 910 l 663 964 q 521 806 626 806 z "},"ű":{"ha":686,"x_min":47,"x_max":751,"o":"m 236 -14 q 97 38 146 -14 q 47 186 47 90 q 50 222 47 199 q 58 281 53 246 l 126 681 l 253 681 l 188 300 q 181 253 182 269 q 179 225 179 236 q 288 97 179 97 q 433 175 378 97 l 522 681 l 649 681 l 529 0 l 414 0 l 418 75 q 340 11 383 36 q 236 -14 296 -14 m 267 803 l 414 1035 l 550 1035 l 358 803 l 267 803 m 461 803 l 615 1035 l 751 1035 l 553 803 l 461 803 z "},"ȗ":{"ha":686,"x_min":47,"x_max":649,"o":"m 236 -14 q 97 38 146 -14 q 47 186 47 90 q 50 222 47 199 q 58 281 53 246 l 126 681 l 253 681 l 188 300 q 181 253 182 269 q 179 225 179 236 q 288 97 179 97 q 433 175 378 97 l 522 681 l 649 681 l 529 0 l 414 0 l 418 75 q 340 11 383 36 q 236 -14 296 -14 m 436 976 q 569 934 528 976 q 611 832 611 892 q 608 800 611 822 l 500 800 q 501 818 501 806 q 424 885 501 885 q 355 864 386 885 q 317 800 324 843 l 203 800 q 273 923 214 869 q 436 976 332 976 z "},"ū":{"ha":686,"x_min":47,"x_max":651,"o":"m 236 -14 q 97 38 146 -14 q 47 186 47 90 q 50 222 47 199 q 58 281 53 246 l 126 681 l 253 681 l 188 300 q 181 253 182 269 q 179 225 179 236 q 288 97 179 97 q 433 175 378 97 l 522 681 l 649 681 l 529 0 l 414 0 l 418 75 q 340 11 383 36 q 236 -14 296 -14 m 199 821 l 218 919 l 651 919 l 632 821 l 199 821 z "},"ṻ":{"ha":686,"x_min":47,"x_max":667,"o":"m 236 -14 q 97 38 146 -14 q 47 186 47 90 q 50 222 47 199 q 58 281 53 246 l 126 681 l 253 681 l 188 300 q 181 253 182 269 q 179 225 179 236 q 288 97 179 97 q 433 175 378 97 l 522 681 l 649 681 l 529 0 l 414 0 l 418 75 q 340 11 383 36 q 236 -14 296 -14 m 190 810 l 207 904 l 646 904 l 629 810 l 190 810 m 531 1022 l 550 1126 l 667 1126 l 647 1022 l 531 1022 m 275 1022 l 294 1126 l 411 1126 l 392 1022 l 275 1022 z "},"ų":{"ha":686,"x_min":47,"x_max":665,"o":"m 236 -14 q 97 38 146 -14 q 47 186 47 90 q 50 222 47 199 q 58 281 53 246 l 126 681 l 253 681 l 188 300 q 181 253 182 269 q 179 225 179 236 q 288 97 179 97 q 433 175 378 97 l 522 681 l 649 681 l 529 0 l 414 0 l 418 75 q 340 11 383 36 q 236 -14 296 -14 m 583 14 l 657 14 q 564 -62 606 -22 q 522 -151 522 -101 q 574 -204 522 -204 q 657 -181 614 -204 l 665 -249 q 617 -267 646 -258 q 554 -275 589 -275 q 471 -251 504 -275 q 436 -179 438 -226 q 482 -68 436 -121 q 583 14 528 -15 z "},"ů":{"ha":686,"x_min":47,"x_max":649,"o":"m 236 -14 q 97 38 146 -14 q 47 186 47 90 q 50 222 47 199 q 58 281 53 246 l 126 681 l 253 681 l 188 300 q 181 253 182 269 q 179 225 179 236 q 288 97 179 97 q 433 175 378 97 l 522 681 l 649 681 l 529 0 l 414 0 l 418 75 q 340 11 383 36 q 236 -14 296 -14 m 407 789 q 316 822 346 789 q 286 899 286 854 q 337 1017 286 968 q 457 1067 388 1067 q 548 1034 518 1067 q 578 957 578 1001 q 528 838 578 888 q 407 789 479 789 m 417 850 q 478 878 451 850 q 506 943 506 906 q 447 1006 506 1006 q 385 977 413 1006 q 358 911 358 949 q 417 850 358 850 z "},"ũ":{"ha":686,"x_min":47,"x_max":663,"o":"m 236 -14 q 97 38 146 -14 q 47 186 47 90 q 50 222 47 199 q 58 281 53 246 l 126 681 l 253 681 l 188 300 q 181 253 182 269 q 179 225 179 236 q 288 97 179 97 q 433 175 378 97 l 522 681 l 649 681 l 529 0 l 414 0 l 418 75 q 340 11 383 36 q 236 -14 296 -14 m 521 806 q 430 836 476 806 q 346 867 383 867 q 293 817 304 867 l 193 817 q 339 971 229 971 q 426 940 386 971 q 510 910 467 910 q 563 964 553 910 l 663 964 q 521 806 626 806 z "},"ṹ":{"ha":686,"x_min":47,"x_max":649,"o":"m 236 -14 q 97 38 146 -14 q 47 186 47 90 q 50 222 47 199 q 58 281 53 246 l 126 681 l 253 681 l 188 300 q 181 253 182 269 q 179 225 179 236 q 288 97 179 97 q 433 175 378 97 l 522 681 l 649 681 l 529 0 l 414 0 l 418 75 q 340 11 383 36 q 236 -14 296 -14 m 517 803 q 421 830 472 803 q 335 857 369 857 q 288 810 292 857 l 197 810 q 325 949 221 949 q 422 922 372 949 q 510 894 471 894 q 557 942 550 894 l 647 942 q 517 803 626 803 m 340 1014 l 351 1103 l 589 1235 l 569 1094 l 340 1014 z "},"v":{"ha":610,"x_min":49,"x_max":647,"o":"m 164 0 l 49 681 l 182 681 l 253 138 l 513 681 l 647 681 l 293 0 l 164 0 z "},"w":{"ha":919,"x_min":68,"x_max":947,"o":"m 132 0 l 68 681 l 207 681 l 225 138 l 443 660 l 564 660 l 599 138 l 808 681 l 947 681 l 643 0 l 515 0 l 476 503 l 258 0 l 132 0 z "},"ẃ":{"ha":919,"x_min":68,"x_max":947,"o":"m 132 0 l 68 681 l 207 681 l 225 138 l 443 660 l 564 660 l 599 138 l 808 681 l 947 681 l 643 0 l 515 0 l 476 503 l 258 0 l 132 0 m 411 799 l 428 893 l 682 1038 l 658 883 l 411 799 z "},"ŵ":{"ha":919,"x_min":68,"x_max":947,"o":"m 132 0 l 68 681 l 207 681 l 225 138 l 443 660 l 564 660 l 599 138 l 808 681 l 947 681 l 643 0 l 515 0 l 476 503 l 258 0 l 132 0 m 372 797 l 393 886 l 571 1021 l 717 868 l 700 783 l 546 894 l 372 797 z "},"ẅ":{"ha":919,"x_min":68,"x_max":947,"o":"m 132 0 l 68 681 l 207 681 l 225 138 l 443 660 l 564 660 l 599 138 l 808 681 l 947 681 l 643 0 l 515 0 l 476 503 l 258 0 l 132 0 m 343 821 l 365 932 l 482 932 l 460 821 l 343 821 m 601 821 l 624 932 l 740 932 l 718 821 l 601 821 z "},"ẁ":{"ha":919,"x_min":68,"x_max":947,"o":"m 132 0 l 68 681 l 207 681 l 225 138 l 443 660 l 564 660 l 599 138 l 808 681 l 947 681 l 643 0 l 515 0 l 476 503 l 258 0 l 132 0 m 647 800 l 418 896 l 442 1032 l 663 885 l 647 800 z "},"x":{"ha":610,"x_min":-51,"x_max":636,"o":"m -51 0 l 218 342 l 72 681 l 217 681 l 308 417 l 488 681 l 636 681 l 354 331 l 521 0 l 376 0 l 271 265 l 93 0 l -51 0 z "},"y":{"ha":638,"x_min":-18,"x_max":676,"o":"m -18 -336 l 188 31 l 44 681 l 185 681 l 278 175 l 536 681 l 676 681 l 117 -336 l -18 -336 z "},"ý":{"ha":638,"x_min":-18,"x_max":676,"o":"m -18 -336 l 188 31 l 44 681 l 185 681 l 278 175 l 536 681 l 676 681 l 117 -336 l -18 -336 m 268 799 l 285 893 l 539 1038 l 515 883 l 268 799 z "},"ŷ":{"ha":638,"x_min":-18,"x_max":676,"o":"m -18 -336 l 188 31 l 44 681 l 185 681 l 278 175 l 536 681 l 676 681 l 117 -336 l -18 -336 m 229 797 l 250 886 l 428 1021 l 574 868 l 557 783 l 403 894 l 229 797 z "},"ÿ":{"ha":638,"x_min":-18,"x_max":676,"o":"m -18 -336 l 188 31 l 44 681 l 185 681 l 278 175 l 536 681 l 676 681 l 117 -336 l -18 -336 z "},"ẏ":{"ha":638,"x_min":-18,"x_max":676,"o":"m -18 -336 l 188 31 l 44 681 l 185 681 l 278 175 l 536 681 l 676 681 l 117 -336 l -18 -336 m 324 821 l 349 946 l 476 946 l 451 821 l 324 821 z "},"ỵ":{"ha":638,"x_min":-18,"x_max":676,"o":"m -18 -336 l 188 31 l 44 681 l 185 681 l 278 175 l 536 681 l 676 681 l 117 -336 l -18 -336 z "},"ỳ":{"ha":638,"x_min":-18,"x_max":676,"o":"m -18 -336 l 188 31 l 44 681 l 185 681 l 278 175 l 536 681 l 676 681 l 117 -336 l -18 -336 m 504 800 l 275 896 l 299 1032 l 519 885 l 504 800 z "},"ỷ":{"ha":638,"x_min":-18,"x_max":676,"o":"m -18 -336 l 188 31 l 44 681 l 185 681 l 278 175 l 536 681 l 676 681 l 117 -336 l -18 -336 m 353 775 q 410 826 388 803 q 433 881 433 850 q 385 918 433 918 q 340 910 363 918 q 293 892 317 903 l 282 963 q 399 989 338 989 q 483 965 450 989 q 517 896 515 940 q 481 803 517 842 q 392 729 444 764 l 353 775 z "},"ȳ":{"ha":638,"x_min":-18,"x_max":676,"o":"m -18 -336 l 188 31 l 44 681 l 185 681 l 278 175 l 536 681 l 676 681 l 117 -336 l -18 -336 m 172 821 l 192 919 l 625 919 l 606 821 l 172 821 z "},"ỹ":{"ha":638,"x_min":-18,"x_max":676,"o":"m -18 -336 l 188 31 l 44 681 l 185 681 l 278 175 l 536 681 l 676 681 l 117 -336 l -18 -336 m 494 806 q 403 836 450 806 q 319 867 357 867 q 267 817 278 867 l 167 817 q 313 971 203 971 q 400 940 360 971 q 483 910 440 910 q 536 964 526 910 l 636 964 q 494 806 600 806 z "},"z":{"ha":597,"x_min":-40,"x_max":613,"o":"m -40 0 l 393 583 l 75 583 l 92 681 l 613 681 l 181 97 l 501 97 l 483 0 l -40 0 z "},"ź":{"ha":597,"x_min":-40,"x_max":613,"o":"m -40 0 l 393 583 l 75 583 l 92 681 l 613 681 l 181 97 l 501 97 l 483 0 l -40 0 m 260 799 l 276 893 l 531 1038 l 507 883 l 260 799 z "},"ž":{"ha":597,"x_min":-40,"x_max":613,"o":"m -40 0 l 393 583 l 75 583 l 92 681 l 613 681 l 181 97 l 501 97 l 483 0 l -40 0 z "},"ż":{"ha":597,"x_min":-40,"x_max":613,"o":"m -40 0 l 393 583 l 75 583 l 92 681 l 613 681 l 181 97 l 501 97 l 483 0 l -40 0 m 315 821 l 340 946 l 468 946 l 443 821 l 315 821 z "},"ẓ":{"ha":597,"x_min":-40,"x_max":613,"o":"m -40 0 l 393 583 l 75 583 l 92 681 l 613 681 l 181 97 l 501 97 l 483 0 l -40 0 z "},"ª":{"ha":426,"x_min":82,"x_max":440,"o":"m 185 603 q 111 628 140 603 q 83 699 82 653 q 166 820 83 788 q 331 861 249 853 q 332 869 332 865 q 332 875 332 872 q 268 919 332 919 q 154 894 221 919 l 161 978 q 311 1007 233 1007 q 440 897 440 1007 q 436 857 440 881 l 417 746 q 413 724 414 733 q 411 708 411 714 q 436 688 411 688 l 440 688 l 415 603 l 379 603 q 308 646 314 603 q 253 614 286 625 q 185 603 219 603 m 304 704 l 319 792 q 236 770 276 788 q 196 713 196 753 q 238 681 196 681 q 304 704 272 681 z "},"º":{"ha":450,"x_min":83,"x_max":497,"o":"m 254 603 q 128 650 171 603 q 83 767 85 697 q 154 935 83 864 q 326 1007 225 1007 q 454 960 411 1007 q 497 846 497 914 q 425 667 497 731 q 254 603 353 603 m 269 686 q 357 733 325 686 q 389 839 389 781 q 311 925 389 925 q 224 878 256 925 q 192 776 192 832 q 269 686 192 686 z "},"π":{"ha":931,"x_min":42,"x_max":847,"o":"m 676 94 q 742 104 710 94 l 724 7 q 611 -14 676 -14 q 481 115 478 -14 q 488 175 481 138 l 560 583 l 317 583 l 214 0 l 89 0 l 192 583 l 42 583 l 58 681 l 847 681 l 831 583 l 683 583 l 614 194 q 611 164 611 172 q 676 94 611 94 z "},"₀":{"ha":517,"x_min":-39,"x_max":438,"o":"m 150 -100 q 9 -41 57 -100 q -37 113 -39 18 q 41 350 -37 244 q 247 456 119 456 q 386 401 336 456 q 438 253 436 347 q 359 8 438 117 q 150 -100 281 -100 m 167 0 q 284 80 246 0 q 322 242 322 160 q 231 356 322 356 q 114 276 151 356 q 76 117 76 196 q 167 0 76 0 z "},"₁":{"ha":288,"x_min":4,"x_max":221,"o":"m 25 -81 l 93 307 q 4 261 50 274 l 10 353 q 144 436 93 379 l 221 436 l 129 -81 l 25 -81 z "},"₂":{"ha":406,"x_min":-74,"x_max":326,"o":"m -74 -81 l 119 139 q 183 220 158 183 q 208 296 208 257 q 144 356 208 356 q 68 338 104 356 q 1 296 32 319 l 10 403 q 86 439 40 422 q 179 456 132 456 q 288 419 249 456 q 326 324 326 382 q 293 209 326 261 q 206 96 260 157 l 65 -65 l 67 14 l 300 14 l 283 -81 l -74 -81 z "},"₃":{"ha":400,"x_min":-93,"x_max":321,"o":"m 74 -100 q -18 -87 24 -100 q -93 -54 -60 -75 l -50 40 q 8 4 -22 18 q 76 -10 38 -10 q 176 74 176 -10 q 96 140 176 140 l 57 140 l 74 231 l 114 231 q 183 253 157 231 q 210 307 210 275 q 138 365 210 365 q 74 355 104 365 q 13 326 43 344 l 19 422 q 175 456 93 456 q 283 421 244 456 q 321 331 321 386 q 287 238 321 276 q 194 181 253 200 l 197 197 q 292 81 292 174 q 227 -50 292 0 q 74 -100 163 -100 z "},"₄":{"ha":447,"x_min":-81,"x_max":371,"o":"m -81 29 l 282 436 l 360 436 l 303 111 l 371 111 l 356 29 l 288 29 l 268 -81 l 176 -81 l 196 29 l -81 29 m 69 85 l 40 111 l 211 111 l 254 358 l 282 329 l 69 85 z "},"₅":{"ha":424,"x_min":-64,"x_max":350,"o":"m 93 -100 q -64 -62 6 -100 l -21 32 q 33 1 6 13 q 97 -10 61 -10 q 170 15 142 -10 q 199 82 199 39 q 100 158 199 158 q 47 155 72 158 q -1 146 22 151 l 82 436 l 350 436 l 329 346 l 114 346 l 163 404 l 104 210 l 74 239 q 146 249 113 249 q 310 100 307 249 q 248 -44 310 13 q 93 -100 186 -100 z "},"₆":{"ha":401,"x_min":-53,"x_max":332,"o":"m 119 -100 q -9 -55 35 -100 q -51 67 -53 -10 q 50 297 -51 194 q 281 456 151 400 l 332 388 q 148 278 236 350 q 43 111 60 206 l 32 156 q 188 238 85 238 q 294 199 256 238 q 332 101 332 161 q 269 -42 332 15 q 119 -100 207 -100 m 128 -15 q 199 14 169 -15 q 228 85 228 43 q 156 153 228 153 q 84 124 114 153 q 54 53 54 94 q 128 -15 54 -15 z "},"₇":{"ha":394,"x_min":-32,"x_max":396,"o":"m -32 -81 l 271 408 l 290 354 l 10 354 l 25 444 l 396 444 l 68 -81 l -32 -81 z "}}}
